<svg width="1440" height="914" viewBox="0 0 1440 914" fill="none" xmlns="http://www.w3.org/2000/svg">
<rect width="1440" height="914" fill="white"/>
<mask id="mask0" mask-type="alpha" maskUnits="userSpaceOnUse" x="11" y="11" width="1418" height="892">
<path d="M12.483 26.9082L29.4026 38.4329C31.1681 36.2816 53.8011 18.0726 60.2992 12.6945" stroke="#0047FF" stroke-opacity="0.5" stroke-width="2"/>
<path d="M12.483 77.5642L29.4026 89.0889C31.1681 86.9376 53.8011 68.7286 60.2992 63.3505" stroke="#0047FF" stroke-opacity="0.5" stroke-width="2"/>
<path d="M12.483 128.22L29.4026 139.745C31.1681 137.594 53.8011 119.385 60.2992 114.007" stroke="#0047FF" stroke-opacity="0.5" stroke-width="2"/>
<path d="M12.483 178.876L29.4026 190.401C31.1681 188.25 53.8011 170.041 60.2992 164.663" stroke="#0047FF" stroke-opacity="0.5" stroke-width="2"/>
<path d="M84.4319 26.9082L101.352 38.4329C103.117 36.2816 125.75 18.0726 132.248 12.6945" stroke="#0047FF" stroke-opacity="0.5" stroke-width="2"/>
<path d="M84.4319 77.5642L101.351 89.0889C103.117 86.9376 125.75 68.7286 132.248 63.3505" stroke="#0047FF" stroke-opacity="0.5" stroke-width="2"/>
<path d="M84.4319 128.22L101.351 139.745C103.117 137.594 125.75 119.385 132.248 114.007" stroke="#0047FF" stroke-opacity="0.5" stroke-width="2"/>
<path d="M84.4319 178.876L101.351 190.401C103.117 188.25 125.75 170.041 132.248 164.663" stroke="#0047FF" stroke-opacity="0.5" stroke-width="2"/>
<path d="M156.381 26.9082L173.301 38.4329C175.066 36.2816 197.699 18.0726 204.197 12.6945" stroke="#0047FF" stroke-opacity="0.5" stroke-width="2"/>
<path d="M156.381 77.5642L173.301 89.0889C175.066 86.9376 197.699 68.7286 204.197 63.3505" stroke="#0047FF" stroke-opacity="0.5" stroke-width="2"/>
<path d="M156.381 128.22L173.301 139.745C175.066 137.594 197.699 119.385 204.197 114.007" stroke="#0047FF" stroke-opacity="0.5" stroke-width="2"/>
<path d="M156.381 178.876L173.301 190.401C175.066 188.25 197.699 170.041 204.197 164.663" stroke="#0047FF" stroke-opacity="0.5" stroke-width="2"/>
<path d="M444.177 26.9082L461.097 38.4329C462.862 36.2816 485.495 18.0726 491.993 12.6945" stroke="#0047FF" stroke-opacity="0.5" stroke-width="2"/>
<path d="M444.177 77.5642L461.097 89.0889C462.862 86.9376 485.495 68.7286 491.993 63.3505" stroke="#0047FF" stroke-opacity="0.5" stroke-width="2"/>
<path d="M444.177 128.22L461.097 139.745C462.862 137.594 485.495 119.385 491.993 114.007" stroke="#0047FF" stroke-opacity="0.5" stroke-width="2"/>
<path d="M444.177 178.876L461.097 190.401C462.862 188.25 485.495 170.041 491.993 164.663" stroke="#0047FF" stroke-opacity="0.5" stroke-width="2"/>
<path d="M516.126 26.9082L533.046 38.4329C534.811 36.2816 557.444 18.0726 563.942 12.6945" stroke="#0047FF" stroke-opacity="0.5" stroke-width="2"/>
<path d="M516.126 77.5642L533.046 89.0889C534.811 86.9376 557.444 68.7286 563.942 63.3505" stroke="#0047FF" stroke-opacity="0.5" stroke-width="2"/>
<path d="M516.126 128.22L533.046 139.745C534.811 137.594 557.444 119.385 563.942 114.007" stroke="#0047FF" stroke-opacity="0.5" stroke-width="2"/>
<path d="M516.126 178.876L533.046 190.401C534.811 188.25 557.444 170.041 563.942 164.663" stroke="#0047FF" stroke-opacity="0.5" stroke-width="2"/>
<path d="M588.075 26.9082L604.994 38.4329C606.76 36.2816 629.393 18.0726 635.891 12.6945" stroke="#0047FF" stroke-opacity="0.5" stroke-width="2"/>
<path d="M588.075 77.5642L604.994 89.0889C606.76 86.9376 629.393 68.7286 635.891 63.3505" stroke="#0047FF" stroke-opacity="0.5" stroke-width="2"/>
<path d="M588.075 128.22L604.994 139.745C606.76 137.594 629.393 119.385 635.891 114.007" stroke="#0047FF" stroke-opacity="0.5" stroke-width="2"/>
<path d="M588.075 178.876L604.994 190.401C606.76 188.25 629.393 170.041 635.891 164.663" stroke="#0047FF" stroke-opacity="0.5" stroke-width="2"/>
<path d="M12.483 229.532L29.4026 241.057C31.1681 238.906 53.8011 220.697 60.2992 215.319" stroke="#0047FF" stroke-opacity="0.5" stroke-width="2"/>
<path d="M12.483 280.189L29.4026 291.713C31.1681 289.562 53.8011 271.353 60.2992 265.975" stroke="#0047FF" stroke-opacity="0.5" stroke-width="2"/>
<path d="M12.483 330.845L29.4026 342.369C31.1681 340.218 53.8011 322.009 60.2992 316.631" stroke="#0047FF" stroke-opacity="0.5" stroke-width="2"/>
<path d="M12.483 381.501L29.4026 393.025C31.1681 390.874 53.8011 372.665 60.2992 367.287" stroke="#0047FF" stroke-opacity="0.5" stroke-width="2"/>
<path d="M12 432.157L28.9196 443.681C30.6851 441.53 53.3181 423.321 59.8161 417.943" stroke="#0047FF" stroke-opacity="0.5" stroke-width="2"/>
<path d="M443.694 432.157L460.613 443.681C462.379 441.53 485.012 423.321 491.51 417.943" stroke="#0047FF" stroke-opacity="0.5" stroke-width="2"/>
<path d="M84.4319 229.532L101.351 241.057C103.117 238.906 125.75 220.697 132.248 215.319" stroke="#0047FF" stroke-opacity="0.5" stroke-width="2"/>
<path d="M84.4319 280.189L101.351 291.713C103.117 289.562 125.75 271.353 132.248 265.975" stroke="#0047FF" stroke-opacity="0.5" stroke-width="2"/>
<path d="M84.4319 330.845L101.351 342.369C103.117 340.218 125.75 322.009 132.248 316.631" stroke="#0047FF" stroke-opacity="0.5" stroke-width="2"/>
<path d="M84.4319 381.501L101.351 393.025C103.117 390.874 125.75 372.665 132.248 367.287" stroke="#0047FF" stroke-opacity="0.5" stroke-width="2"/>
<path d="M83.9491 432.157L100.869 443.681C102.634 441.53 125.267 423.321 131.765 417.943" stroke="#0047FF" stroke-opacity="0.5" stroke-width="2"/>
<path d="M515.643 432.157L532.562 443.681C534.328 441.53 556.961 423.321 563.459 417.943" stroke="#0047FF" stroke-opacity="0.5" stroke-width="2"/>
<path d="M156.381 229.532L173.301 241.057C175.066 238.906 197.699 220.697 204.197 215.319" stroke="#0047FF" stroke-opacity="0.5" stroke-width="2"/>
<path d="M156.381 280.189L173.301 291.713C175.066 289.562 197.699 271.353 204.197 265.975" stroke="#0047FF" stroke-opacity="0.5" stroke-width="2"/>
<path d="M156.381 330.845L173.301 342.369C175.066 340.218 197.699 322.009 204.197 316.631" stroke="#0047FF" stroke-opacity="0.5" stroke-width="2"/>
<path d="M156.381 381.501L173.301 393.025C175.066 390.874 197.699 372.665 204.197 367.287" stroke="#0047FF" stroke-opacity="0.5" stroke-width="2"/>
<path d="M155.898 432.157L172.818 443.681C174.583 441.53 197.216 423.321 203.714 417.943" stroke="#0047FF" stroke-opacity="0.5" stroke-width="2"/>
<path d="M587.592 432.157L604.511 443.681C606.277 441.53 628.91 423.321 635.408 417.943" stroke="#0047FF" stroke-opacity="0.5" stroke-width="2"/>
<path d="M444.177 229.532L461.097 241.057C462.862 238.906 485.495 220.697 491.993 215.319" stroke="#0047FF" stroke-opacity="0.5" stroke-width="2"/>
<path d="M444.177 280.189L461.097 291.713C462.862 289.562 485.495 271.353 491.993 265.975" stroke="#0047FF" stroke-opacity="0.5" stroke-width="2"/>
<path d="M444.177 330.845L461.097 342.369C462.862 340.218 485.495 322.009 491.993 316.631" stroke="#0047FF" stroke-opacity="0.5" stroke-width="2"/>
<path d="M444.177 381.501L461.097 393.025C462.862 390.874 485.495 372.665 491.993 367.287" stroke="#0047FF" stroke-opacity="0.5" stroke-width="2"/>
<path d="M516.126 229.532L533.046 241.057C534.811 238.906 557.444 220.697 563.942 215.319" stroke="#0047FF" stroke-opacity="0.5" stroke-width="2"/>
<path d="M516.126 280.189L533.046 291.713C534.811 289.562 557.444 271.353 563.942 265.975" stroke="#0047FF" stroke-opacity="0.5" stroke-width="2"/>
<path d="M516.126 330.845L533.046 342.369C534.811 340.218 557.444 322.009 563.942 316.631" stroke="#0047FF" stroke-opacity="0.5" stroke-width="2"/>
<path d="M516.126 381.501L533.046 393.025C534.811 390.874 557.444 372.665 563.942 367.287" stroke="#0047FF" stroke-opacity="0.5" stroke-width="2"/>
<path d="M588.075 229.532L604.994 241.057C606.76 238.906 629.393 220.697 635.891 215.319" stroke="#0047FF" stroke-opacity="0.5" stroke-width="2"/>
<path d="M588.075 280.189L604.994 291.713C606.76 289.562 629.393 271.353 635.891 265.975" stroke="#0047FF" stroke-opacity="0.5" stroke-width="2"/>
<path d="M588.075 330.845L604.994 342.369C606.76 340.218 629.393 322.009 635.891 316.631" stroke="#0047FF" stroke-opacity="0.5" stroke-width="2"/>
<path d="M588.075 381.501L604.994 393.025C606.76 390.874 629.393 372.665 635.891 367.287" stroke="#0047FF" stroke-opacity="0.5" stroke-width="2"/>
<path d="M228.33 26.9082L245.25 38.4329C247.015 36.2816 269.648 18.0726 276.146 12.6945" stroke="#0047FF" stroke-opacity="0.5" stroke-width="2"/>
<path d="M228.33 77.5642L245.25 89.0889C247.015 86.9376 269.648 68.7286 276.146 63.3505" stroke="#0047FF" stroke-opacity="0.5" stroke-width="2"/>
<path d="M228.33 128.22L245.25 139.745C247.015 137.594 269.648 119.385 276.146 114.007" stroke="#0047FF" stroke-opacity="0.5" stroke-width="2"/>
<path d="M228.33 178.876L245.25 190.401C247.015 188.25 269.648 170.041 276.146 164.663" stroke="#0047FF" stroke-opacity="0.5" stroke-width="2"/>
<path d="M300.279 26.9082L317.199 38.4329C318.964 36.2816 341.597 18.0726 348.095 12.6945" stroke="#0047FF" stroke-opacity="0.5" stroke-width="2"/>
<path d="M300.279 77.5642L317.198 89.0889C318.964 86.9376 341.597 68.7286 348.095 63.3505" stroke="#0047FF" stroke-opacity="0.5" stroke-width="2"/>
<path d="M300.279 128.22L317.198 139.745C318.964 137.594 341.597 119.385 348.095 114.007" stroke="#0047FF" stroke-opacity="0.5" stroke-width="2"/>
<path d="M300.279 178.876L317.198 190.401C318.964 188.25 341.597 170.041 348.095 164.663" stroke="#0047FF" stroke-opacity="0.5" stroke-width="2"/>
<path d="M372.228 26.9082L389.147 38.4329C390.913 36.2816 413.546 18.0726 420.044 12.6945" stroke="#0047FF" stroke-opacity="0.5" stroke-width="2"/>
<path d="M372.228 77.5642L389.147 89.0889C390.913 86.9376 413.546 68.7286 420.044 63.3505" stroke="#0047FF" stroke-opacity="0.5" stroke-width="2"/>
<path d="M372.228 128.22L389.147 139.745C390.913 137.594 413.546 119.385 420.044 114.007" stroke="#0047FF" stroke-opacity="0.5" stroke-width="2"/>
<path d="M372.228 178.876L389.147 190.401C390.913 188.25 413.546 170.041 420.044 164.663" stroke="#0047FF" stroke-opacity="0.5" stroke-width="2"/>
<path d="M660.024 26.9082L676.943 38.4329C678.709 36.2816 701.342 18.0726 707.84 12.6945" stroke="#0047FF" stroke-opacity="0.5" stroke-width="2"/>
<path d="M660.024 77.5642L676.943 89.0889C678.709 86.9376 701.342 68.7286 707.84 63.3505" stroke="#0047FF" stroke-opacity="0.5" stroke-width="2"/>
<path d="M660.024 128.22L676.943 139.745C678.709 137.594 701.342 119.385 707.84 114.007" stroke="#0047FF" stroke-opacity="0.5" stroke-width="2"/>
<path d="M660.024 178.876L676.943 190.401C678.709 188.25 701.342 170.041 707.84 164.663" stroke="#0047FF" stroke-opacity="0.5" stroke-width="2"/>
<path d="M228.33 229.532L245.25 241.057C247.015 238.906 269.648 220.697 276.146 215.319" stroke="#0047FF" stroke-opacity="0.5" stroke-width="2"/>
<path d="M228.33 280.189L245.25 291.713C247.015 289.562 269.648 271.353 276.146 265.975" stroke="#0047FF" stroke-opacity="0.5" stroke-width="2"/>
<path d="M228.33 330.845L245.25 342.369C247.015 340.218 269.648 322.009 276.146 316.631" stroke="#0047FF" stroke-opacity="0.5" stroke-width="2"/>
<path d="M228.33 381.501L245.25 393.025C247.015 390.874 269.648 372.665 276.146 367.287" stroke="#0047FF" stroke-opacity="0.5" stroke-width="2"/>
<path d="M227.847 432.157L244.766 443.681C246.532 441.53 269.165 423.321 275.663 417.943" stroke="#0047FF" stroke-opacity="0.5" stroke-width="2"/>
<path d="M659.541 432.157L676.46 443.681C678.226 441.53 700.859 423.321 707.357 417.943" stroke="#0047FF" stroke-opacity="0.5" stroke-width="2"/>
<path d="M300.279 229.532L317.198 241.057C318.964 238.906 341.597 220.697 348.095 215.319" stroke="#0047FF" stroke-opacity="0.5" stroke-width="2"/>
<path d="M300.279 280.189L317.198 291.713C318.964 289.562 341.597 271.353 348.095 265.975" stroke="#0047FF" stroke-opacity="0.5" stroke-width="2"/>
<path d="M300.279 330.845L317.198 342.369C318.964 340.218 341.597 322.009 348.095 316.631" stroke="#0047FF" stroke-opacity="0.5" stroke-width="2"/>
<path d="M300.279 381.501L317.198 393.025C318.964 390.874 341.597 372.665 348.095 367.287" stroke="#0047FF" stroke-opacity="0.5" stroke-width="2"/>
<path d="M299.796 432.157L316.715 443.681C318.481 441.53 341.114 423.321 347.612 417.943" stroke="#0047FF" stroke-opacity="0.5" stroke-width="2"/>
<path d="M372.228 229.532L389.147 241.057C390.913 238.906 413.546 220.697 420.044 215.319" stroke="#0047FF" stroke-opacity="0.5" stroke-width="2"/>
<path d="M372.228 280.189L389.147 291.713C390.913 289.562 413.546 271.353 420.044 265.975" stroke="#0047FF" stroke-opacity="0.5" stroke-width="2"/>
<path d="M372.228 330.845L389.147 342.369C390.913 340.218 413.546 322.009 420.044 316.631" stroke="#0047FF" stroke-opacity="0.5" stroke-width="2"/>
<path d="M372.228 381.501L389.147 393.025C390.913 390.874 413.546 372.665 420.044 367.287" stroke="#0047FF" stroke-opacity="0.5" stroke-width="2"/>
<path d="M371.745 432.157L388.665 443.681C390.43 441.53 413.063 423.321 419.561 417.943" stroke="#0047FF" stroke-opacity="0.5" stroke-width="2"/>
<path d="M660.024 229.532L676.943 241.057C678.709 238.906 701.342 220.697 707.84 215.319" stroke="#0047FF" stroke-opacity="0.5" stroke-width="2"/>
<path d="M660.024 280.189L676.943 291.713C678.709 289.562 701.342 271.353 707.84 265.975" stroke="#0047FF" stroke-opacity="0.5" stroke-width="2"/>
<path d="M660.024 330.845L676.943 342.369C678.709 340.218 701.342 322.009 707.84 316.631" stroke="#0047FF" stroke-opacity="0.5" stroke-width="2"/>
<path d="M660.024 381.501L676.943 393.025C678.709 390.874 701.342 372.665 707.84 367.287" stroke="#0047FF" stroke-opacity="0.5" stroke-width="2"/>
<path d="M732.483 26.9082L749.403 38.4329C751.168 36.2816 773.801 18.0726 780.299 12.6945" stroke="#0047FF" stroke-opacity="0.5" stroke-width="2"/>
<path d="M732.483 77.5642L749.403 89.0889C751.168 86.9376 773.801 68.7286 780.299 63.3505" stroke="#0047FF" stroke-opacity="0.5" stroke-width="2"/>
<path d="M732.483 128.22L749.403 139.745C751.168 137.594 773.801 119.385 780.299 114.007" stroke="#0047FF" stroke-opacity="0.5" stroke-width="2"/>
<path d="M732.483 178.876L749.403 190.401C751.168 188.25 773.801 170.041 780.299 164.663" stroke="#0047FF" stroke-opacity="0.5" stroke-width="2"/>
<path d="M804.432 26.9082L821.352 38.4329C823.117 36.2816 845.75 18.0726 852.248 12.6945" stroke="#0047FF" stroke-opacity="0.5" stroke-width="2"/>
<path d="M804.432 77.5642L821.351 89.0889C823.117 86.9376 845.75 68.7286 852.248 63.3505" stroke="#0047FF" stroke-opacity="0.5" stroke-width="2"/>
<path d="M804.432 128.22L821.351 139.745C823.117 137.594 845.75 119.385 852.248 114.007" stroke="#0047FF" stroke-opacity="0.5" stroke-width="2"/>
<path d="M804.432 178.876L821.351 190.401C823.117 188.25 845.75 170.041 852.248 164.663" stroke="#0047FF" stroke-opacity="0.5" stroke-width="2"/>
<path d="M876.381 26.9082L893.301 38.4329C895.066 36.2816 917.699 18.0726 924.197 12.6945" stroke="#0047FF" stroke-opacity="0.5" stroke-width="2"/>
<path d="M876.381 77.5642L893.301 89.0889C895.066 86.9376 917.699 68.7286 924.197 63.3505" stroke="#0047FF" stroke-opacity="0.5" stroke-width="2"/>
<path d="M876.381 128.22L893.301 139.745C895.066 137.594 917.699 119.385 924.197 114.007" stroke="#0047FF" stroke-opacity="0.5" stroke-width="2"/>
<path d="M876.381 178.876L893.301 190.401C895.066 188.25 917.699 170.041 924.197 164.663" stroke="#0047FF" stroke-opacity="0.5" stroke-width="2"/>
<path d="M1164.18 26.9082L1181.1 38.4329C1182.86 36.2816 1205.49 18.0726 1211.99 12.6945" stroke="#0047FF" stroke-opacity="0.5" stroke-width="2"/>
<path d="M1164.18 77.5642L1181.1 89.0889C1182.86 86.9376 1205.5 68.7286 1211.99 63.3505" stroke="#0047FF" stroke-opacity="0.5" stroke-width="2"/>
<path d="M1164.18 128.22L1181.1 139.745C1182.86 137.594 1205.5 119.385 1211.99 114.007" stroke="#0047FF" stroke-opacity="0.5" stroke-width="2"/>
<path d="M1164.18 178.876L1181.1 190.401C1182.86 188.25 1205.5 170.041 1211.99 164.663" stroke="#0047FF" stroke-opacity="0.5" stroke-width="2"/>
<path d="M1236.13 26.9082L1253.05 38.4329C1254.81 36.2816 1277.44 18.0726 1283.94 12.6945" stroke="#0047FF" stroke-opacity="0.5" stroke-width="2"/>
<path d="M1236.13 77.5642L1253.05 89.0889C1254.81 86.9376 1277.44 68.7286 1283.94 63.3505" stroke="#0047FF" stroke-opacity="0.5" stroke-width="2"/>
<path d="M1236.13 128.22L1253.05 139.745C1254.81 137.594 1277.44 119.385 1283.94 114.007" stroke="#0047FF" stroke-opacity="0.5" stroke-width="2"/>
<path d="M1236.13 178.876L1253.05 190.401C1254.81 188.25 1277.44 170.041 1283.94 164.663" stroke="#0047FF" stroke-opacity="0.5" stroke-width="2"/>
<path d="M1308.07 26.9082L1324.99 38.4329C1326.76 36.2816 1349.39 18.0726 1355.89 12.6945" stroke="#0047FF" stroke-opacity="0.5" stroke-width="2"/>
<path d="M1308.07 77.5642L1324.99 89.0889C1326.76 86.9376 1349.39 68.7286 1355.89 63.3505" stroke="#0047FF" stroke-opacity="0.5" stroke-width="2"/>
<path d="M1308.07 128.22L1324.99 139.745C1326.76 137.594 1349.39 119.385 1355.89 114.007" stroke="#0047FF" stroke-opacity="0.5" stroke-width="2"/>
<path d="M1308.07 178.876L1324.99 190.401C1326.76 188.25 1349.39 170.041 1355.89 164.663" stroke="#0047FF" stroke-opacity="0.5" stroke-width="2"/>
<path d="M732.483 229.532L749.403 241.057C751.168 238.906 773.801 220.697 780.299 215.319" stroke="#0047FF" stroke-opacity="0.5" stroke-width="2"/>
<path d="M732.483 280.189L749.403 291.713C751.168 289.562 773.801 271.353 780.299 265.975" stroke="#0047FF" stroke-opacity="0.5" stroke-width="2"/>
<path d="M732.483 330.845L749.403 342.369C751.168 340.218 773.801 322.009 780.299 316.631" stroke="#0047FF" stroke-opacity="0.5" stroke-width="2"/>
<path d="M732.483 381.501L749.403 393.025C751.168 390.874 773.801 372.665 780.299 367.287" stroke="#0047FF" stroke-opacity="0.5" stroke-width="2"/>
<path d="M732 432.157L748.92 443.681C750.685 441.53 773.318 423.321 779.816 417.943" stroke="#0047FF" stroke-opacity="0.5" stroke-width="2"/>
<path d="M1163.69 432.157L1180.61 443.681C1182.38 441.53 1205.01 423.321 1211.51 417.943" stroke="#0047FF" stroke-opacity="0.5" stroke-width="2"/>
<path d="M804.432 229.532L821.351 241.057C823.117 238.906 845.75 220.697 852.248 215.319" stroke="#0047FF" stroke-opacity="0.5" stroke-width="2"/>
<path d="M804.432 280.189L821.351 291.713C823.117 289.562 845.75 271.353 852.248 265.975" stroke="#0047FF" stroke-opacity="0.5" stroke-width="2"/>
<path d="M804.432 330.845L821.351 342.369C823.117 340.218 845.75 322.009 852.248 316.631" stroke="#0047FF" stroke-opacity="0.5" stroke-width="2"/>
<path d="M804.432 381.501L821.351 393.025C823.117 390.874 845.75 372.665 852.248 367.287" stroke="#0047FF" stroke-opacity="0.5" stroke-width="2"/>
<path d="M803.949 432.157L820.869 443.681C822.634 441.53 845.267 423.321 851.765 417.943" stroke="#0047FF" stroke-opacity="0.5" stroke-width="2"/>
<path d="M1235.64 432.157L1252.56 443.681C1254.33 441.53 1276.96 423.321 1283.46 417.943" stroke="#0047FF" stroke-opacity="0.5" stroke-width="2"/>
<path d="M876.381 229.532L893.301 241.057C895.066 238.906 917.699 220.697 924.197 215.319" stroke="#0047FF" stroke-opacity="0.5" stroke-width="2"/>
<path d="M876.381 280.189L893.301 291.713C895.066 289.562 917.699 271.353 924.197 265.975" stroke="#0047FF" stroke-opacity="0.5" stroke-width="2"/>
<path d="M876.381 330.845L893.301 342.369C895.066 340.218 917.699 322.009 924.197 316.631" stroke="#0047FF" stroke-opacity="0.5" stroke-width="2"/>
<path d="M876.381 381.501L893.301 393.025C895.066 390.874 917.699 372.665 924.197 367.287" stroke="#0047FF" stroke-opacity="0.5" stroke-width="2"/>
<path d="M875.898 432.157L892.818 443.681C894.583 441.53 917.216 423.321 923.714 417.943" stroke="#0047FF" stroke-opacity="0.5" stroke-width="2"/>
<path d="M1307.59 432.157L1324.51 443.681C1326.28 441.53 1348.91 423.321 1355.41 417.943" stroke="#0047FF" stroke-opacity="0.5" stroke-width="2"/>
<path d="M1164.18 229.532L1181.1 241.057C1182.86 238.906 1205.5 220.697 1211.99 215.319" stroke="#0047FF" stroke-opacity="0.5" stroke-width="2"/>
<path d="M1164.18 280.189L1181.1 291.713C1182.86 289.562 1205.5 271.353 1211.99 265.975" stroke="#0047FF" stroke-opacity="0.5" stroke-width="2"/>
<path d="M1164.18 330.845L1181.1 342.369C1182.86 340.218 1205.5 322.009 1211.99 316.631" stroke="#0047FF" stroke-opacity="0.5" stroke-width="2"/>
<path d="M1164.18 381.501L1181.1 393.025C1182.86 390.874 1205.5 372.665 1211.99 367.287" stroke="#0047FF" stroke-opacity="0.5" stroke-width="2"/>
<path d="M1236.13 229.532L1253.05 241.057C1254.81 238.906 1277.44 220.697 1283.94 215.319" stroke="#0047FF" stroke-opacity="0.5" stroke-width="2"/>
<path d="M1236.13 280.189L1253.05 291.713C1254.81 289.562 1277.44 271.353 1283.94 265.975" stroke="#0047FF" stroke-opacity="0.5" stroke-width="2"/>
<path d="M1236.13 330.845L1253.05 342.369C1254.81 340.218 1277.44 322.009 1283.94 316.631" stroke="#0047FF" stroke-opacity="0.5" stroke-width="2"/>
<path d="M1236.13 381.501L1253.05 393.025C1254.81 390.874 1277.44 372.665 1283.94 367.287" stroke="#0047FF" stroke-opacity="0.5" stroke-width="2"/>
<path d="M1308.07 229.532L1324.99 241.057C1326.76 238.906 1349.39 220.697 1355.89 215.319" stroke="#0047FF" stroke-opacity="0.5" stroke-width="2"/>
<path d="M1308.07 280.189L1324.99 291.713C1326.76 289.562 1349.39 271.353 1355.89 265.975" stroke="#0047FF" stroke-opacity="0.5" stroke-width="2"/>
<path d="M1308.07 330.845L1324.99 342.369C1326.76 340.218 1349.39 322.009 1355.89 316.631" stroke="#0047FF" stroke-opacity="0.5" stroke-width="2"/>
<path d="M1308.07 381.501L1324.99 393.025C1326.76 390.874 1349.39 372.665 1355.89 367.287" stroke="#0047FF" stroke-opacity="0.5" stroke-width="2"/>
<path d="M948.33 26.9082L965.25 38.4329C967.015 36.2816 989.648 18.0726 996.146 12.6945" stroke="#0047FF" stroke-opacity="0.5" stroke-width="2"/>
<path d="M948.33 77.5642L965.25 89.0889C967.015 86.9376 989.648 68.7286 996.146 63.3505" stroke="#0047FF" stroke-opacity="0.5" stroke-width="2"/>
<path d="M948.33 128.22L965.25 139.745C967.015 137.594 989.648 119.385 996.146 114.007" stroke="#0047FF" stroke-opacity="0.5" stroke-width="2"/>
<path d="M948.33 178.876L965.25 190.401C967.015 188.25 989.648 170.041 996.146 164.663" stroke="#0047FF" stroke-opacity="0.5" stroke-width="2"/>
<path d="M1020.28 26.9082L1037.2 38.4329C1038.96 36.2816 1061.6 18.0726 1068.1 12.6945" stroke="#0047FF" stroke-opacity="0.5" stroke-width="2"/>
<path d="M1020.28 77.5642L1037.2 89.0889C1038.96 86.9376 1061.6 68.7286 1068.1 63.3505" stroke="#0047FF" stroke-opacity="0.5" stroke-width="2"/>
<path d="M1020.28 128.22L1037.2 139.745C1038.96 137.594 1061.6 119.385 1068.1 114.007" stroke="#0047FF" stroke-opacity="0.5" stroke-width="2"/>
<path d="M1020.28 178.876L1037.2 190.401C1038.96 188.25 1061.6 170.041 1068.1 164.663" stroke="#0047FF" stroke-opacity="0.5" stroke-width="2"/>
<path d="M1092.23 26.9082L1109.15 38.4329C1110.91 36.2816 1133.55 18.0726 1140.04 12.6945" stroke="#0047FF" stroke-opacity="0.5" stroke-width="2"/>
<path d="M1092.23 77.5642L1109.15 89.0889C1110.91 86.9376 1133.55 68.7286 1140.04 63.3505" stroke="#0047FF" stroke-opacity="0.5" stroke-width="2"/>
<path d="M1092.23 128.22L1109.15 139.745C1110.91 137.594 1133.55 119.385 1140.04 114.007" stroke="#0047FF" stroke-opacity="0.5" stroke-width="2"/>
<path d="M1092.23 178.876L1109.15 190.401C1110.91 188.25 1133.55 170.041 1140.04 164.663" stroke="#0047FF" stroke-opacity="0.5" stroke-width="2"/>
<path d="M1380.02 26.9082L1396.94 38.4329C1398.71 36.2816 1421.34 18.0726 1427.84 12.6945" stroke="#0047FF" stroke-opacity="0.5" stroke-width="2"/>
<path d="M1380.02 77.5642L1396.94 89.0889C1398.71 86.9376 1421.34 68.7286 1427.84 63.3505" stroke="#0047FF" stroke-opacity="0.5" stroke-width="2"/>
<path d="M1380.02 128.22L1396.94 139.745C1398.71 137.594 1421.34 119.385 1427.84 114.007" stroke="#0047FF" stroke-opacity="0.5" stroke-width="2"/>
<path d="M1380.02 178.876L1396.94 190.401C1398.71 188.25 1421.34 170.041 1427.84 164.663" stroke="#0047FF" stroke-opacity="0.5" stroke-width="2"/>
<path d="M948.33 229.532L965.25 241.057C967.015 238.906 989.648 220.697 996.146 215.319" stroke="#0047FF" stroke-opacity="0.5" stroke-width="2"/>
<path d="M948.33 280.189L965.25 291.713C967.015 289.562 989.648 271.353 996.146 265.975" stroke="#0047FF" stroke-opacity="0.5" stroke-width="2"/>
<path d="M948.33 330.845L965.25 342.369C967.015 340.218 989.648 322.009 996.146 316.631" stroke="#0047FF" stroke-opacity="0.5" stroke-width="2"/>
<path d="M948.33 381.501L965.25 393.025C967.015 390.874 989.648 372.665 996.146 367.287" stroke="#0047FF" stroke-opacity="0.5" stroke-width="2"/>
<path d="M947.847 432.157L964.766 443.681C966.532 441.53 989.165 423.321 995.663 417.943" stroke="#0047FF" stroke-opacity="0.5" stroke-width="2"/>
<path d="M1379.54 432.157L1396.46 443.681C1398.23 441.53 1420.86 423.321 1427.36 417.943" stroke="#0047FF" stroke-opacity="0.5" stroke-width="2"/>
<path d="M1020.28 229.532L1037.2 241.057C1038.96 238.906 1061.6 220.697 1068.1 215.319" stroke="#0047FF" stroke-opacity="0.5" stroke-width="2"/>
<path d="M1020.28 280.189L1037.2 291.713C1038.96 289.562 1061.6 271.353 1068.1 265.975" stroke="#0047FF" stroke-opacity="0.5" stroke-width="2"/>
<path d="M1020.28 330.845L1037.2 342.369C1038.96 340.218 1061.6 322.009 1068.1 316.631" stroke="#0047FF" stroke-opacity="0.5" stroke-width="2"/>
<path d="M1020.28 381.501L1037.2 393.025C1038.96 390.874 1061.6 372.665 1068.1 367.287" stroke="#0047FF" stroke-opacity="0.5" stroke-width="2"/>
<path d="M1019.8 432.157L1036.72 443.681C1038.48 441.53 1061.11 423.321 1067.61 417.943" stroke="#0047FF" stroke-opacity="0.5" stroke-width="2"/>
<path d="M1092.23 229.532L1109.15 241.057C1110.91 238.906 1133.55 220.697 1140.04 215.319" stroke="#0047FF" stroke-opacity="0.5" stroke-width="2"/>
<path d="M1092.23 280.189L1109.15 291.713C1110.91 289.562 1133.55 271.353 1140.04 265.975" stroke="#0047FF" stroke-opacity="0.5" stroke-width="2"/>
<path d="M1092.23 330.845L1109.15 342.369C1110.91 340.218 1133.55 322.009 1140.04 316.631" stroke="#0047FF" stroke-opacity="0.5" stroke-width="2"/>
<path d="M1092.23 381.501L1109.15 393.025C1110.91 390.874 1133.55 372.665 1140.04 367.287" stroke="#0047FF" stroke-opacity="0.5" stroke-width="2"/>
<path d="M1091.74 432.157L1108.66 443.681C1110.43 441.53 1133.06 423.321 1139.56 417.943" stroke="#0047FF" stroke-opacity="0.5" stroke-width="2"/>
<path d="M1380.02 229.532L1396.94 241.057C1398.71 238.906 1421.34 220.697 1427.84 215.319" stroke="#0047FF" stroke-opacity="0.5" stroke-width="2"/>
<path d="M1380.02 280.189L1396.94 291.713C1398.71 289.562 1421.34 271.353 1427.84 265.975" stroke="#0047FF" stroke-opacity="0.5" stroke-width="2"/>
<path d="M1380.02 330.845L1396.94 342.369C1398.71 340.218 1421.34 322.009 1427.84 316.631" stroke="#0047FF" stroke-opacity="0.5" stroke-width="2"/>
<path d="M1380.02 381.501L1396.94 393.025C1398.71 390.874 1421.34 372.665 1427.84 367.287" stroke="#0047FF" stroke-opacity="0.5" stroke-width="2"/>
<path d="M732.483 483.908L749.403 495.433C751.168 493.282 773.801 475.073 780.299 469.694" stroke="#0047FF" stroke-opacity="0.5" stroke-width="2"/>
<path d="M732.483 534.564L749.403 546.089C751.168 543.938 773.801 525.729 780.299 520.35" stroke="#0047FF" stroke-opacity="0.5" stroke-width="2"/>
<path d="M732.483 585.22L749.403 596.745C751.168 594.594 773.801 576.385 780.299 571.007" stroke="#0047FF" stroke-opacity="0.5" stroke-width="2"/>
<path d="M732.483 635.876L749.403 647.401C751.168 645.25 773.801 627.041 780.299 621.663" stroke="#0047FF" stroke-opacity="0.5" stroke-width="2"/>
<path d="M804.432 483.908L821.352 495.433C823.117 493.282 845.75 475.073 852.248 469.694" stroke="#0047FF" stroke-opacity="0.5" stroke-width="2"/>
<path d="M804.432 534.564L821.351 546.089C823.117 543.938 845.75 525.729 852.248 520.35" stroke="#0047FF" stroke-opacity="0.5" stroke-width="2"/>
<path d="M804.432 585.22L821.351 596.745C823.117 594.594 845.75 576.385 852.248 571.007" stroke="#0047FF" stroke-opacity="0.5" stroke-width="2"/>
<path d="M804.432 635.876L821.351 647.401C823.117 645.25 845.75 627.041 852.248 621.663" stroke="#0047FF" stroke-opacity="0.5" stroke-width="2"/>
<path d="M876.381 483.908L893.301 495.433C895.066 493.282 917.699 475.073 924.197 469.694" stroke="#0047FF" stroke-opacity="0.5" stroke-width="2"/>
<path d="M876.381 534.564L893.301 546.089C895.066 543.938 917.699 525.729 924.197 520.35" stroke="#0047FF" stroke-opacity="0.5" stroke-width="2"/>
<path d="M876.381 585.22L893.301 596.745C895.066 594.594 917.699 576.385 924.197 571.007" stroke="#0047FF" stroke-opacity="0.5" stroke-width="2"/>
<path d="M876.381 635.876L893.301 647.401C895.066 645.25 917.699 627.041 924.197 621.663" stroke="#0047FF" stroke-opacity="0.5" stroke-width="2"/>
<path d="M1164.18 483.908L1181.1 495.433C1182.86 493.282 1205.49 475.073 1211.99 469.694" stroke="#0047FF" stroke-opacity="0.5" stroke-width="2"/>
<path d="M1164.18 534.564L1181.1 546.089C1182.86 543.938 1205.5 525.729 1211.99 520.35" stroke="#0047FF" stroke-opacity="0.5" stroke-width="2"/>
<path d="M1164.18 585.22L1181.1 596.745C1182.86 594.594 1205.5 576.385 1211.99 571.007" stroke="#0047FF" stroke-opacity="0.5" stroke-width="2"/>
<path d="M1164.18 635.876L1181.1 647.401C1182.86 645.25 1205.5 627.041 1211.99 621.663" stroke="#0047FF" stroke-opacity="0.5" stroke-width="2"/>
<path d="M1236.13 483.908L1253.05 495.433C1254.81 493.282 1277.44 475.073 1283.94 469.694" stroke="#0047FF" stroke-opacity="0.5" stroke-width="2"/>
<path d="M1236.13 534.564L1253.05 546.089C1254.81 543.938 1277.44 525.729 1283.94 520.35" stroke="#0047FF" stroke-opacity="0.5" stroke-width="2"/>
<path d="M1236.13 585.22L1253.05 596.745C1254.81 594.594 1277.44 576.385 1283.94 571.007" stroke="#0047FF" stroke-opacity="0.5" stroke-width="2"/>
<path d="M1236.13 635.876L1253.05 647.401C1254.81 645.25 1277.44 627.041 1283.94 621.663" stroke="#0047FF" stroke-opacity="0.5" stroke-width="2"/>
<path d="M1308.07 483.908L1324.99 495.433C1326.76 493.282 1349.39 475.073 1355.89 469.694" stroke="#0047FF" stroke-opacity="0.5" stroke-width="2"/>
<path d="M1308.07 534.564L1324.99 546.089C1326.76 543.938 1349.39 525.729 1355.89 520.35" stroke="#0047FF" stroke-opacity="0.5" stroke-width="2"/>
<path d="M1308.07 585.22L1324.99 596.745C1326.76 594.594 1349.39 576.385 1355.89 571.007" stroke="#0047FF" stroke-opacity="0.5" stroke-width="2"/>
<path d="M1308.07 635.876L1324.99 647.401C1326.76 645.25 1349.39 627.041 1355.89 621.663" stroke="#0047FF" stroke-opacity="0.5" stroke-width="2"/>
<path d="M732.483 686.532L749.403 698.057C751.168 695.906 773.801 677.697 780.299 672.319" stroke="#0047FF" stroke-opacity="0.5" stroke-width="2"/>
<path d="M732.483 737.188L749.403 748.713C751.168 746.562 773.801 728.353 780.299 722.975" stroke="#0047FF" stroke-opacity="0.5" stroke-width="2"/>
<path d="M732.483 787.845L749.403 799.369C751.168 797.218 773.801 779.009 780.299 773.631" stroke="#0047FF" stroke-opacity="0.5" stroke-width="2"/>
<path d="M732.483 838.501L749.403 850.025C751.168 847.874 773.801 829.665 780.299 824.287" stroke="#0047FF" stroke-opacity="0.5" stroke-width="2"/>
<path d="M732 889.157L748.92 900.681C750.685 898.53 773.318 880.321 779.816 874.943" stroke="#0047FF" stroke-opacity="0.5" stroke-width="2"/>
<path d="M1163.69 889.157L1180.61 900.681C1182.38 898.53 1205.01 880.321 1211.51 874.943" stroke="#0047FF" stroke-opacity="0.5" stroke-width="2"/>
<path d="M804.432 686.532L821.351 698.057C823.117 695.906 845.75 677.697 852.248 672.319" stroke="#0047FF" stroke-opacity="0.5" stroke-width="2"/>
<path d="M804.432 737.188L821.351 748.713C823.117 746.562 845.75 728.353 852.248 722.975" stroke="#0047FF" stroke-opacity="0.5" stroke-width="2"/>
<path d="M804.432 787.845L821.351 799.369C823.117 797.218 845.75 779.009 852.248 773.631" stroke="#0047FF" stroke-opacity="0.5" stroke-width="2"/>
<path d="M804.432 838.501L821.351 850.025C823.117 847.874 845.75 829.665 852.248 824.287" stroke="#0047FF" stroke-opacity="0.5" stroke-width="2"/>
<path d="M803.949 889.157L820.869 900.681C822.634 898.53 845.267 880.321 851.765 874.943" stroke="#0047FF" stroke-opacity="0.5" stroke-width="2"/>
<path d="M1235.64 889.157L1252.56 900.681C1254.33 898.53 1276.96 880.321 1283.46 874.943" stroke="#0047FF" stroke-opacity="0.5" stroke-width="2"/>
<path d="M876.381 686.532L893.301 698.057C895.066 695.906 917.699 677.697 924.197 672.319" stroke="#0047FF" stroke-opacity="0.5" stroke-width="2"/>
<path d="M876.381 737.188L893.301 748.713C895.066 746.562 917.699 728.353 924.197 722.975" stroke="#0047FF" stroke-opacity="0.5" stroke-width="2"/>
<path d="M876.381 787.845L893.301 799.369C895.066 797.218 917.699 779.009 924.197 773.631" stroke="#0047FF" stroke-opacity="0.5" stroke-width="2"/>
<path d="M876.381 838.501L893.301 850.025C895.066 847.874 917.699 829.665 924.197 824.287" stroke="#0047FF" stroke-opacity="0.5" stroke-width="2"/>
<path d="M875.898 889.157L892.818 900.681C894.583 898.53 917.216 880.321 923.714 874.943" stroke="#0047FF" stroke-opacity="0.5" stroke-width="2"/>
<path d="M1307.59 889.157L1324.51 900.681C1326.28 898.53 1348.91 880.321 1355.41 874.943" stroke="#0047FF" stroke-opacity="0.5" stroke-width="2"/>
<path d="M1164.18 686.532L1181.1 698.057C1182.86 695.906 1205.5 677.697 1211.99 672.319" stroke="#0047FF" stroke-opacity="0.5" stroke-width="2"/>
<path d="M1164.18 737.188L1181.1 748.713C1182.86 746.562 1205.5 728.353 1211.99 722.975" stroke="#0047FF" stroke-opacity="0.5" stroke-width="2"/>
<path d="M1164.18 787.845L1181.1 799.369C1182.86 797.218 1205.5 779.009 1211.99 773.631" stroke="#0047FF" stroke-opacity="0.5" stroke-width="2"/>
<path d="M1164.18 838.501L1181.1 850.025C1182.86 847.874 1205.5 829.665 1211.99 824.287" stroke="#0047FF" stroke-opacity="0.5" stroke-width="2"/>
<path d="M1236.13 686.532L1253.05 698.057C1254.81 695.906 1277.44 677.697 1283.94 672.319" stroke="#0047FF" stroke-opacity="0.5" stroke-width="2"/>
<path d="M1236.13 737.188L1253.05 748.713C1254.81 746.562 1277.44 728.353 1283.94 722.975" stroke="#0047FF" stroke-opacity="0.5" stroke-width="2"/>
<path d="M1236.13 787.845L1253.05 799.369C1254.81 797.218 1277.44 779.009 1283.94 773.631" stroke="#0047FF" stroke-opacity="0.5" stroke-width="2"/>
<path d="M1236.13 838.501L1253.05 850.025C1254.81 847.874 1277.44 829.665 1283.94 824.287" stroke="#0047FF" stroke-opacity="0.5" stroke-width="2"/>
<path d="M1308.07 686.532L1324.99 698.057C1326.76 695.906 1349.39 677.697 1355.89 672.319" stroke="#0047FF" stroke-opacity="0.5" stroke-width="2"/>
<path d="M1308.07 737.188L1324.99 748.713C1326.76 746.562 1349.39 728.353 1355.89 722.975" stroke="#0047FF" stroke-opacity="0.5" stroke-width="2"/>
<path d="M1308.07 787.845L1324.99 799.369C1326.76 797.218 1349.39 779.009 1355.89 773.631" stroke="#0047FF" stroke-opacity="0.5" stroke-width="2"/>
<path d="M1308.07 838.501L1324.99 850.025C1326.76 847.874 1349.39 829.665 1355.89 824.287" stroke="#0047FF" stroke-opacity="0.5" stroke-width="2"/>
<path d="M948.33 483.908L965.25 495.433C967.015 493.282 989.648 475.073 996.146 469.694" stroke="#0047FF" stroke-opacity="0.5" stroke-width="2"/>
<path d="M948.33 534.564L965.25 546.089C967.015 543.938 989.648 525.729 996.146 520.35" stroke="#0047FF" stroke-opacity="0.5" stroke-width="2"/>
<path d="M948.33 585.22L965.25 596.745C967.015 594.594 989.648 576.385 996.146 571.007" stroke="#0047FF" stroke-opacity="0.5" stroke-width="2"/>
<path d="M948.33 635.876L965.25 647.401C967.015 645.25 989.648 627.041 996.146 621.663" stroke="#0047FF" stroke-opacity="0.5" stroke-width="2"/>
<path d="M1020.28 483.908L1037.2 495.433C1038.96 493.282 1061.6 475.073 1068.1 469.694" stroke="#0047FF" stroke-opacity="0.5" stroke-width="2"/>
<path d="M1020.28 534.564L1037.2 546.089C1038.96 543.938 1061.6 525.729 1068.1 520.35" stroke="#0047FF" stroke-opacity="0.5" stroke-width="2"/>
<path d="M1020.28 585.22L1037.2 596.745C1038.96 594.594 1061.6 576.385 1068.1 571.007" stroke="#0047FF" stroke-opacity="0.5" stroke-width="2"/>
<path d="M1020.28 635.876L1037.2 647.401C1038.96 645.25 1061.6 627.041 1068.1 621.663" stroke="#0047FF" stroke-opacity="0.5" stroke-width="2"/>
<path d="M1092.23 483.908L1109.15 495.433C1110.91 493.282 1133.55 475.073 1140.04 469.694" stroke="#0047FF" stroke-opacity="0.5" stroke-width="2"/>
<path d="M1092.23 534.564L1109.15 546.089C1110.91 543.938 1133.55 525.729 1140.04 520.35" stroke="#0047FF" stroke-opacity="0.5" stroke-width="2"/>
<path d="M1092.23 585.22L1109.15 596.745C1110.91 594.594 1133.55 576.385 1140.04 571.007" stroke="#0047FF" stroke-opacity="0.5" stroke-width="2"/>
<path d="M1092.23 635.876L1109.15 647.401C1110.91 645.25 1133.55 627.041 1140.04 621.663" stroke="#0047FF" stroke-opacity="0.5" stroke-width="2"/>
<path d="M1380.02 483.908L1396.94 495.433C1398.71 493.282 1421.34 475.073 1427.84 469.694" stroke="#0047FF" stroke-opacity="0.5" stroke-width="2"/>
<path d="M1380.02 534.564L1396.94 546.089C1398.71 543.938 1421.34 525.729 1427.84 520.35" stroke="#0047FF" stroke-opacity="0.5" stroke-width="2"/>
<path d="M1380.02 585.22L1396.94 596.745C1398.71 594.594 1421.34 576.385 1427.84 571.007" stroke="#0047FF" stroke-opacity="0.5" stroke-width="2"/>
<path d="M1380.02 635.876L1396.94 647.401C1398.71 645.25 1421.34 627.041 1427.84 621.663" stroke="#0047FF" stroke-opacity="0.5" stroke-width="2"/>
<path d="M948.33 686.532L965.25 698.057C967.015 695.906 989.648 677.697 996.146 672.319" stroke="#0047FF" stroke-opacity="0.5" stroke-width="2"/>
<path d="M948.33 737.188L965.25 748.713C967.015 746.562 989.648 728.353 996.146 722.975" stroke="#0047FF" stroke-opacity="0.5" stroke-width="2"/>
<path d="M948.33 787.845L965.25 799.369C967.015 797.218 989.648 779.009 996.146 773.631" stroke="#0047FF" stroke-opacity="0.5" stroke-width="2"/>
<path d="M948.33 838.501L965.25 850.025C967.015 847.874 989.648 829.665 996.146 824.287" stroke="#0047FF" stroke-opacity="0.5" stroke-width="2"/>
<path d="M947.847 889.157L964.766 900.681C966.532 898.53 989.165 880.321 995.663 874.943" stroke="#0047FF" stroke-opacity="0.5" stroke-width="2"/>
<path d="M1379.54 889.157L1396.46 900.681C1398.23 898.53 1420.86 880.321 1427.36 874.943" stroke="#0047FF" stroke-opacity="0.5" stroke-width="2"/>
<path d="M1020.28 686.532L1037.2 698.057C1038.96 695.906 1061.6 677.697 1068.1 672.319" stroke="#0047FF" stroke-opacity="0.5" stroke-width="2"/>
<path d="M1020.28 737.188L1037.2 748.713C1038.96 746.562 1061.6 728.353 1068.1 722.975" stroke="#0047FF" stroke-opacity="0.5" stroke-width="2"/>
<path d="M1020.28 787.845L1037.2 799.369C1038.96 797.218 1061.6 779.009 1068.1 773.631" stroke="#0047FF" stroke-opacity="0.5" stroke-width="2"/>
<path d="M1020.28 838.501L1037.2 850.025C1038.96 847.874 1061.6 829.665 1068.1 824.287" stroke="#0047FF" stroke-opacity="0.5" stroke-width="2"/>
<path d="M1019.8 889.157L1036.72 900.681C1038.48 898.53 1061.11 880.321 1067.61 874.943" stroke="#0047FF" stroke-opacity="0.5" stroke-width="2"/>
<path d="M1092.23 686.532L1109.15 698.057C1110.91 695.906 1133.55 677.697 1140.04 672.319" stroke="#0047FF" stroke-opacity="0.5" stroke-width="2"/>
<path d="M1092.23 737.188L1109.15 748.713C1110.91 746.562 1133.55 728.353 1140.04 722.975" stroke="#0047FF" stroke-opacity="0.5" stroke-width="2"/>
<path d="M1092.23 787.845L1109.15 799.369C1110.91 797.218 1133.55 779.009 1140.04 773.631" stroke="#0047FF" stroke-opacity="0.5" stroke-width="2"/>
<path d="M1092.23 838.501L1109.15 850.025C1110.91 847.874 1133.55 829.665 1140.04 824.287" stroke="#0047FF" stroke-opacity="0.5" stroke-width="2"/>
<path d="M1091.74 889.157L1108.66 900.681C1110.43 898.53 1133.06 880.321 1139.56 874.943" stroke="#0047FF" stroke-opacity="0.5" stroke-width="2"/>
<path d="M1380.02 686.532L1396.94 698.057C1398.71 695.906 1421.34 677.697 1427.84 672.319" stroke="#0047FF" stroke-opacity="0.5" stroke-width="2"/>
<path d="M1380.02 737.188L1396.94 748.713C1398.71 746.562 1421.34 728.353 1427.84 722.975" stroke="#0047FF" stroke-opacity="0.5" stroke-width="2"/>
<path d="M1380.02 787.845L1396.94 799.369C1398.71 797.218 1421.34 779.009 1427.84 773.631" stroke="#0047FF" stroke-opacity="0.5" stroke-width="2"/>
<path d="M1380.02 838.501L1396.94 850.025C1398.71 847.874 1421.34 829.665 1427.84 824.287" stroke="#0047FF" stroke-opacity="0.5" stroke-width="2"/>
<path d="M12.483 483.908L29.4026 495.433C31.1681 493.282 53.8011 475.073 60.2992 469.694" stroke="#0047FF" stroke-opacity="0.5" stroke-width="2"/>
<path d="M12.483 534.564L29.4026 546.089C31.1681 543.938 53.8011 525.729 60.2992 520.35" stroke="#0047FF" stroke-opacity="0.5" stroke-width="2"/>
<path d="M12.483 585.22L29.4026 596.745C31.1681 594.594 53.8011 576.385 60.2992 571.007" stroke="#0047FF" stroke-opacity="0.5" stroke-width="2"/>
<path d="M12.483 635.876L29.4026 647.401C31.1681 645.25 53.8011 627.041 60.2992 621.663" stroke="#0047FF" stroke-opacity="0.5" stroke-width="2"/>
<path d="M84.4319 483.908L101.352 495.433C103.117 493.282 125.75 475.073 132.248 469.694" stroke="#0047FF" stroke-opacity="0.5" stroke-width="2"/>
<path d="M84.4319 534.564L101.351 546.089C103.117 543.938 125.75 525.729 132.248 520.35" stroke="#0047FF" stroke-opacity="0.5" stroke-width="2"/>
<path d="M84.4319 585.22L101.351 596.745C103.117 594.594 125.75 576.385 132.248 571.007" stroke="#0047FF" stroke-opacity="0.5" stroke-width="2"/>
<path d="M84.4319 635.876L101.351 647.401C103.117 645.25 125.75 627.041 132.248 621.663" stroke="#0047FF" stroke-opacity="0.5" stroke-width="2"/>
<path d="M156.381 483.908L173.301 495.433C175.066 493.282 197.699 475.073 204.197 469.694" stroke="#0047FF" stroke-opacity="0.5" stroke-width="2"/>
<path d="M156.381 534.564L173.301 546.089C175.066 543.938 197.699 525.729 204.197 520.35" stroke="#0047FF" stroke-opacity="0.5" stroke-width="2"/>
<path d="M156.381 585.22L173.301 596.745C175.066 594.594 197.699 576.385 204.197 571.007" stroke="#0047FF" stroke-opacity="0.5" stroke-width="2"/>
<path d="M156.381 635.876L173.301 647.401C175.066 645.25 197.699 627.041 204.197 621.663" stroke="#0047FF" stroke-opacity="0.5" stroke-width="2"/>
<path d="M444.177 483.908L461.097 495.433C462.862 493.282 485.495 475.073 491.993 469.694" stroke="#0047FF" stroke-opacity="0.5" stroke-width="2"/>
<path d="M444.177 534.564L461.097 546.089C462.862 543.938 485.495 525.729 491.993 520.35" stroke="#0047FF" stroke-opacity="0.5" stroke-width="2"/>
<path d="M444.177 585.22L461.097 596.745C462.862 594.594 485.495 576.385 491.993 571.007" stroke="#0047FF" stroke-opacity="0.5" stroke-width="2"/>
<path d="M444.177 635.876L461.097 647.401C462.862 645.25 485.495 627.041 491.993 621.663" stroke="#0047FF" stroke-opacity="0.5" stroke-width="2"/>
<path d="M516.126 483.908L533.046 495.433C534.811 493.282 557.444 475.073 563.942 469.694" stroke="#0047FF" stroke-opacity="0.5" stroke-width="2"/>
<path d="M516.126 534.564L533.046 546.089C534.811 543.938 557.444 525.729 563.942 520.35" stroke="#0047FF" stroke-opacity="0.5" stroke-width="2"/>
<path d="M516.126 585.22L533.046 596.745C534.811 594.594 557.444 576.385 563.942 571.007" stroke="#0047FF" stroke-opacity="0.5" stroke-width="2"/>
<path d="M516.126 635.876L533.046 647.401C534.811 645.25 557.444 627.041 563.942 621.663" stroke="#0047FF" stroke-opacity="0.5" stroke-width="2"/>
<path d="M588.075 483.908L604.994 495.433C606.76 493.282 629.393 475.073 635.891 469.694" stroke="#0047FF" stroke-opacity="0.5" stroke-width="2"/>
<path d="M588.075 534.564L604.994 546.089C606.76 543.938 629.393 525.729 635.891 520.35" stroke="#0047FF" stroke-opacity="0.5" stroke-width="2"/>
<path d="M588.075 585.22L604.994 596.745C606.76 594.594 629.393 576.385 635.891 571.007" stroke="#0047FF" stroke-opacity="0.5" stroke-width="2"/>
<path d="M588.075 635.876L604.994 647.401C606.76 645.25 629.393 627.041 635.891 621.663" stroke="#0047FF" stroke-opacity="0.5" stroke-width="2"/>
<path d="M12.483 686.532L29.4026 698.057C31.1681 695.906 53.8011 677.697 60.2992 672.319" stroke="#0047FF" stroke-opacity="0.5" stroke-width="2"/>
<path d="M12.483 737.188L29.4026 748.713C31.1681 746.562 53.8011 728.353 60.2992 722.975" stroke="#0047FF" stroke-opacity="0.5" stroke-width="2"/>
<path d="M12.483 787.845L29.4026 799.369C31.1681 797.218 53.8011 779.009 60.2992 773.631" stroke="#0047FF" stroke-opacity="0.5" stroke-width="2"/>
<path d="M12.483 838.501L29.4026 850.025C31.1681 847.874 53.8011 829.665 60.2992 824.287" stroke="#0047FF" stroke-opacity="0.5" stroke-width="2"/>
<path d="M12 889.157L28.9196 900.681C30.6851 898.53 53.3181 880.321 59.8161 874.943" stroke="#0047FF" stroke-opacity="0.5" stroke-width="2"/>
<path d="M443.694 889.157L460.613 900.681C462.379 898.53 485.012 880.321 491.51 874.943" stroke="#0047FF" stroke-opacity="0.5" stroke-width="2"/>
<path d="M84.4319 686.532L101.351 698.057C103.117 695.906 125.75 677.697 132.248 672.319" stroke="#0047FF" stroke-opacity="0.5" stroke-width="2"/>
<path d="M84.4319 737.188L101.351 748.713C103.117 746.562 125.75 728.353 132.248 722.975" stroke="#0047FF" stroke-opacity="0.5" stroke-width="2"/>
<path d="M84.4319 787.845L101.351 799.369C103.117 797.218 125.75 779.009 132.248 773.631" stroke="#0047FF" stroke-opacity="0.5" stroke-width="2"/>
<path d="M84.4319 838.501L101.351 850.025C103.117 847.874 125.75 829.665 132.248 824.287" stroke="#0047FF" stroke-opacity="0.5" stroke-width="2"/>
<path d="M83.9491 889.157L100.869 900.681C102.634 898.53 125.267 880.321 131.765 874.943" stroke="#0047FF" stroke-opacity="0.5" stroke-width="2"/>
<path d="M515.643 889.157L532.562 900.681C534.328 898.53 556.961 880.321 563.459 874.943" stroke="#0047FF" stroke-opacity="0.5" stroke-width="2"/>
<path d="M156.381 686.532L173.301 698.057C175.066 695.906 197.699 677.697 204.197 672.319" stroke="#0047FF" stroke-opacity="0.5" stroke-width="2"/>
<path d="M156.381 737.188L173.301 748.713C175.066 746.562 197.699 728.353 204.197 722.975" stroke="#0047FF" stroke-opacity="0.5" stroke-width="2"/>
<path d="M156.381 787.845L173.301 799.369C175.066 797.218 197.699 779.009 204.197 773.631" stroke="#0047FF" stroke-opacity="0.5" stroke-width="2"/>
<path d="M156.381 838.501L173.301 850.025C175.066 847.874 197.699 829.665 204.197 824.287" stroke="#0047FF" stroke-opacity="0.5" stroke-width="2"/>
<path d="M155.898 889.157L172.818 900.681C174.583 898.53 197.216 880.321 203.714 874.943" stroke="#0047FF" stroke-opacity="0.5" stroke-width="2"/>
<path d="M587.592 889.157L604.511 900.681C606.277 898.53 628.91 880.321 635.408 874.943" stroke="#0047FF" stroke-opacity="0.5" stroke-width="2"/>
<path d="M444.177 686.532L461.097 698.057C462.862 695.906 485.495 677.697 491.993 672.319" stroke="#0047FF" stroke-opacity="0.5" stroke-width="2"/>
<path d="M444.177 737.188L461.097 748.713C462.862 746.562 485.495 728.353 491.993 722.975" stroke="#0047FF" stroke-opacity="0.5" stroke-width="2"/>
<path d="M444.177 787.845L461.097 799.369C462.862 797.218 485.495 779.009 491.993 773.631" stroke="#0047FF" stroke-opacity="0.5" stroke-width="2"/>
<path d="M444.177 838.501L461.097 850.025C462.862 847.874 485.495 829.665 491.993 824.287" stroke="#0047FF" stroke-opacity="0.5" stroke-width="2"/>
<path d="M516.126 686.532L533.046 698.057C534.811 695.906 557.444 677.697 563.942 672.319" stroke="#0047FF" stroke-opacity="0.5" stroke-width="2"/>
<path d="M516.126 737.188L533.046 748.713C534.811 746.562 557.444 728.353 563.942 722.975" stroke="#0047FF" stroke-opacity="0.5" stroke-width="2"/>
<path d="M516.126 787.845L533.046 799.369C534.811 797.218 557.444 779.009 563.942 773.631" stroke="#0047FF" stroke-opacity="0.5" stroke-width="2"/>
<path d="M516.126 838.501L533.046 850.025C534.811 847.874 557.444 829.665 563.942 824.287" stroke="#0047FF" stroke-opacity="0.5" stroke-width="2"/>
<path d="M588.075 686.532L604.994 698.057C606.76 695.906 629.393 677.697 635.891 672.319" stroke="#0047FF" stroke-opacity="0.5" stroke-width="2"/>
<path d="M588.075 737.188L604.994 748.713C606.76 746.562 629.393 728.353 635.891 722.975" stroke="#0047FF" stroke-opacity="0.5" stroke-width="2"/>
<path d="M588.075 787.845L604.994 799.369C606.76 797.218 629.393 779.009 635.891 773.631" stroke="#0047FF" stroke-opacity="0.5" stroke-width="2"/>
<path d="M588.075 838.501L604.994 850.025C606.76 847.874 629.393 829.665 635.891 824.287" stroke="#0047FF" stroke-opacity="0.5" stroke-width="2"/>
<path d="M228.33 483.908L245.25 495.433C247.015 493.282 269.648 475.073 276.146 469.694" stroke="#0047FF" stroke-opacity="0.5" stroke-width="2"/>
<path d="M228.33 534.564L245.25 546.089C247.015 543.938 269.648 525.729 276.146 520.35" stroke="#0047FF" stroke-opacity="0.5" stroke-width="2"/>
<path d="M228.33 585.22L245.25 596.745C247.015 594.594 269.648 576.385 276.146 571.007" stroke="#0047FF" stroke-opacity="0.5" stroke-width="2"/>
<path d="M228.33 635.876L245.25 647.401C247.015 645.25 269.648 627.041 276.146 621.663" stroke="#0047FF" stroke-opacity="0.5" stroke-width="2"/>
<path d="M300.279 483.908L317.199 495.433C318.964 493.282 341.597 475.073 348.095 469.694" stroke="#0047FF" stroke-opacity="0.5" stroke-width="2"/>
<path d="M300.279 534.564L317.198 546.089C318.964 543.938 341.597 525.729 348.095 520.35" stroke="#0047FF" stroke-opacity="0.5" stroke-width="2"/>
<path d="M300.279 585.22L317.198 596.745C318.964 594.594 341.597 576.385 348.095 571.007" stroke="#0047FF" stroke-opacity="0.5" stroke-width="2"/>
<path d="M300.279 635.876L317.198 647.401C318.964 645.25 341.597 627.041 348.095 621.663" stroke="#0047FF" stroke-opacity="0.5" stroke-width="2"/>
<path d="M372.228 483.908L389.147 495.433C390.913 493.282 413.546 475.073 420.044 469.694" stroke="#0047FF" stroke-opacity="0.5" stroke-width="2"/>
<path d="M372.228 534.564L389.147 546.089C390.913 543.938 413.546 525.729 420.044 520.35" stroke="#0047FF" stroke-opacity="0.5" stroke-width="2"/>
<path d="M372.228 585.22L389.147 596.745C390.913 594.594 413.546 576.385 420.044 571.007" stroke="#0047FF" stroke-opacity="0.5" stroke-width="2"/>
<path d="M372.228 635.876L389.147 647.401C390.913 645.25 413.546 627.041 420.044 621.663" stroke="#0047FF" stroke-opacity="0.5" stroke-width="2"/>
<path d="M660.024 483.908L676.943 495.433C678.709 493.282 701.342 475.073 707.84 469.694" stroke="#0047FF" stroke-opacity="0.5" stroke-width="2"/>
<path d="M660.024 534.564L676.943 546.089C678.709 543.938 701.342 525.729 707.84 520.35" stroke="#0047FF" stroke-opacity="0.5" stroke-width="2"/>
<path d="M660.024 585.22L676.943 596.745C678.709 594.594 701.342 576.385 707.84 571.007" stroke="#0047FF" stroke-opacity="0.5" stroke-width="2"/>
<path d="M660.024 635.876L676.943 647.401C678.709 645.25 701.342 627.041 707.84 621.663" stroke="#0047FF" stroke-opacity="0.5" stroke-width="2"/>
<path d="M228.33 686.532L245.25 698.057C247.015 695.906 269.648 677.697 276.146 672.319" stroke="#0047FF" stroke-opacity="0.5" stroke-width="2"/>
<path d="M228.33 737.188L245.25 748.713C247.015 746.562 269.648 728.353 276.146 722.975" stroke="#0047FF" stroke-opacity="0.5" stroke-width="2"/>
<path d="M228.33 787.845L245.25 799.369C247.015 797.218 269.648 779.009 276.146 773.631" stroke="#0047FF" stroke-opacity="0.5" stroke-width="2"/>
<path d="M228.33 838.501L245.25 850.025C247.015 847.874 269.648 829.665 276.146 824.287" stroke="#0047FF" stroke-opacity="0.5" stroke-width="2"/>
<path d="M227.847 889.157L244.766 900.681C246.532 898.53 269.165 880.321 275.663 874.943" stroke="#0047FF" stroke-opacity="0.5" stroke-width="2"/>
<path d="M659.541 889.157L676.46 900.681C678.226 898.53 700.859 880.321 707.357 874.943" stroke="#0047FF" stroke-opacity="0.5" stroke-width="2"/>
<path d="M300.279 686.532L317.198 698.057C318.964 695.906 341.597 677.697 348.095 672.319" stroke="#0047FF" stroke-opacity="0.5" stroke-width="2"/>
<path d="M300.279 737.188L317.198 748.713C318.964 746.562 341.597 728.353 348.095 722.975" stroke="#0047FF" stroke-opacity="0.5" stroke-width="2"/>
<path d="M300.279 787.845L317.198 799.369C318.964 797.218 341.597 779.009 348.095 773.631" stroke="#0047FF" stroke-opacity="0.5" stroke-width="2"/>
<path d="M300.279 838.501L317.198 850.025C318.964 847.874 341.597 829.665 348.095 824.287" stroke="#0047FF" stroke-opacity="0.5" stroke-width="2"/>
<path d="M299.796 889.157L316.715 900.681C318.481 898.53 341.114 880.321 347.612 874.943" stroke="#0047FF" stroke-opacity="0.5" stroke-width="2"/>
<path d="M372.228 686.532L389.147 698.057C390.913 695.906 413.546 677.697 420.044 672.319" stroke="#0047FF" stroke-opacity="0.5" stroke-width="2"/>
<path d="M372.228 737.188L389.147 748.713C390.913 746.562 413.546 728.353 420.044 722.975" stroke="#0047FF" stroke-opacity="0.5" stroke-width="2"/>
<path d="M372.228 787.845L389.147 799.369C390.913 797.218 413.546 779.009 420.044 773.631" stroke="#0047FF" stroke-opacity="0.5" stroke-width="2"/>
<path d="M372.228 838.501L389.147 850.025C390.913 847.874 413.546 829.665 420.044 824.287" stroke="#0047FF" stroke-opacity="0.5" stroke-width="2"/>
<path d="M371.745 889.157L388.665 900.681C390.43 898.53 413.063 880.321 419.561 874.943" stroke="#0047FF" stroke-opacity="0.5" stroke-width="2"/>
<path d="M660.024 686.532L676.943 698.057C678.709 695.906 701.342 677.697 707.84 672.319" stroke="#0047FF" stroke-opacity="0.5" stroke-width="2"/>
<path d="M660.024 737.188L676.943 748.713C678.709 746.562 701.342 728.353 707.84 722.975" stroke="#0047FF" stroke-opacity="0.5" stroke-width="2"/>
<path d="M660.024 787.845L676.943 799.369C678.709 797.218 701.342 779.009 707.84 773.631" stroke="#0047FF" stroke-opacity="0.5" stroke-width="2"/>
<path d="M660.024 838.501L676.943 850.025C678.709 847.874 701.342 829.665 707.84 824.287" stroke="#0047FF" stroke-opacity="0.5" stroke-width="2"/>
</mask>
<g mask="url(#mask0)">
<rect y="-1" width="1440" height="915" fill="#0085FF" fill-opacity="0.5"/>
</g>
<mask id="mask1" mask-type="alpha" maskUnits="userSpaceOnUse" x="820" y="158" width="507" height="598">
<path d="M834.47 340.436C795.789 476.294 873.388 519.3 917.023 523.82C1027.41 531.368 1092.35 427.509 1111.02 374.636C1146.87 239.25 1066.21 199.114 1021.39 195.969C984.98 193.818 944.61 210.563 918.202 227.811M834.47 340.436C846.846 307.518 869.344 259.722 918.202 227.811M834.47 340.436C816.856 397.092 818.133 439.545 829.024 470.751M918.202 227.811C929.012 210.907 957.709 176.275 986.013 172.973M918.202 227.811C931.694 216.085 946.496 206.348 962.518 199.507M986.013 172.973C992.303 170.024 1012.31 163.302 1042.03 160L1193.57 167.666M986.013 172.973L962.518 199.507M1193.57 167.666C1282.11 172.973 1335.18 283.423 1324.68 436.551C1324.68 436.551 1329.15 536.244 1251.95 666.518C1242.52 682.439 1194.75 756.736 1119.28 754.967M1193.57 167.666C1159.14 167.666 1141.88 179.066 1137.56 184.766M1119.28 754.967C1093.42 749.256 1022.93 720.767 1000.75 600.476M1119.28 754.967L967.144 721.357C938.551 707.795 876.468 658.381 856.877 569.224M1000.75 600.476L1027.88 609.321M1000.75 600.476V536.244M1027.88 609.321C1035.15 610.894 1050.88 611.326 1055.59 600.476L1083.31 523.82C1186.07 422.871 1181.95 308.791 1167.04 264.37L1174.41 239.604M1027.88 609.321L1055.59 503.058M1027.88 609.321C1027.88 629.37 1039.92 668.677 1055.59 691.339M1161.14 195.969L1193.57 190.662C1297.83 209.06 1313.69 350.88 1307.2 436.551C1309.55 520.99 1255.88 625.046 1230.72 666.518C1187.39 725.484 1138.37 737.081 1119.28 735.509C1094.81 736.497 1072.84 716.274 1055.59 691.339M1161.14 195.969L1137.56 184.766M1161.14 195.969L1136.17 264.37M1161.14 195.969L1181.78 214.838L1174.41 239.604M1137.56 184.766C1132.05 185.552 1118.1 193.257 1106.31 217.787M1136.17 264.37C1149.49 302.49 1145.51 345.882 1137.56 374.636C1116.46 435.602 1086.9 476.415 1055.59 503.058M1136.17 264.37C1130.15 247.156 1120.61 231.017 1106.31 217.787M1055.59 503.058C1037.47 518.481 1018.76 529.156 1000.75 536.244M829.024 470.751C829.024 475.272 829.024 493.394 829.024 529.717C829.024 566.04 847.593 571.19 856.877 569.224M829.024 470.751C835.362 488.912 844.956 503.263 855.978 514.386M856.877 569.224L855.978 514.386M855.978 514.386C875.218 533.802 898.807 543.384 917.023 546.228C937.231 550.175 967.8 549.22 1000.75 536.244M962.518 199.507C986.404 189.309 995.539 184.766 1021.39 184.766C1065.12 184.766 1087.33 200.232 1106.31 217.787M1055.59 691.339C1085.7 690.338 1157.7 637.979 1204.87 436.551C1210.77 381.712 1217.97 346.687 1174.41 239.604M1021.39 203.635C1063.46 207.762 1138.62 247.741 1102.77 374.636C1086.06 423.971 1025.52 520.99 917.023 514.386C873.584 506.72 798.029 461.199 843.315 340.436C857.664 294.836 913.367 203.635 1021.39 203.635Z" stroke="black" stroke-width="2"/>
</mask>
<g mask="url(#mask1)">
<rect x="810.007" y="151.006" width="523.672" height="609.618" fill="#00A3FF" fill-opacity="0.5"/>
</g>
<mask id="mask2" mask-type="alpha" maskUnits="userSpaceOnUse" x="815" y="158" width="507" height="598">
<path d="M829.47 340.436C790.789 476.294 868.388 519.3 912.023 523.82C1022.41 531.368 1087.35 427.509 1106.02 374.636C1141.87 239.25 1061.21 199.114 1016.39 195.969C979.98 193.818 939.61 210.563 913.202 227.811M829.47 340.436C841.846 307.518 864.344 259.722 913.202 227.811M829.47 340.436C811.856 397.092 813.133 439.545 824.024 470.751M913.202 227.811C924.012 210.907 952.709 176.275 981.013 172.973M913.202 227.811C926.694 216.085 941.496 206.348 957.518 199.507M981.013 172.973C987.303 170.024 1007.31 163.302 1037.03 160L1188.57 167.666M981.013 172.973L957.518 199.507M1188.57 167.666C1277.11 172.973 1330.18 283.423 1319.68 436.551C1319.68 436.551 1324.15 536.244 1246.95 666.518C1237.52 682.439 1189.75 756.736 1114.28 754.967M1188.57 167.666C1154.14 167.666 1136.88 179.066 1132.56 184.766M1114.28 754.967C1088.42 749.256 1017.93 720.767 995.754 600.476M1114.28 754.967L962.144 721.357C933.551 707.795 871.468 658.381 851.877 569.224M995.754 600.476L1022.88 609.321M995.754 600.476V536.244M1022.88 609.321C1030.15 610.894 1045.88 611.326 1050.59 600.476L1078.31 523.82C1181.07 422.871 1176.95 308.791 1162.04 264.37L1169.41 239.604M1022.88 609.321L1050.59 503.058M1022.88 609.321C1022.88 629.37 1034.92 668.677 1050.59 691.339M1156.14 195.969L1188.57 190.662C1292.83 209.06 1308.69 350.88 1302.2 436.551C1304.55 520.99 1250.88 625.046 1225.72 666.518C1182.39 725.484 1133.37 737.081 1114.28 735.509C1089.81 736.497 1067.84 716.274 1050.59 691.339M1156.14 195.969L1132.56 184.766M1156.14 195.969L1131.17 264.37M1156.14 195.969L1176.78 214.838L1169.41 239.604M1132.56 184.766C1127.05 185.552 1113.1 193.257 1101.31 217.787M1131.17 264.37C1144.49 302.49 1140.51 345.882 1132.56 374.636C1111.46 435.602 1081.9 476.415 1050.59 503.058M1131.17 264.37C1125.15 247.156 1115.61 231.017 1101.31 217.787M1050.59 503.058C1032.47 518.481 1013.76 529.156 995.754 536.244M824.024 470.751C824.024 475.272 824.024 493.394 824.024 529.717C824.024 566.04 842.593 571.19 851.877 569.224M824.024 470.751C830.362 488.912 839.956 503.263 850.978 514.386M851.877 569.224L850.978 514.386M850.978 514.386C870.218 533.802 893.807 543.384 912.023 546.228C932.231 550.175 962.8 549.22 995.754 536.244M957.518 199.507C981.404 189.309 990.539 184.766 1016.39 184.766C1060.12 184.766 1082.33 200.232 1101.31 217.787M1050.59 691.339C1080.7 690.338 1152.7 637.979 1199.87 436.551C1205.77 381.712 1212.97 346.687 1169.41 239.604M1016.39 203.635C1058.46 207.762 1133.62 247.741 1097.77 374.636C1081.06 423.971 1020.52 520.99 912.023 514.386C868.584 506.72 793.029 461.199 838.315 340.436C852.664 294.836 908.367 203.635 1016.39 203.635Z" stroke="black" stroke-width="2"/>
</mask>
<g mask="url(#mask2)">
<rect x="805.007" y="151.006" width="523.672" height="609.618" fill="#0047FF" fill-opacity="0.5"/>
</g>
<mask id="mask3" mask-type="alpha" maskUnits="userSpaceOnUse" x="810" y="158" width="507" height="598">
<path d="M824.47 340.436C785.789 476.294 863.388 519.3 907.023 523.82C1017.41 531.368 1082.35 427.509 1101.02 374.636C1136.87 239.25 1056.21 199.114 1011.39 195.969C974.98 193.818 934.61 210.563 908.202 227.811M824.47 340.436C836.846 307.518 859.344 259.722 908.202 227.811M824.47 340.436C806.856 397.092 808.133 439.545 819.024 470.751M908.202 227.811C919.012 210.907 947.709 176.275 976.013 172.973M908.202 227.811C921.694 216.085 936.496 206.348 952.518 199.507M976.013 172.973C982.303 170.024 1002.31 163.302 1032.03 160L1183.57 167.666M976.013 172.973L952.518 199.507M1183.57 167.666C1272.11 172.973 1325.18 283.423 1314.68 436.551C1314.68 436.551 1319.15 536.244 1241.95 666.518C1232.52 682.439 1184.75 756.736 1109.28 754.967M1183.57 167.666C1149.14 167.666 1131.88 179.066 1127.56 184.766M1109.28 754.967C1083.42 749.256 1012.93 720.767 990.754 600.476M1109.28 754.967L957.144 721.357C928.551 707.795 866.468 658.381 846.877 569.224M990.754 600.476L1017.88 609.321M990.754 600.476V536.244M1017.88 609.321C1025.15 610.894 1040.88 611.326 1045.59 600.476L1073.31 523.82C1176.07 422.871 1171.95 308.791 1157.04 264.37L1164.41 239.604M1017.88 609.321L1045.59 503.058M1017.88 609.321C1017.88 629.37 1029.92 668.677 1045.59 691.339M1151.14 195.969L1183.57 190.662C1287.83 209.06 1303 344.5 1299.5 436.551C1299.5 513.5 1245.88 625.046 1220.72 666.518C1177.39 725.484 1128.37 737.081 1109.28 735.509C1084.81 736.497 1062.84 716.274 1045.59 691.339M1151.14 195.969L1127.56 184.766M1151.14 195.969L1126.17 264.37M1151.14 195.969L1171.78 214.838L1164.41 239.604M1127.56 184.766C1122.05 185.552 1108.1 193.257 1096.31 217.787M1126.17 264.37C1139.49 302.49 1135.51 345.882 1127.56 374.636C1106.46 435.602 1076.9 476.415 1045.59 503.058M1126.17 264.37C1120.15 247.156 1110.61 231.017 1096.31 217.787M1045.59 503.058C1027.47 518.481 1008.76 529.156 990.754 536.244M819.024 470.751C819.024 475.272 819.024 493.394 819.024 529.717C819.024 566.04 837.593 571.19 846.877 569.224M819.024 470.751C825.362 488.912 834.956 503.263 845.978 514.386M846.877 569.224L845.978 514.386M845.978 514.386C865.218 533.802 888.807 543.384 907.023 546.228C927.231 550.175 957.8 549.22 990.754 536.244M952.518 199.507C976.404 189.309 985.539 184.766 1011.39 184.766C1055.12 184.766 1077.33 200.232 1096.31 217.787M1045.59 691.339C1075.7 690.338 1147.7 637.979 1194.87 436.551C1200.77 381.712 1207.97 346.687 1164.41 239.604M1011.39 203.635C1053.46 207.762 1128.62 247.741 1092.77 374.636C1076.06 423.971 1015.52 520.99 907.023 514.386C863.584 506.72 788.029 461.199 833.315 340.436C847.664 294.836 903.367 203.635 1011.39 203.635Z" stroke="black" stroke-width="2"/>
</mask>
<g mask="url(#mask3)">
<rect x="800.007" y="151.006" width="523.672" height="609.618" fill="black"/>
</g>
<path d="M172.4 388.6L155.408 439H149.792L135.032 396.016L120.2 439H114.656L97.664 388.6H103.136L117.68 431.944L132.728 388.6H137.696L152.528 432.16L167.288 388.6H172.4ZM191.454 400.84C196.398 400.84 200.19 402.088 202.83 404.584C205.47 407.032 206.79 410.68 206.79 415.528V439H201.894V433.096C200.742 435.064 199.038 436.6 196.782 437.704C194.574 438.808 191.934 439.36 188.862 439.36C184.638 439.36 181.278 438.352 178.782 436.336C176.286 434.32 175.038 431.656 175.038 428.344C175.038 425.128 176.19 422.536 178.494 420.568C180.846 418.6 184.566 417.616 189.654 417.616H201.678V415.312C201.678 412.048 200.766 409.576 198.942 407.896C197.118 406.168 194.454 405.304 190.95 405.304C188.55 405.304 186.246 405.712 184.038 406.528C181.83 407.296 179.934 408.376 178.35 409.768L176.046 405.952C177.966 404.32 180.27 403.072 182.958 402.208C185.646 401.296 188.478 400.84 191.454 400.84ZM189.654 435.328C192.534 435.328 195.006 434.68 197.07 433.384C199.134 432.04 200.67 430.12 201.678 427.624V421.432H189.798C183.318 421.432 180.078 423.688 180.078 428.2C180.078 430.408 180.918 432.16 182.598 433.456C184.278 434.704 186.63 435.328 189.654 435.328ZM240.619 436.696C239.659 437.56 238.459 438.232 237.019 438.712C235.627 439.144 234.163 439.36 232.627 439.36C229.075 439.36 226.339 438.4 224.419 436.48C222.499 434.56 221.539 431.848 221.539 428.344V405.448H214.771V401.128H221.539V392.848H226.651V401.128H238.171V405.448H226.651V428.056C226.651 430.312 227.203 432.04 228.307 433.24C229.459 434.392 231.091 434.968 233.203 434.968C234.259 434.968 235.267 434.8 236.227 434.464C237.235 434.128 238.099 433.648 238.819 433.024L240.619 436.696ZM264.285 439.36C260.541 439.36 257.181 438.544 254.205 436.912C251.277 435.28 248.973 433 247.293 430.072C245.613 427.096 244.773 423.76 244.773 420.064C244.773 416.368 245.613 413.056 247.293 410.128C248.973 407.2 251.277 404.92 254.205 403.288C257.181 401.656 260.541 400.84 264.285 400.84C267.549 400.84 270.453 401.488 272.997 402.784C275.589 404.032 277.629 405.88 279.117 408.328L275.301 410.92C274.053 409.048 272.469 407.656 270.549 406.744C268.629 405.784 266.541 405.304 264.285 405.304C261.549 405.304 259.077 405.928 256.869 407.176C254.709 408.376 253.005 410.104 251.757 412.36C250.557 414.616 249.957 417.184 249.957 420.064C249.957 422.992 250.557 425.584 251.757 427.84C253.005 430.048 254.709 431.776 256.869 433.024C259.077 434.224 261.549 434.824 264.285 434.824C266.541 434.824 268.629 434.368 270.549 433.456C272.469 432.544 274.053 431.152 275.301 429.28L279.117 431.872C277.629 434.32 275.589 436.192 272.997 437.488C270.405 438.736 267.501 439.36 264.285 439.36ZM307.893 400.84C312.645 400.84 316.413 402.232 319.197 405.016C322.029 407.752 323.445 411.76 323.445 417.04V439H318.333V417.544C318.333 413.608 317.349 410.608 315.381 408.544C313.413 406.48 310.605 405.448 306.957 405.448C302.877 405.448 299.637 406.672 297.237 409.12C294.885 411.52 293.709 414.856 293.709 419.128V439H288.597V385.576H293.709V407.752C295.101 405.544 297.021 403.84 299.469 402.64C301.917 401.44 304.725 400.84 307.893 400.84ZM370.44 421.648H338.76C339.048 425.584 340.56 428.776 343.296 431.224C346.032 433.624 349.488 434.824 353.664 434.824C356.016 434.824 358.176 434.416 360.144 433.6C362.112 432.736 363.816 431.488 365.256 429.856L368.136 433.168C366.456 435.184 364.344 436.72 361.8 437.776C359.304 438.832 356.544 439.36 353.52 439.36C349.632 439.36 346.176 438.544 343.152 436.912C340.176 435.232 337.848 432.928 336.168 430C334.488 427.072 333.648 423.76 333.648 420.064C333.648 416.368 334.44 413.056 336.024 410.128C337.656 407.2 339.864 404.92 342.648 403.288C345.48 401.656 348.648 400.84 352.152 400.84C355.656 400.84 358.8 401.656 361.584 403.288C364.368 404.92 366.552 407.2 368.136 410.128C369.72 413.008 370.512 416.32 370.512 420.064L370.44 421.648ZM352.152 405.232C348.504 405.232 345.432 406.408 342.936 408.76C340.488 411.064 339.096 414.088 338.76 417.832H365.616C365.28 414.088 363.864 411.064 361.368 408.76C358.92 406.408 355.848 405.232 352.152 405.232ZM391.069 439.36C387.997 439.36 385.045 438.928 382.213 438.064C379.429 437.152 377.245 436.024 375.661 434.68L377.965 430.648C379.549 431.896 381.541 432.928 383.941 433.744C386.341 434.512 388.837 434.896 391.429 434.896C394.885 434.896 397.429 434.368 399.061 433.312C400.741 432.208 401.581 430.672 401.581 428.704C401.581 427.312 401.125 426.232 400.213 425.464C399.301 424.648 398.149 424.048 396.757 423.664C395.365 423.232 393.517 422.824 391.213 422.44C388.141 421.864 385.669 421.288 383.797 420.712C381.925 420.088 380.317 419.056 378.973 417.616C377.677 416.176 377.029 414.184 377.029 411.64C377.029 408.472 378.349 405.88 380.989 403.864C383.629 401.848 387.301 400.84 392.005 400.84C394.453 400.84 396.901 401.176 399.349 401.848C401.797 402.472 403.813 403.312 405.397 404.368L403.165 408.472C400.045 406.312 396.325 405.232 392.005 405.232C388.741 405.232 386.269 405.808 384.589 406.96C382.957 408.112 382.141 409.624 382.141 411.496C382.141 412.936 382.597 414.088 383.509 414.952C384.469 415.816 385.645 416.464 387.037 416.896C388.429 417.28 390.349 417.688 392.797 418.12C395.821 418.696 398.245 419.272 400.069 419.848C401.893 420.424 403.453 421.408 404.749 422.8C406.045 424.192 406.693 426.112 406.693 428.56C406.693 431.872 405.301 434.512 402.517 436.48C399.781 438.4 395.965 439.36 391.069 439.36ZM454.931 436.696C453.971 437.56 452.771 438.232 451.331 438.712C449.939 439.144 448.475 439.36 446.939 439.36C443.387 439.36 440.651 438.4 438.731 436.48C436.811 434.56 435.851 431.848 435.851 428.344V405.448H429.083V401.128H435.851V392.848H440.963V401.128H452.483V405.448H440.963V428.056C440.963 430.312 441.515 432.04 442.619 433.24C443.771 434.392 445.403 434.968 447.515 434.968C448.571 434.968 449.579 434.8 450.539 434.464C451.547 434.128 452.411 433.648 453.131 433.024L454.931 436.696ZM483.533 400.84C488.285 400.84 492.053 402.232 494.837 405.016C497.669 407.752 499.085 411.76 499.085 417.04V439H493.973V417.544C493.973 413.608 492.989 410.608 491.021 408.544C489.053 406.48 486.245 405.448 482.597 405.448C478.517 405.448 475.277 406.672 472.877 409.12C470.525 411.52 469.349 414.856 469.349 419.128V439H464.237V385.576H469.349V407.752C470.741 405.544 472.661 403.84 475.109 402.64C477.557 401.44 480.365 400.84 483.533 400.84ZM526.212 400.84C531.156 400.84 534.948 402.088 537.588 404.584C540.228 407.032 541.548 410.68 541.548 415.528V439H536.652V433.096C535.5 435.064 533.796 436.6 531.54 437.704C529.332 438.808 526.692 439.36 523.62 439.36C519.396 439.36 516.036 438.352 513.54 436.336C511.044 434.32 509.796 431.656 509.796 428.344C509.796 425.128 510.948 422.536 513.252 420.568C515.604 418.6 519.324 417.616 524.412 417.616H536.436V415.312C536.436 412.048 535.524 409.576 533.7 407.896C531.876 406.168 529.212 405.304 525.708 405.304C523.308 405.304 521.004 405.712 518.796 406.528C516.588 407.296 514.692 408.376 513.108 409.768L510.804 405.952C512.724 404.32 515.028 403.072 517.716 402.208C520.404 401.296 523.236 400.84 526.212 400.84ZM524.412 435.328C527.292 435.328 529.764 434.68 531.828 433.384C533.892 432.04 535.428 430.12 536.436 427.624V421.432H524.556C518.076 421.432 514.836 423.688 514.836 428.2C514.836 430.408 515.676 432.16 517.356 433.456C519.036 434.704 521.388 435.328 524.412 435.328ZM575.377 436.696C574.417 437.56 573.217 438.232 571.777 438.712C570.385 439.144 568.921 439.36 567.385 439.36C563.833 439.36 561.097 438.4 559.177 436.48C557.257 434.56 556.297 431.848 556.297 428.344V405.448H549.529V401.128H556.297V392.848H561.409V401.128H572.929V405.448H561.409V428.056C561.409 430.312 561.961 432.04 563.065 433.24C564.217 434.392 565.849 434.968 567.961 434.968C569.017 434.968 570.025 434.8 570.985 434.464C571.993 434.128 572.857 433.648 573.577 433.024L575.377 436.696ZM149.36 488.84C154.112 488.84 157.832 490.208 160.52 492.944C163.256 495.68 164.624 499.712 164.624 505.04V527H159.512V505.544C159.512 501.608 158.552 498.608 156.632 496.544C154.76 494.48 152.096 493.448 148.64 493.448C144.704 493.448 141.608 494.672 139.352 497.12C137.096 499.52 135.968 502.856 135.968 507.128V527H130.856V505.544C130.856 501.608 129.896 498.608 127.976 496.544C126.104 494.48 123.416 493.448 119.912 493.448C116.024 493.448 112.928 494.672 110.624 497.12C108.368 499.52 107.24 502.856 107.24 507.128V527H102.128V489.128H107.024V496.04C108.368 493.736 110.24 491.96 112.64 490.712C115.04 489.464 117.8 488.84 120.92 488.84C124.088 488.84 126.824 489.512 129.128 490.856C131.48 492.2 133.232 494.192 134.384 496.832C135.776 494.336 137.768 492.392 140.36 491C143 489.56 146 488.84 149.36 488.84ZM191.735 488.84C196.679 488.84 200.471 490.088 203.111 492.584C205.751 495.032 207.071 498.68 207.071 503.528V527H202.175V521.096C201.023 523.064 199.319 524.6 197.063 525.704C194.855 526.808 192.215 527.36 189.143 527.36C184.919 527.36 181.559 526.352 179.063 524.336C176.567 522.32 175.319 519.656 175.319 516.344C175.319 513.128 176.471 510.536 178.775 508.568C181.127 506.6 184.847 505.616 189.935 505.616H201.959V503.312C201.959 500.048 201.047 497.576 199.223 495.896C197.399 494.168 194.735 493.304 191.231 493.304C188.831 493.304 186.527 493.712 184.319 494.528C182.111 495.296 180.215 496.376 178.631 497.768L176.327 493.952C178.247 492.32 180.551 491.072 183.239 490.208C185.927 489.296 188.759 488.84 191.735 488.84ZM189.935 523.328C192.815 523.328 195.287 522.68 197.351 521.384C199.415 520.04 200.951 518.12 201.959 515.624V509.432H190.079C183.599 509.432 180.359 511.688 180.359 516.2C180.359 518.408 181.199 520.16 182.879 521.456C184.559 522.704 186.911 523.328 189.935 523.328ZM240.9 524.696C239.94 525.56 238.74 526.232 237.3 526.712C235.908 527.144 234.444 527.36 232.908 527.36C229.356 527.36 226.62 526.4 224.7 524.48C222.78 522.56 221.82 519.848 221.82 516.344V493.448H215.052V489.128H221.82V480.848H226.932V489.128H238.452V493.448H226.932V516.056C226.932 518.312 227.484 520.04 228.588 521.24C229.74 522.392 231.372 522.968 233.484 522.968C234.54 522.968 235.548 522.8 236.508 522.464C237.516 522.128 238.38 521.648 239.1 521.024L240.9 524.696ZM269.166 524.696C268.206 525.56 267.006 526.232 265.566 526.712C264.174 527.144 262.71 527.36 261.174 527.36C257.622 527.36 254.886 526.4 252.966 524.48C251.046 522.56 250.086 519.848 250.086 516.344V493.448H243.318V489.128H250.086V480.848H255.198V489.128H266.718V493.448H255.198V516.056C255.198 518.312 255.75 520.04 256.854 521.24C258.006 522.392 259.638 522.968 261.75 522.968C262.806 522.968 263.814 522.8 264.774 522.464C265.782 522.128 266.646 521.648 267.366 521.024L269.166 524.696ZM310.112 509.648H278.432C278.72 513.584 280.232 516.776 282.968 519.224C285.704 521.624 289.16 522.824 293.336 522.824C295.688 522.824 297.848 522.416 299.816 521.6C301.784 520.736 303.488 519.488 304.928 517.856L307.808 521.168C306.128 523.184 304.016 524.72 301.472 525.776C298.976 526.832 296.216 527.36 293.192 527.36C289.304 527.36 285.848 526.544 282.824 524.912C279.848 523.232 277.52 520.928 275.84 518C274.16 515.072 273.32 511.76 273.32 508.064C273.32 504.368 274.112 501.056 275.696 498.128C277.328 495.2 279.536 492.92 282.32 491.288C285.152 489.656 288.32 488.84 291.824 488.84C295.328 488.84 298.472 489.656 301.256 491.288C304.04 492.92 306.224 495.2 307.808 498.128C309.392 501.008 310.184 504.32 310.184 508.064L310.112 509.648ZM291.824 493.232C288.176 493.232 285.104 494.408 282.608 496.76C280.16 499.064 278.768 502.088 278.432 505.832H305.288C304.952 502.088 303.536 499.064 301.04 496.76C298.592 494.408 295.52 493.232 291.824 493.232ZM325.485 496.544C326.685 494 328.461 492.08 330.813 490.784C333.213 489.488 336.165 488.84 339.669 488.84V493.808L338.445 493.736C334.461 493.736 331.341 494.96 329.085 497.408C326.829 499.856 325.701 503.288 325.701 507.704V527H320.589V489.128H325.485V496.544Z" fill="black"/>
</svg>
