<svg width="110" height="110" viewBox="0 0 110 110" fill="none" xmlns="http://www.w3.org/2000/svg">
<rect width="110" height="110" rx="55" fill="white"/>
<path d="M98 55.5C98 78.9721 78.9721 98 55.5 98C32.0279 98 13 78.9721 13 55.5C13 32.0279 32.0279 13 55.5 13C78.9721 13 98 32.0279 98 55.5ZM21.5 55.5C21.5 74.2777 36.7223 89.5 55.5 89.5C74.2777 89.5 89.5 74.2777 89.5 55.5C89.5 36.7223 74.2777 21.5 55.5 21.5C36.7223 21.5 21.5 36.7223 21.5 55.5Z" fill="#0047FF"/>
<path d="M79 36L51.6667 58L38 48" stroke="#0047FF" stroke-width="6"/>
</svg>
