<svg width="150" height="60" viewBox="0 0 150 60" fill="none" xmlns="http://www.w3.org/2000/svg">
<rect width="150" height="60" fill="white"/>
<path d="M16.888 32.208L10.024 39.168V48H6.472V14.4H10.024V34.704L29.752 14.4H33.832L19.288 29.616L34.84 48H30.616L16.888 32.208ZM48.0528 22.56C51.3488 22.56 53.8768 23.392 55.6368 25.056C57.3968 26.688 58.2768 29.12 58.2768 32.352V48H55.0128V44.064C54.2448 45.376 53.1088 46.4 51.6048 47.136C50.1328 47.872 48.3728 48.24 46.3248 48.24C43.5088 48.24 41.2688 47.568 39.6048 46.224C37.9408 44.88 37.1088 43.104 37.1088 40.896C37.1088 38.752 37.8768 37.024 39.4128 35.712C40.9808 34.4 43.4608 33.744 46.8528 33.744H54.8688V32.208C54.8688 30.032 54.2608 28.384 53.0448 27.264C51.8288 26.112 50.0528 25.536 47.7168 25.536C46.1168 25.536 44.5808 25.808 43.1088 26.352C41.6368 26.864 40.3728 27.584 39.3168 28.512L37.7808 25.968C39.0608 24.88 40.5968 24.048 42.3888 23.472C44.1808 22.864 46.0688 22.56 48.0528 22.56ZM46.8528 45.552C48.7728 45.552 50.4208 45.12 51.7968 44.256C53.1728 43.36 54.1968 42.08 54.8688 40.416V36.288H46.9488C42.6288 36.288 40.4688 37.792 40.4688 40.8C40.4688 42.272 41.0288 43.44 42.1488 44.304C43.2688 45.136 44.8368 45.552 46.8528 45.552ZM67.5333 22.752H70.9413V48H67.5333V22.752ZM69.2613 17.232C68.5573 17.232 67.9653 16.992 67.4853 16.512C67.0053 16.032 66.7653 15.456 66.7653 14.784C66.7653 14.144 67.0053 13.584 67.4853 13.104C67.9653 12.624 68.5573 12.384 69.2613 12.384C69.9653 12.384 70.5573 12.624 71.0373 13.104C71.5173 13.552 71.7573 14.096 71.7573 14.736C71.7573 15.44 71.5173 16.032 71.0373 16.512C70.5573 16.992 69.9653 17.232 69.2613 17.232ZM83.6879 27.696C84.4879 26 85.6719 24.72 87.2399 23.856C88.8399 22.992 90.8079 22.56 93.1439 22.56V25.872L92.3279 25.824C89.6719 25.824 87.5919 26.64 86.0879 28.272C84.5839 29.904 83.8319 32.192 83.8319 35.136V48H80.4239V22.752H83.6879V27.696ZM136.551 48.24C134.503 48.24 132.535 47.952 130.647 47.376C128.791 46.768 127.335 46.016 126.279 45.12L127.815 42.432C128.871 43.264 130.199 43.952 131.799 44.496C133.399 45.008 135.063 45.264 136.791 45.264C139.095 45.264 140.791 44.912 141.879 44.208C142.999 43.472 143.559 42.448 143.559 41.136C143.559 40.208 143.255 39.488 142.647 38.976C142.039 38.432 141.271 38.032 140.343 37.776C139.415 37.488 138.183 37.216 136.647 36.96C134.599 36.576 132.951 36.192 131.703 35.808C130.455 35.392 129.383 34.704 128.487 33.744C127.623 32.784 127.191 31.456 127.191 29.76C127.191 27.648 128.071 25.92 129.831 24.576C131.591 23.232 134.039 22.56 137.175 22.56C138.807 22.56 140.439 22.784 142.071 23.232C143.703 23.648 145.047 24.208 146.103 24.912L144.615 27.648C142.535 26.208 140.055 25.488 137.175 25.488C134.999 25.488 133.351 25.872 132.231 26.64C131.143 27.408 130.599 28.416 130.599 29.664C130.599 30.624 130.903 31.392 131.511 31.968C132.151 32.544 132.935 32.976 133.863 33.264C134.791 33.52 136.071 33.792 137.703 34.08C139.719 34.464 141.335 34.848 142.551 35.232C143.767 35.616 144.807 36.272 145.671 37.2C146.535 38.128 146.967 39.408 146.967 41.04C146.967 43.248 146.039 45.008 144.183 46.32C142.359 47.6 139.815 48.24 136.551 48.24Z" fill="black"/>
<path d="M110.01 48.24C107.578 48.24 105.386 47.696 103.434 46.608C101.482 45.488 99.9455 43.952 98.8255 42C97.7055 40.048 97.1455 37.84 97.1455 35.376C97.1455 32.912 97.7055 30.704 98.8255 28.752C99.9455 26.8 101.482 25.28 103.434 24.192C105.386 23.104 107.578 22.56 110.01 22.56C112.442 22.56 114.634 23.104 116.586 24.192C118.538 25.28 120.058 26.8 121.146 28.752C122.266 30.704 122.826 32.912 122.826 35.376C122.826 37.84 122.266 40.048 121.146 42C120.058 43.952 118.538 45.488 116.586 46.608C114.634 47.696 112.442 48.24 110.01 48.24ZM110.01 45.216C111.802 45.216 113.402 44.816 114.81 44.016C116.25 43.184 117.37 42.016 118.17 40.512C118.97 39.008 119.37 37.296 119.37 35.376C119.37 33.456 118.97 31.744 118.17 30.24C117.37 28.736 116.25 27.584 114.81 26.784C113.402 25.952 111.802 25.536 110.01 25.536C108.218 25.536 106.602 25.952 105.162 26.784C103.754 27.584 102.634 28.736 101.802 30.24C101.002 31.744 100.602 33.456 100.602 35.376C100.602 37.296 101.002 39.008 101.802 40.512C102.634 42.016 103.754 43.184 105.162 44.016C106.602 44.816 108.218 45.216 110.01 45.216Z" fill="#0047FF"/>
<path d="M115.5 30L108.5 35.5L105 33" stroke="#0047FF" stroke-width="2"/>
</svg>
