<svg width="1440" height="914" viewBox="0 0 1440 914" fill="none" xmlns="http://www.w3.org/2000/svg">
<rect width="1440" height="914" fill="white"/>
<mask id="mask0" mask-type="alpha" maskUnits="userSpaceOnUse" x="11" y="11" width="1418" height="892">
<path d="M12.483 26.9082L29.4026 38.4329C31.1681 36.2816 53.8011 18.0726 60.2992 12.6945" stroke="#0047FF" stroke-opacity="0.5" stroke-width="2"/>
<path d="M12.483 77.5642L29.4026 89.0889C31.1681 86.9376 53.8011 68.7286 60.2992 63.3505" stroke="#0047FF" stroke-opacity="0.5" stroke-width="2"/>
<path d="M12.483 128.22L29.4026 139.745C31.1681 137.594 53.8011 119.385 60.2992 114.007" stroke="#0047FF" stroke-opacity="0.5" stroke-width="2"/>
<path d="M12.483 178.876L29.4026 190.401C31.1681 188.25 53.8011 170.041 60.2992 164.663" stroke="#0047FF" stroke-opacity="0.5" stroke-width="2"/>
<path d="M84.4319 26.9082L101.352 38.4329C103.117 36.2816 125.75 18.0726 132.248 12.6945" stroke="#0047FF" stroke-opacity="0.5" stroke-width="2"/>
<path d="M84.4319 77.5642L101.351 89.0889C103.117 86.9376 125.75 68.7286 132.248 63.3505" stroke="#0047FF" stroke-opacity="0.5" stroke-width="2"/>
<path d="M84.4319 128.22L101.351 139.745C103.117 137.594 125.75 119.385 132.248 114.007" stroke="#0047FF" stroke-opacity="0.5" stroke-width="2"/>
<path d="M84.4319 178.876L101.351 190.401C103.117 188.25 125.75 170.041 132.248 164.663" stroke="#0047FF" stroke-opacity="0.5" stroke-width="2"/>
<path d="M156.381 26.9082L173.301 38.4329C175.066 36.2816 197.699 18.0726 204.197 12.6945" stroke="#0047FF" stroke-opacity="0.5" stroke-width="2"/>
<path d="M156.381 77.5642L173.301 89.0889C175.066 86.9376 197.699 68.7286 204.197 63.3505" stroke="#0047FF" stroke-opacity="0.5" stroke-width="2"/>
<path d="M156.381 128.22L173.301 139.745C175.066 137.594 197.699 119.385 204.197 114.007" stroke="#0047FF" stroke-opacity="0.5" stroke-width="2"/>
<path d="M156.381 178.876L173.301 190.401C175.066 188.25 197.699 170.041 204.197 164.663" stroke="#0047FF" stroke-opacity="0.5" stroke-width="2"/>
<path d="M444.177 26.9082L461.097 38.4329C462.862 36.2816 485.495 18.0726 491.993 12.6945" stroke="#0047FF" stroke-opacity="0.5" stroke-width="2"/>
<path d="M444.177 77.5642L461.097 89.0889C462.862 86.9376 485.495 68.7286 491.993 63.3505" stroke="#0047FF" stroke-opacity="0.5" stroke-width="2"/>
<path d="M444.177 128.22L461.097 139.745C462.862 137.594 485.495 119.385 491.993 114.007" stroke="#0047FF" stroke-opacity="0.5" stroke-width="2"/>
<path d="M444.177 178.876L461.097 190.401C462.862 188.25 485.495 170.041 491.993 164.663" stroke="#0047FF" stroke-opacity="0.5" stroke-width="2"/>
<path d="M516.126 26.9082L533.046 38.4329C534.811 36.2816 557.444 18.0726 563.942 12.6945" stroke="#0047FF" stroke-opacity="0.5" stroke-width="2"/>
<path d="M516.126 77.5642L533.046 89.0889C534.811 86.9376 557.444 68.7286 563.942 63.3505" stroke="#0047FF" stroke-opacity="0.5" stroke-width="2"/>
<path d="M516.126 128.22L533.046 139.745C534.811 137.594 557.444 119.385 563.942 114.007" stroke="#0047FF" stroke-opacity="0.5" stroke-width="2"/>
<path d="M516.126 178.876L533.046 190.401C534.811 188.25 557.444 170.041 563.942 164.663" stroke="#0047FF" stroke-opacity="0.5" stroke-width="2"/>
<path d="M588.075 26.9082L604.994 38.4329C606.76 36.2816 629.393 18.0726 635.891 12.6945" stroke="#0047FF" stroke-opacity="0.5" stroke-width="2"/>
<path d="M588.075 77.5642L604.994 89.0889C606.76 86.9376 629.393 68.7286 635.891 63.3505" stroke="#0047FF" stroke-opacity="0.5" stroke-width="2"/>
<path d="M588.075 128.22L604.994 139.745C606.76 137.594 629.393 119.385 635.891 114.007" stroke="#0047FF" stroke-opacity="0.5" stroke-width="2"/>
<path d="M588.075 178.876L604.994 190.401C606.76 188.25 629.393 170.041 635.891 164.663" stroke="#0047FF" stroke-opacity="0.5" stroke-width="2"/>
<path d="M12.483 229.532L29.4026 241.057C31.1681 238.906 53.8011 220.697 60.2992 215.319" stroke="#0047FF" stroke-opacity="0.5" stroke-width="2"/>
<path d="M12.483 280.188L29.4026 291.713C31.1681 289.562 53.8011 271.353 60.2992 265.975" stroke="#0047FF" stroke-opacity="0.5" stroke-width="2"/>
<path d="M12.483 330.845L29.4026 342.369C31.1681 340.218 53.8011 322.009 60.2992 316.631" stroke="#0047FF" stroke-opacity="0.5" stroke-width="2"/>
<path d="M12.483 381.501L29.4026 393.025C31.1681 390.874 53.8011 372.665 60.2992 367.287" stroke="#0047FF" stroke-opacity="0.5" stroke-width="2"/>
<path d="M12 432.157L28.9196 443.682C30.6851 441.53 53.3181 423.321 59.8161 417.943" stroke="#0047FF" stroke-opacity="0.5" stroke-width="2"/>
<path d="M443.694 432.157L460.613 443.682C462.379 441.53 485.012 423.321 491.51 417.943" stroke="#0047FF" stroke-opacity="0.5" stroke-width="2"/>
<path d="M84.4319 229.532L101.351 241.057C103.117 238.906 125.75 220.697 132.248 215.319" stroke="#0047FF" stroke-opacity="0.5" stroke-width="2"/>
<path d="M84.4319 280.188L101.351 291.713C103.117 289.562 125.75 271.353 132.248 265.975" stroke="#0047FF" stroke-opacity="0.5" stroke-width="2"/>
<path d="M84.4319 330.845L101.351 342.369C103.117 340.218 125.75 322.009 132.248 316.631" stroke="#0047FF" stroke-opacity="0.5" stroke-width="2"/>
<path d="M84.4319 381.501L101.351 393.025C103.117 390.874 125.75 372.665 132.248 367.287" stroke="#0047FF" stroke-opacity="0.5" stroke-width="2"/>
<path d="M83.9491 432.157L100.869 443.682C102.634 441.53 125.267 423.321 131.765 417.943" stroke="#0047FF" stroke-opacity="0.5" stroke-width="2"/>
<path d="M515.643 432.157L532.562 443.682C534.328 441.53 556.961 423.321 563.459 417.943" stroke="#0047FF" stroke-opacity="0.5" stroke-width="2"/>
<path d="M156.381 229.532L173.301 241.057C175.066 238.906 197.699 220.697 204.197 215.319" stroke="#0047FF" stroke-opacity="0.5" stroke-width="2"/>
<path d="M156.381 280.188L173.301 291.713C175.066 289.562 197.699 271.353 204.197 265.975" stroke="#0047FF" stroke-opacity="0.5" stroke-width="2"/>
<path d="M156.381 330.845L173.301 342.369C175.066 340.218 197.699 322.009 204.197 316.631" stroke="#0047FF" stroke-opacity="0.5" stroke-width="2"/>
<path d="M156.381 381.501L173.301 393.025C175.066 390.874 197.699 372.665 204.197 367.287" stroke="#0047FF" stroke-opacity="0.5" stroke-width="2"/>
<path d="M155.898 432.157L172.818 443.682C174.583 441.53 197.216 423.321 203.714 417.943" stroke="#0047FF" stroke-opacity="0.5" stroke-width="2"/>
<path d="M587.592 432.157L604.511 443.682C606.277 441.53 628.91 423.321 635.408 417.943" stroke="#0047FF" stroke-opacity="0.5" stroke-width="2"/>
<path d="M444.177 229.532L461.097 241.057C462.862 238.906 485.495 220.697 491.993 215.319" stroke="#0047FF" stroke-opacity="0.5" stroke-width="2"/>
<path d="M444.177 280.188L461.097 291.713C462.862 289.562 485.495 271.353 491.993 265.975" stroke="#0047FF" stroke-opacity="0.5" stroke-width="2"/>
<path d="M444.177 330.845L461.097 342.369C462.862 340.218 485.495 322.009 491.993 316.631" stroke="#0047FF" stroke-opacity="0.5" stroke-width="2"/>
<path d="M444.177 381.501L461.097 393.025C462.862 390.874 485.495 372.665 491.993 367.287" stroke="#0047FF" stroke-opacity="0.5" stroke-width="2"/>
<path d="M516.126 229.532L533.046 241.057C534.811 238.906 557.444 220.697 563.942 215.319" stroke="#0047FF" stroke-opacity="0.5" stroke-width="2"/>
<path d="M516.126 280.188L533.046 291.713C534.811 289.562 557.444 271.353 563.942 265.975" stroke="#0047FF" stroke-opacity="0.5" stroke-width="2"/>
<path d="M516.126 330.845L533.046 342.369C534.811 340.218 557.444 322.009 563.942 316.631" stroke="#0047FF" stroke-opacity="0.5" stroke-width="2"/>
<path d="M516.126 381.501L533.046 393.025C534.811 390.874 557.444 372.665 563.942 367.287" stroke="#0047FF" stroke-opacity="0.5" stroke-width="2"/>
<path d="M588.075 229.532L604.994 241.057C606.76 238.906 629.393 220.697 635.891 215.319" stroke="#0047FF" stroke-opacity="0.5" stroke-width="2"/>
<path d="M588.075 280.188L604.994 291.713C606.76 289.562 629.393 271.353 635.891 265.975" stroke="#0047FF" stroke-opacity="0.5" stroke-width="2"/>
<path d="M588.075 330.845L604.994 342.369C606.76 340.218 629.393 322.009 635.891 316.631" stroke="#0047FF" stroke-opacity="0.5" stroke-width="2"/>
<path d="M588.075 381.501L604.994 393.025C606.76 390.874 629.393 372.665 635.891 367.287" stroke="#0047FF" stroke-opacity="0.5" stroke-width="2"/>
<path d="M228.33 26.9082L245.25 38.4329C247.015 36.2816 269.648 18.0726 276.146 12.6945" stroke="#0047FF" stroke-opacity="0.5" stroke-width="2"/>
<path d="M228.33 77.5642L245.25 89.0889C247.015 86.9376 269.648 68.7286 276.146 63.3505" stroke="#0047FF" stroke-opacity="0.5" stroke-width="2"/>
<path d="M228.33 128.22L245.25 139.745C247.015 137.594 269.648 119.385 276.146 114.007" stroke="#0047FF" stroke-opacity="0.5" stroke-width="2"/>
<path d="M228.33 178.876L245.25 190.401C247.015 188.25 269.648 170.041 276.146 164.663" stroke="#0047FF" stroke-opacity="0.5" stroke-width="2"/>
<path d="M300.279 26.9082L317.199 38.4329C318.964 36.2816 341.597 18.0726 348.095 12.6945" stroke="#0047FF" stroke-opacity="0.5" stroke-width="2"/>
<path d="M300.279 77.5642L317.198 89.0889C318.964 86.9376 341.597 68.7286 348.095 63.3505" stroke="#0047FF" stroke-opacity="0.5" stroke-width="2"/>
<path d="M300.279 128.22L317.198 139.745C318.964 137.594 341.597 119.385 348.095 114.007" stroke="#0047FF" stroke-opacity="0.5" stroke-width="2"/>
<path d="M300.279 178.876L317.198 190.401C318.964 188.25 341.597 170.041 348.095 164.663" stroke="#0047FF" stroke-opacity="0.5" stroke-width="2"/>
<path d="M372.228 26.9082L389.147 38.4329C390.913 36.2816 413.546 18.0726 420.044 12.6945" stroke="#0047FF" stroke-opacity="0.5" stroke-width="2"/>
<path d="M372.228 77.5642L389.147 89.0889C390.913 86.9376 413.546 68.7286 420.044 63.3505" stroke="#0047FF" stroke-opacity="0.5" stroke-width="2"/>
<path d="M372.228 128.22L389.147 139.745C390.913 137.594 413.546 119.385 420.044 114.007" stroke="#0047FF" stroke-opacity="0.5" stroke-width="2"/>
<path d="M372.228 178.876L389.147 190.401C390.913 188.25 413.546 170.041 420.044 164.663" stroke="#0047FF" stroke-opacity="0.5" stroke-width="2"/>
<path d="M660.024 26.9082L676.943 38.4329C678.709 36.2816 701.342 18.0726 707.84 12.6945" stroke="#0047FF" stroke-opacity="0.5" stroke-width="2"/>
<path d="M660.024 77.5642L676.943 89.0889C678.709 86.9376 701.342 68.7286 707.84 63.3505" stroke="#0047FF" stroke-opacity="0.5" stroke-width="2"/>
<path d="M660.024 128.22L676.943 139.745C678.709 137.594 701.342 119.385 707.84 114.007" stroke="#0047FF" stroke-opacity="0.5" stroke-width="2"/>
<path d="M660.024 178.876L676.943 190.401C678.709 188.25 701.342 170.041 707.84 164.663" stroke="#0047FF" stroke-opacity="0.5" stroke-width="2"/>
<path d="M228.33 229.532L245.25 241.057C247.015 238.906 269.648 220.697 276.146 215.319" stroke="#0047FF" stroke-opacity="0.5" stroke-width="2"/>
<path d="M228.33 280.188L245.25 291.713C247.015 289.562 269.648 271.353 276.146 265.975" stroke="#0047FF" stroke-opacity="0.5" stroke-width="2"/>
<path d="M228.33 330.845L245.25 342.369C247.015 340.218 269.648 322.009 276.146 316.631" stroke="#0047FF" stroke-opacity="0.5" stroke-width="2"/>
<path d="M228.33 381.501L245.25 393.025C247.015 390.874 269.648 372.665 276.146 367.287" stroke="#0047FF" stroke-opacity="0.5" stroke-width="2"/>
<path d="M227.847 432.157L244.766 443.682C246.532 441.53 269.165 423.321 275.663 417.943" stroke="#0047FF" stroke-opacity="0.5" stroke-width="2"/>
<path d="M659.541 432.157L676.46 443.682C678.226 441.53 700.859 423.321 707.357 417.943" stroke="#0047FF" stroke-opacity="0.5" stroke-width="2"/>
<path d="M300.279 229.532L317.198 241.057C318.964 238.906 341.597 220.697 348.095 215.319" stroke="#0047FF" stroke-opacity="0.5" stroke-width="2"/>
<path d="M300.279 280.188L317.198 291.713C318.964 289.562 341.597 271.353 348.095 265.975" stroke="#0047FF" stroke-opacity="0.5" stroke-width="2"/>
<path d="M300.279 330.845L317.198 342.369C318.964 340.218 341.597 322.009 348.095 316.631" stroke="#0047FF" stroke-opacity="0.5" stroke-width="2"/>
<path d="M300.279 381.501L317.198 393.025C318.964 390.874 341.597 372.665 348.095 367.287" stroke="#0047FF" stroke-opacity="0.5" stroke-width="2"/>
<path d="M299.796 432.157L316.715 443.682C318.481 441.53 341.114 423.321 347.612 417.943" stroke="#0047FF" stroke-opacity="0.5" stroke-width="2"/>
<path d="M372.228 229.532L389.147 241.057C390.913 238.906 413.546 220.697 420.044 215.319" stroke="#0047FF" stroke-opacity="0.5" stroke-width="2"/>
<path d="M372.228 280.188L389.147 291.713C390.913 289.562 413.546 271.353 420.044 265.975" stroke="#0047FF" stroke-opacity="0.5" stroke-width="2"/>
<path d="M372.228 330.845L389.147 342.369C390.913 340.218 413.546 322.009 420.044 316.631" stroke="#0047FF" stroke-opacity="0.5" stroke-width="2"/>
<path d="M372.228 381.501L389.147 393.025C390.913 390.874 413.546 372.665 420.044 367.287" stroke="#0047FF" stroke-opacity="0.5" stroke-width="2"/>
<path d="M371.745 432.157L388.665 443.682C390.43 441.53 413.063 423.321 419.561 417.943" stroke="#0047FF" stroke-opacity="0.5" stroke-width="2"/>
<path d="M660.024 229.532L676.943 241.057C678.709 238.906 701.342 220.697 707.84 215.319" stroke="#0047FF" stroke-opacity="0.5" stroke-width="2"/>
<path d="M660.024 280.188L676.943 291.713C678.709 289.562 701.342 271.353 707.84 265.975" stroke="#0047FF" stroke-opacity="0.5" stroke-width="2"/>
<path d="M660.024 330.845L676.943 342.369C678.709 340.218 701.342 322.009 707.84 316.631" stroke="#0047FF" stroke-opacity="0.5" stroke-width="2"/>
<path d="M660.024 381.501L676.943 393.025C678.709 390.874 701.342 372.665 707.84 367.287" stroke="#0047FF" stroke-opacity="0.5" stroke-width="2"/>
<path d="M732.483 26.9082L749.403 38.4329C751.168 36.2816 773.801 18.0726 780.299 12.6945" stroke="#0047FF" stroke-opacity="0.5" stroke-width="2"/>
<path d="M732.483 77.5642L749.403 89.0889C751.168 86.9376 773.801 68.7286 780.299 63.3505" stroke="#0047FF" stroke-opacity="0.5" stroke-width="2"/>
<path d="M732.483 128.22L749.403 139.745C751.168 137.594 773.801 119.385 780.299 114.007" stroke="#0047FF" stroke-opacity="0.5" stroke-width="2"/>
<path d="M732.483 178.876L749.403 190.401C751.168 188.25 773.801 170.041 780.299 164.663" stroke="#0047FF" stroke-opacity="0.5" stroke-width="2"/>
<path d="M804.432 26.9082L821.352 38.4329C823.117 36.2816 845.75 18.0726 852.248 12.6945" stroke="#0047FF" stroke-opacity="0.5" stroke-width="2"/>
<path d="M804.432 77.5642L821.351 89.0889C823.117 86.9376 845.75 68.7286 852.248 63.3505" stroke="#0047FF" stroke-opacity="0.5" stroke-width="2"/>
<path d="M804.432 128.22L821.351 139.745C823.117 137.594 845.75 119.385 852.248 114.007" stroke="#0047FF" stroke-opacity="0.5" stroke-width="2"/>
<path d="M804.432 178.876L821.351 190.401C823.117 188.25 845.75 170.041 852.248 164.663" stroke="#0047FF" stroke-opacity="0.5" stroke-width="2"/>
<path d="M876.381 26.9082L893.301 38.4329C895.066 36.2816 917.699 18.0726 924.197 12.6945" stroke="#0047FF" stroke-opacity="0.5" stroke-width="2"/>
<path d="M876.381 77.5642L893.301 89.0889C895.066 86.9376 917.699 68.7286 924.197 63.3505" stroke="#0047FF" stroke-opacity="0.5" stroke-width="2"/>
<path d="M876.381 128.22L893.301 139.745C895.066 137.594 917.699 119.385 924.197 114.007" stroke="#0047FF" stroke-opacity="0.5" stroke-width="2"/>
<path d="M876.381 178.876L893.301 190.401C895.066 188.25 917.699 170.041 924.197 164.663" stroke="#0047FF" stroke-opacity="0.5" stroke-width="2"/>
<path d="M1164.18 26.9082L1181.1 38.4329C1182.86 36.2816 1205.49 18.0726 1211.99 12.6945" stroke="#0047FF" stroke-opacity="0.5" stroke-width="2"/>
<path d="M1164.18 77.5642L1181.1 89.0889C1182.86 86.9376 1205.5 68.7286 1211.99 63.3505" stroke="#0047FF" stroke-opacity="0.5" stroke-width="2"/>
<path d="M1164.18 128.22L1181.1 139.745C1182.86 137.594 1205.5 119.385 1211.99 114.007" stroke="#0047FF" stroke-opacity="0.5" stroke-width="2"/>
<path d="M1164.18 178.876L1181.1 190.401C1182.86 188.25 1205.5 170.041 1211.99 164.663" stroke="#0047FF" stroke-opacity="0.5" stroke-width="2"/>
<path d="M1236.13 26.9082L1253.05 38.4329C1254.81 36.2816 1277.44 18.0726 1283.94 12.6945" stroke="#0047FF" stroke-opacity="0.5" stroke-width="2"/>
<path d="M1236.13 77.5642L1253.05 89.0889C1254.81 86.9376 1277.44 68.7286 1283.94 63.3505" stroke="#0047FF" stroke-opacity="0.5" stroke-width="2"/>
<path d="M1236.13 128.22L1253.05 139.745C1254.81 137.594 1277.44 119.385 1283.94 114.007" stroke="#0047FF" stroke-opacity="0.5" stroke-width="2"/>
<path d="M1236.13 178.876L1253.05 190.401C1254.81 188.25 1277.44 170.041 1283.94 164.663" stroke="#0047FF" stroke-opacity="0.5" stroke-width="2"/>
<path d="M1308.07 26.9082L1324.99 38.4329C1326.76 36.2816 1349.39 18.0726 1355.89 12.6945" stroke="#0047FF" stroke-opacity="0.5" stroke-width="2"/>
<path d="M1308.07 77.5642L1324.99 89.0889C1326.76 86.9376 1349.39 68.7286 1355.89 63.3505" stroke="#0047FF" stroke-opacity="0.5" stroke-width="2"/>
<path d="M1308.07 128.22L1324.99 139.745C1326.76 137.594 1349.39 119.385 1355.89 114.007" stroke="#0047FF" stroke-opacity="0.5" stroke-width="2"/>
<path d="M1308.07 178.876L1324.99 190.401C1326.76 188.25 1349.39 170.041 1355.89 164.663" stroke="#0047FF" stroke-opacity="0.5" stroke-width="2"/>
<path d="M732.483 229.532L749.403 241.057C751.168 238.906 773.801 220.697 780.299 215.319" stroke="#0047FF" stroke-opacity="0.5" stroke-width="2"/>
<path d="M732.483 280.188L749.403 291.713C751.168 289.562 773.801 271.353 780.299 265.975" stroke="#0047FF" stroke-opacity="0.5" stroke-width="2"/>
<path d="M732.483 330.845L749.403 342.369C751.168 340.218 773.801 322.009 780.299 316.631" stroke="#0047FF" stroke-opacity="0.5" stroke-width="2"/>
<path d="M732.483 381.501L749.403 393.025C751.168 390.874 773.801 372.665 780.299 367.287" stroke="#0047FF" stroke-opacity="0.5" stroke-width="2"/>
<path d="M732 432.157L748.92 443.682C750.685 441.53 773.318 423.321 779.816 417.943" stroke="#0047FF" stroke-opacity="0.5" stroke-width="2"/>
<path d="M1163.69 432.157L1180.61 443.682C1182.38 441.53 1205.01 423.321 1211.51 417.943" stroke="#0047FF" stroke-opacity="0.5" stroke-width="2"/>
<path d="M804.432 229.532L821.351 241.057C823.117 238.906 845.75 220.697 852.248 215.319" stroke="#0047FF" stroke-opacity="0.5" stroke-width="2"/>
<path d="M804.432 280.188L821.351 291.713C823.117 289.562 845.75 271.353 852.248 265.975" stroke="#0047FF" stroke-opacity="0.5" stroke-width="2"/>
<path d="M804.432 330.845L821.351 342.369C823.117 340.218 845.75 322.009 852.248 316.631" stroke="#0047FF" stroke-opacity="0.5" stroke-width="2"/>
<path d="M804.432 381.501L821.351 393.025C823.117 390.874 845.75 372.665 852.248 367.287" stroke="#0047FF" stroke-opacity="0.5" stroke-width="2"/>
<path d="M803.949 432.157L820.869 443.682C822.634 441.53 845.267 423.321 851.765 417.943" stroke="#0047FF" stroke-opacity="0.5" stroke-width="2"/>
<path d="M1235.64 432.157L1252.56 443.682C1254.33 441.53 1276.96 423.321 1283.46 417.943" stroke="#0047FF" stroke-opacity="0.5" stroke-width="2"/>
<path d="M876.381 229.532L893.301 241.057C895.066 238.906 917.699 220.697 924.197 215.319" stroke="#0047FF" stroke-opacity="0.5" stroke-width="2"/>
<path d="M876.381 280.188L893.301 291.713C895.066 289.562 917.699 271.353 924.197 265.975" stroke="#0047FF" stroke-opacity="0.5" stroke-width="2"/>
<path d="M876.381 330.845L893.301 342.369C895.066 340.218 917.699 322.009 924.197 316.631" stroke="#0047FF" stroke-opacity="0.5" stroke-width="2"/>
<path d="M876.381 381.501L893.301 393.025C895.066 390.874 917.699 372.665 924.197 367.287" stroke="#0047FF" stroke-opacity="0.5" stroke-width="2"/>
<path d="M875.898 432.157L892.818 443.682C894.583 441.53 917.216 423.321 923.714 417.943" stroke="#0047FF" stroke-opacity="0.5" stroke-width="2"/>
<path d="M1307.59 432.157L1324.51 443.682C1326.28 441.53 1348.91 423.321 1355.41 417.943" stroke="#0047FF" stroke-opacity="0.5" stroke-width="2"/>
<path d="M1164.18 229.532L1181.1 241.057C1182.86 238.906 1205.5 220.697 1211.99 215.319" stroke="#0047FF" stroke-opacity="0.5" stroke-width="2"/>
<path d="M1164.18 280.188L1181.1 291.713C1182.86 289.562 1205.5 271.353 1211.99 265.975" stroke="#0047FF" stroke-opacity="0.5" stroke-width="2"/>
<path d="M1164.18 330.845L1181.1 342.369C1182.86 340.218 1205.5 322.009 1211.99 316.631" stroke="#0047FF" stroke-opacity="0.5" stroke-width="2"/>
<path d="M1164.18 381.501L1181.1 393.025C1182.86 390.874 1205.5 372.665 1211.99 367.287" stroke="#0047FF" stroke-opacity="0.5" stroke-width="2"/>
<path d="M1236.13 229.532L1253.05 241.057C1254.81 238.906 1277.44 220.697 1283.94 215.319" stroke="#0047FF" stroke-opacity="0.5" stroke-width="2"/>
<path d="M1236.13 280.188L1253.05 291.713C1254.81 289.562 1277.44 271.353 1283.94 265.975" stroke="#0047FF" stroke-opacity="0.5" stroke-width="2"/>
<path d="M1236.13 330.845L1253.05 342.369C1254.81 340.218 1277.44 322.009 1283.94 316.631" stroke="#0047FF" stroke-opacity="0.5" stroke-width="2"/>
<path d="M1236.13 381.501L1253.05 393.025C1254.81 390.874 1277.44 372.665 1283.94 367.287" stroke="#0047FF" stroke-opacity="0.5" stroke-width="2"/>
<path d="M1308.07 229.532L1324.99 241.057C1326.76 238.906 1349.39 220.697 1355.89 215.319" stroke="#0047FF" stroke-opacity="0.5" stroke-width="2"/>
<path d="M1308.07 280.188L1324.99 291.713C1326.76 289.562 1349.39 271.353 1355.89 265.975" stroke="#0047FF" stroke-opacity="0.5" stroke-width="2"/>
<path d="M1308.07 330.845L1324.99 342.369C1326.76 340.218 1349.39 322.009 1355.89 316.631" stroke="#0047FF" stroke-opacity="0.5" stroke-width="2"/>
<path d="M1308.07 381.501L1324.99 393.025C1326.76 390.874 1349.39 372.665 1355.89 367.287" stroke="#0047FF" stroke-opacity="0.5" stroke-width="2"/>
<path d="M948.33 26.9082L965.25 38.4329C967.015 36.2816 989.648 18.0726 996.146 12.6945" stroke="#0047FF" stroke-opacity="0.5" stroke-width="2"/>
<path d="M948.33 77.5642L965.25 89.0889C967.015 86.9376 989.648 68.7286 996.146 63.3505" stroke="#0047FF" stroke-opacity="0.5" stroke-width="2"/>
<path d="M948.33 128.22L965.25 139.745C967.015 137.594 989.648 119.385 996.146 114.007" stroke="#0047FF" stroke-opacity="0.5" stroke-width="2"/>
<path d="M948.33 178.876L965.25 190.401C967.015 188.25 989.648 170.041 996.146 164.663" stroke="#0047FF" stroke-opacity="0.5" stroke-width="2"/>
<path d="M1020.28 26.9082L1037.2 38.4329C1038.96 36.2816 1061.6 18.0726 1068.1 12.6945" stroke="#0047FF" stroke-opacity="0.5" stroke-width="2"/>
<path d="M1020.28 77.5642L1037.2 89.0889C1038.96 86.9376 1061.6 68.7286 1068.1 63.3505" stroke="#0047FF" stroke-opacity="0.5" stroke-width="2"/>
<path d="M1020.28 128.22L1037.2 139.745C1038.96 137.594 1061.6 119.385 1068.1 114.007" stroke="#0047FF" stroke-opacity="0.5" stroke-width="2"/>
<path d="M1020.28 178.876L1037.2 190.401C1038.96 188.25 1061.6 170.041 1068.1 164.663" stroke="#0047FF" stroke-opacity="0.5" stroke-width="2"/>
<path d="M1092.23 26.9082L1109.15 38.4329C1110.91 36.2816 1133.55 18.0726 1140.04 12.6945" stroke="#0047FF" stroke-opacity="0.5" stroke-width="2"/>
<path d="M1092.23 77.5642L1109.15 89.0889C1110.91 86.9376 1133.55 68.7286 1140.04 63.3505" stroke="#0047FF" stroke-opacity="0.5" stroke-width="2"/>
<path d="M1092.23 128.22L1109.15 139.745C1110.91 137.594 1133.55 119.385 1140.04 114.007" stroke="#0047FF" stroke-opacity="0.5" stroke-width="2"/>
<path d="M1092.23 178.876L1109.15 190.401C1110.91 188.25 1133.55 170.041 1140.04 164.663" stroke="#0047FF" stroke-opacity="0.5" stroke-width="2"/>
<path d="M1380.02 26.9082L1396.94 38.4329C1398.71 36.2816 1421.34 18.0726 1427.84 12.6945" stroke="#0047FF" stroke-opacity="0.5" stroke-width="2"/>
<path d="M1380.02 77.5642L1396.94 89.0889C1398.71 86.9376 1421.34 68.7286 1427.84 63.3505" stroke="#0047FF" stroke-opacity="0.5" stroke-width="2"/>
<path d="M1380.02 128.22L1396.94 139.745C1398.71 137.594 1421.34 119.385 1427.84 114.007" stroke="#0047FF" stroke-opacity="0.5" stroke-width="2"/>
<path d="M1380.02 178.876L1396.94 190.401C1398.71 188.25 1421.34 170.041 1427.84 164.663" stroke="#0047FF" stroke-opacity="0.5" stroke-width="2"/>
<path d="M948.33 229.532L965.25 241.057C967.015 238.906 989.648 220.697 996.146 215.319" stroke="#0047FF" stroke-opacity="0.5" stroke-width="2"/>
<path d="M948.33 280.188L965.25 291.713C967.015 289.562 989.648 271.353 996.146 265.975" stroke="#0047FF" stroke-opacity="0.5" stroke-width="2"/>
<path d="M948.33 330.845L965.25 342.369C967.015 340.218 989.648 322.009 996.146 316.631" stroke="#0047FF" stroke-opacity="0.5" stroke-width="2"/>
<path d="M948.33 381.501L965.25 393.025C967.015 390.874 989.648 372.665 996.146 367.287" stroke="#0047FF" stroke-opacity="0.5" stroke-width="2"/>
<path d="M947.847 432.157L964.766 443.682C966.532 441.53 989.165 423.321 995.663 417.943" stroke="#0047FF" stroke-opacity="0.5" stroke-width="2"/>
<path d="M1379.54 432.157L1396.46 443.682C1398.23 441.53 1420.86 423.321 1427.36 417.943" stroke="#0047FF" stroke-opacity="0.5" stroke-width="2"/>
<path d="M1020.28 229.532L1037.2 241.057C1038.96 238.906 1061.6 220.697 1068.1 215.319" stroke="#0047FF" stroke-opacity="0.5" stroke-width="2"/>
<path d="M1020.28 280.188L1037.2 291.713C1038.96 289.562 1061.6 271.353 1068.1 265.975" stroke="#0047FF" stroke-opacity="0.5" stroke-width="2"/>
<path d="M1020.28 330.845L1037.2 342.369C1038.96 340.218 1061.6 322.009 1068.1 316.631" stroke="#0047FF" stroke-opacity="0.5" stroke-width="2"/>
<path d="M1020.28 381.501L1037.2 393.025C1038.96 390.874 1061.6 372.665 1068.1 367.287" stroke="#0047FF" stroke-opacity="0.5" stroke-width="2"/>
<path d="M1019.8 432.157L1036.72 443.682C1038.48 441.53 1061.11 423.321 1067.61 417.943" stroke="#0047FF" stroke-opacity="0.5" stroke-width="2"/>
<path d="M1092.23 229.532L1109.15 241.057C1110.91 238.906 1133.55 220.697 1140.04 215.319" stroke="#0047FF" stroke-opacity="0.5" stroke-width="2"/>
<path d="M1092.23 280.188L1109.15 291.713C1110.91 289.562 1133.55 271.353 1140.04 265.975" stroke="#0047FF" stroke-opacity="0.5" stroke-width="2"/>
<path d="M1092.23 330.845L1109.15 342.369C1110.91 340.218 1133.55 322.009 1140.04 316.631" stroke="#0047FF" stroke-opacity="0.5" stroke-width="2"/>
<path d="M1092.23 381.501L1109.15 393.025C1110.91 390.874 1133.55 372.665 1140.04 367.287" stroke="#0047FF" stroke-opacity="0.5" stroke-width="2"/>
<path d="M1091.74 432.157L1108.66 443.682C1110.43 441.53 1133.06 423.321 1139.56 417.943" stroke="#0047FF" stroke-opacity="0.5" stroke-width="2"/>
<path d="M1380.02 229.532L1396.94 241.057C1398.71 238.906 1421.34 220.697 1427.84 215.319" stroke="#0047FF" stroke-opacity="0.5" stroke-width="2"/>
<path d="M1380.02 280.188L1396.94 291.713C1398.71 289.562 1421.34 271.353 1427.84 265.975" stroke="#0047FF" stroke-opacity="0.5" stroke-width="2"/>
<path d="M1380.02 330.845L1396.94 342.369C1398.71 340.218 1421.34 322.009 1427.84 316.631" stroke="#0047FF" stroke-opacity="0.5" stroke-width="2"/>
<path d="M1380.02 381.501L1396.94 393.025C1398.71 390.874 1421.34 372.665 1427.84 367.287" stroke="#0047FF" stroke-opacity="0.5" stroke-width="2"/>
<path d="M732.483 483.908L749.403 495.433C751.168 493.282 773.801 475.073 780.299 469.694" stroke="#0047FF" stroke-opacity="0.5" stroke-width="2"/>
<path d="M732.483 534.564L749.403 546.089C751.168 543.938 773.801 525.729 780.299 520.35" stroke="#0047FF" stroke-opacity="0.5" stroke-width="2"/>
<path d="M732.483 585.22L749.403 596.745C751.168 594.594 773.801 576.385 780.299 571.006" stroke="#0047FF" stroke-opacity="0.5" stroke-width="2"/>
<path d="M732.483 635.876L749.403 647.401C751.168 645.25 773.801 627.041 780.299 621.663" stroke="#0047FF" stroke-opacity="0.5" stroke-width="2"/>
<path d="M804.432 483.908L821.352 495.433C823.117 493.282 845.75 475.073 852.248 469.694" stroke="#0047FF" stroke-opacity="0.5" stroke-width="2"/>
<path d="M804.432 534.564L821.351 546.089C823.117 543.938 845.75 525.729 852.248 520.35" stroke="#0047FF" stroke-opacity="0.5" stroke-width="2"/>
<path d="M804.432 585.22L821.351 596.745C823.117 594.594 845.75 576.385 852.248 571.006" stroke="#0047FF" stroke-opacity="0.5" stroke-width="2"/>
<path d="M804.432 635.876L821.351 647.401C823.117 645.25 845.75 627.041 852.248 621.663" stroke="#0047FF" stroke-opacity="0.5" stroke-width="2"/>
<path d="M876.381 483.908L893.301 495.433C895.066 493.282 917.699 475.073 924.197 469.694" stroke="#0047FF" stroke-opacity="0.5" stroke-width="2"/>
<path d="M876.381 534.564L893.301 546.089C895.066 543.938 917.699 525.729 924.197 520.35" stroke="#0047FF" stroke-opacity="0.5" stroke-width="2"/>
<path d="M876.381 585.22L893.301 596.745C895.066 594.594 917.699 576.385 924.197 571.006" stroke="#0047FF" stroke-opacity="0.5" stroke-width="2"/>
<path d="M876.381 635.876L893.301 647.401C895.066 645.25 917.699 627.041 924.197 621.663" stroke="#0047FF" stroke-opacity="0.5" stroke-width="2"/>
<path d="M1164.18 483.908L1181.1 495.433C1182.86 493.282 1205.49 475.073 1211.99 469.694" stroke="#0047FF" stroke-opacity="0.5" stroke-width="2"/>
<path d="M1164.18 534.564L1181.1 546.089C1182.86 543.938 1205.5 525.729 1211.99 520.35" stroke="#0047FF" stroke-opacity="0.5" stroke-width="2"/>
<path d="M1164.18 585.22L1181.1 596.745C1182.86 594.594 1205.5 576.385 1211.99 571.006" stroke="#0047FF" stroke-opacity="0.5" stroke-width="2"/>
<path d="M1164.18 635.876L1181.1 647.401C1182.86 645.25 1205.5 627.041 1211.99 621.663" stroke="#0047FF" stroke-opacity="0.5" stroke-width="2"/>
<path d="M1236.13 483.908L1253.05 495.433C1254.81 493.282 1277.44 475.073 1283.94 469.694" stroke="#0047FF" stroke-opacity="0.5" stroke-width="2"/>
<path d="M1236.13 534.564L1253.05 546.089C1254.81 543.938 1277.44 525.729 1283.94 520.35" stroke="#0047FF" stroke-opacity="0.5" stroke-width="2"/>
<path d="M1236.13 585.22L1253.05 596.745C1254.81 594.594 1277.44 576.385 1283.94 571.006" stroke="#0047FF" stroke-opacity="0.5" stroke-width="2"/>
<path d="M1236.13 635.876L1253.05 647.401C1254.81 645.25 1277.44 627.041 1283.94 621.663" stroke="#0047FF" stroke-opacity="0.5" stroke-width="2"/>
<path d="M1308.07 483.908L1324.99 495.433C1326.76 493.282 1349.39 475.073 1355.89 469.694" stroke="#0047FF" stroke-opacity="0.5" stroke-width="2"/>
<path d="M1308.07 534.564L1324.99 546.089C1326.76 543.938 1349.39 525.729 1355.89 520.35" stroke="#0047FF" stroke-opacity="0.5" stroke-width="2"/>
<path d="M1308.07 585.22L1324.99 596.745C1326.76 594.594 1349.39 576.385 1355.89 571.006" stroke="#0047FF" stroke-opacity="0.5" stroke-width="2"/>
<path d="M1308.07 635.876L1324.99 647.401C1326.76 645.25 1349.39 627.041 1355.89 621.663" stroke="#0047FF" stroke-opacity="0.5" stroke-width="2"/>
<path d="M732.483 686.532L749.403 698.057C751.168 695.906 773.801 677.697 780.299 672.319" stroke="#0047FF" stroke-opacity="0.5" stroke-width="2"/>
<path d="M732.483 737.188L749.403 748.713C751.168 746.562 773.801 728.353 780.299 722.975" stroke="#0047FF" stroke-opacity="0.5" stroke-width="2"/>
<path d="M732.483 787.845L749.403 799.369C751.168 797.218 773.801 779.009 780.299 773.631" stroke="#0047FF" stroke-opacity="0.5" stroke-width="2"/>
<path d="M732.483 838.501L749.403 850.025C751.168 847.874 773.801 829.665 780.299 824.287" stroke="#0047FF" stroke-opacity="0.5" stroke-width="2"/>
<path d="M732 889.157L748.92 900.681C750.685 898.53 773.318 880.321 779.816 874.943" stroke="#0047FF" stroke-opacity="0.5" stroke-width="2"/>
<path d="M1163.69 889.157L1180.61 900.681C1182.38 898.53 1205.01 880.321 1211.51 874.943" stroke="#0047FF" stroke-opacity="0.5" stroke-width="2"/>
<path d="M804.432 686.532L821.351 698.057C823.117 695.906 845.75 677.697 852.248 672.319" stroke="#0047FF" stroke-opacity="0.5" stroke-width="2"/>
<path d="M804.432 737.188L821.351 748.713C823.117 746.562 845.75 728.353 852.248 722.975" stroke="#0047FF" stroke-opacity="0.5" stroke-width="2"/>
<path d="M804.432 787.845L821.351 799.369C823.117 797.218 845.75 779.009 852.248 773.631" stroke="#0047FF" stroke-opacity="0.5" stroke-width="2"/>
<path d="M804.432 838.501L821.351 850.025C823.117 847.874 845.75 829.665 852.248 824.287" stroke="#0047FF" stroke-opacity="0.5" stroke-width="2"/>
<path d="M803.949 889.157L820.869 900.681C822.634 898.53 845.267 880.321 851.765 874.943" stroke="#0047FF" stroke-opacity="0.5" stroke-width="2"/>
<path d="M1235.64 889.157L1252.56 900.681C1254.33 898.53 1276.96 880.321 1283.46 874.943" stroke="#0047FF" stroke-opacity="0.5" stroke-width="2"/>
<path d="M876.381 686.532L893.301 698.057C895.066 695.906 917.699 677.697 924.197 672.319" stroke="#0047FF" stroke-opacity="0.5" stroke-width="2"/>
<path d="M876.381 737.188L893.301 748.713C895.066 746.562 917.699 728.353 924.197 722.975" stroke="#0047FF" stroke-opacity="0.5" stroke-width="2"/>
<path d="M876.381 787.845L893.301 799.369C895.066 797.218 917.699 779.009 924.197 773.631" stroke="#0047FF" stroke-opacity="0.5" stroke-width="2"/>
<path d="M876.381 838.501L893.301 850.025C895.066 847.874 917.699 829.665 924.197 824.287" stroke="#0047FF" stroke-opacity="0.5" stroke-width="2"/>
<path d="M875.898 889.157L892.818 900.681C894.583 898.53 917.216 880.321 923.714 874.943" stroke="#0047FF" stroke-opacity="0.5" stroke-width="2"/>
<path d="M1307.59 889.157L1324.51 900.681C1326.28 898.53 1348.91 880.321 1355.41 874.943" stroke="#0047FF" stroke-opacity="0.5" stroke-width="2"/>
<path d="M1164.18 686.532L1181.1 698.057C1182.86 695.906 1205.5 677.697 1211.99 672.319" stroke="#0047FF" stroke-opacity="0.5" stroke-width="2"/>
<path d="M1164.18 737.188L1181.1 748.713C1182.86 746.562 1205.5 728.353 1211.99 722.975" stroke="#0047FF" stroke-opacity="0.5" stroke-width="2"/>
<path d="M1164.18 787.845L1181.1 799.369C1182.86 797.218 1205.5 779.009 1211.99 773.631" stroke="#0047FF" stroke-opacity="0.5" stroke-width="2"/>
<path d="M1164.18 838.501L1181.1 850.025C1182.86 847.874 1205.5 829.665 1211.99 824.287" stroke="#0047FF" stroke-opacity="0.5" stroke-width="2"/>
<path d="M1236.13 686.532L1253.05 698.057C1254.81 695.906 1277.44 677.697 1283.94 672.319" stroke="#0047FF" stroke-opacity="0.5" stroke-width="2"/>
<path d="M1236.13 737.188L1253.05 748.713C1254.81 746.562 1277.44 728.353 1283.94 722.975" stroke="#0047FF" stroke-opacity="0.5" stroke-width="2"/>
<path d="M1236.13 787.845L1253.05 799.369C1254.81 797.218 1277.44 779.009 1283.94 773.631" stroke="#0047FF" stroke-opacity="0.5" stroke-width="2"/>
<path d="M1236.13 838.501L1253.05 850.025C1254.81 847.874 1277.44 829.665 1283.94 824.287" stroke="#0047FF" stroke-opacity="0.5" stroke-width="2"/>
<path d="M1308.07 686.532L1324.99 698.057C1326.76 695.906 1349.39 677.697 1355.89 672.319" stroke="#0047FF" stroke-opacity="0.5" stroke-width="2"/>
<path d="M1308.07 737.188L1324.99 748.713C1326.76 746.562 1349.39 728.353 1355.89 722.975" stroke="#0047FF" stroke-opacity="0.5" stroke-width="2"/>
<path d="M1308.07 787.845L1324.99 799.369C1326.76 797.218 1349.39 779.009 1355.89 773.631" stroke="#0047FF" stroke-opacity="0.5" stroke-width="2"/>
<path d="M1308.07 838.501L1324.99 850.025C1326.76 847.874 1349.39 829.665 1355.89 824.287" stroke="#0047FF" stroke-opacity="0.5" stroke-width="2"/>
<path d="M948.33 483.908L965.25 495.433C967.015 493.282 989.648 475.073 996.146 469.694" stroke="#0047FF" stroke-opacity="0.5" stroke-width="2"/>
<path d="M948.33 534.564L965.25 546.089C967.015 543.938 989.648 525.729 996.146 520.35" stroke="#0047FF" stroke-opacity="0.5" stroke-width="2"/>
<path d="M948.33 585.22L965.25 596.745C967.015 594.594 989.648 576.385 996.146 571.006" stroke="#0047FF" stroke-opacity="0.5" stroke-width="2"/>
<path d="M948.33 635.876L965.25 647.401C967.015 645.25 989.648 627.041 996.146 621.663" stroke="#0047FF" stroke-opacity="0.5" stroke-width="2"/>
<path d="M1020.28 483.908L1037.2 495.433C1038.96 493.282 1061.6 475.073 1068.1 469.694" stroke="#0047FF" stroke-opacity="0.5" stroke-width="2"/>
<path d="M1020.28 534.564L1037.2 546.089C1038.96 543.938 1061.6 525.729 1068.1 520.35" stroke="#0047FF" stroke-opacity="0.5" stroke-width="2"/>
<path d="M1020.28 585.22L1037.2 596.745C1038.96 594.594 1061.6 576.385 1068.1 571.006" stroke="#0047FF" stroke-opacity="0.5" stroke-width="2"/>
<path d="M1020.28 635.876L1037.2 647.401C1038.96 645.25 1061.6 627.041 1068.1 621.663" stroke="#0047FF" stroke-opacity="0.5" stroke-width="2"/>
<path d="M1092.23 483.908L1109.15 495.433C1110.91 493.282 1133.55 475.073 1140.04 469.694" stroke="#0047FF" stroke-opacity="0.5" stroke-width="2"/>
<path d="M1092.23 534.564L1109.15 546.089C1110.91 543.938 1133.55 525.729 1140.04 520.35" stroke="#0047FF" stroke-opacity="0.5" stroke-width="2"/>
<path d="M1092.23 585.22L1109.15 596.745C1110.91 594.594 1133.55 576.385 1140.04 571.006" stroke="#0047FF" stroke-opacity="0.5" stroke-width="2"/>
<path d="M1092.23 635.876L1109.15 647.401C1110.91 645.25 1133.55 627.041 1140.04 621.663" stroke="#0047FF" stroke-opacity="0.5" stroke-width="2"/>
<path d="M1380.02 483.908L1396.94 495.433C1398.71 493.282 1421.34 475.073 1427.84 469.694" stroke="#0047FF" stroke-opacity="0.5" stroke-width="2"/>
<path d="M1380.02 534.564L1396.94 546.089C1398.71 543.938 1421.34 525.729 1427.84 520.35" stroke="#0047FF" stroke-opacity="0.5" stroke-width="2"/>
<path d="M1380.02 585.22L1396.94 596.745C1398.71 594.594 1421.34 576.385 1427.84 571.006" stroke="#0047FF" stroke-opacity="0.5" stroke-width="2"/>
<path d="M1380.02 635.876L1396.94 647.401C1398.71 645.25 1421.34 627.041 1427.84 621.663" stroke="#0047FF" stroke-opacity="0.5" stroke-width="2"/>
<path d="M948.33 686.532L965.25 698.057C967.015 695.906 989.648 677.697 996.146 672.319" stroke="#0047FF" stroke-opacity="0.5" stroke-width="2"/>
<path d="M948.33 737.188L965.25 748.713C967.015 746.562 989.648 728.353 996.146 722.975" stroke="#0047FF" stroke-opacity="0.5" stroke-width="2"/>
<path d="M948.33 787.845L965.25 799.369C967.015 797.218 989.648 779.009 996.146 773.631" stroke="#0047FF" stroke-opacity="0.5" stroke-width="2"/>
<path d="M948.33 838.501L965.25 850.025C967.015 847.874 989.648 829.665 996.146 824.287" stroke="#0047FF" stroke-opacity="0.5" stroke-width="2"/>
<path d="M947.847 889.157L964.766 900.681C966.532 898.53 989.165 880.321 995.663 874.943" stroke="#0047FF" stroke-opacity="0.5" stroke-width="2"/>
<path d="M1379.54 889.157L1396.46 900.681C1398.23 898.53 1420.86 880.321 1427.36 874.943" stroke="#0047FF" stroke-opacity="0.5" stroke-width="2"/>
<path d="M1020.28 686.532L1037.2 698.057C1038.96 695.906 1061.6 677.697 1068.1 672.319" stroke="#0047FF" stroke-opacity="0.5" stroke-width="2"/>
<path d="M1020.28 737.188L1037.2 748.713C1038.96 746.562 1061.6 728.353 1068.1 722.975" stroke="#0047FF" stroke-opacity="0.5" stroke-width="2"/>
<path d="M1020.28 787.845L1037.2 799.369C1038.96 797.218 1061.6 779.009 1068.1 773.631" stroke="#0047FF" stroke-opacity="0.5" stroke-width="2"/>
<path d="M1020.28 838.501L1037.2 850.025C1038.96 847.874 1061.6 829.665 1068.1 824.287" stroke="#0047FF" stroke-opacity="0.5" stroke-width="2"/>
<path d="M1019.8 889.157L1036.72 900.681C1038.48 898.53 1061.11 880.321 1067.61 874.943" stroke="#0047FF" stroke-opacity="0.5" stroke-width="2"/>
<path d="M1092.23 686.532L1109.15 698.057C1110.91 695.906 1133.55 677.697 1140.04 672.319" stroke="#0047FF" stroke-opacity="0.5" stroke-width="2"/>
<path d="M1092.23 737.188L1109.15 748.713C1110.91 746.562 1133.55 728.353 1140.04 722.975" stroke="#0047FF" stroke-opacity="0.5" stroke-width="2"/>
<path d="M1092.23 787.845L1109.15 799.369C1110.91 797.218 1133.55 779.009 1140.04 773.631" stroke="#0047FF" stroke-opacity="0.5" stroke-width="2"/>
<path d="M1092.23 838.501L1109.15 850.025C1110.91 847.874 1133.55 829.665 1140.04 824.287" stroke="#0047FF" stroke-opacity="0.5" stroke-width="2"/>
<path d="M1091.74 889.157L1108.66 900.681C1110.43 898.53 1133.06 880.321 1139.56 874.943" stroke="#0047FF" stroke-opacity="0.5" stroke-width="2"/>
<path d="M1380.02 686.532L1396.94 698.057C1398.71 695.906 1421.34 677.697 1427.84 672.319" stroke="#0047FF" stroke-opacity="0.5" stroke-width="2"/>
<path d="M1380.02 737.188L1396.94 748.713C1398.71 746.562 1421.34 728.353 1427.84 722.975" stroke="#0047FF" stroke-opacity="0.5" stroke-width="2"/>
<path d="M1380.02 787.845L1396.94 799.369C1398.71 797.218 1421.34 779.009 1427.84 773.631" stroke="#0047FF" stroke-opacity="0.5" stroke-width="2"/>
<path d="M1380.02 838.501L1396.94 850.025C1398.71 847.874 1421.34 829.665 1427.84 824.287" stroke="#0047FF" stroke-opacity="0.5" stroke-width="2"/>
<path d="M12.483 483.908L29.4026 495.433C31.1681 493.282 53.8011 475.073 60.2992 469.694" stroke="#0047FF" stroke-opacity="0.5" stroke-width="2"/>
<path d="M12.483 534.564L29.4026 546.089C31.1681 543.938 53.8011 525.729 60.2992 520.35" stroke="#0047FF" stroke-opacity="0.5" stroke-width="2"/>
<path d="M12.483 585.22L29.4026 596.745C31.1681 594.594 53.8011 576.385 60.2992 571.006" stroke="#0047FF" stroke-opacity="0.5" stroke-width="2"/>
<path d="M12.483 635.876L29.4026 647.401C31.1681 645.25 53.8011 627.041 60.2992 621.663" stroke="#0047FF" stroke-opacity="0.5" stroke-width="2"/>
<path d="M84.4319 483.908L101.352 495.433C103.117 493.282 125.75 475.073 132.248 469.694" stroke="#0047FF" stroke-opacity="0.5" stroke-width="2"/>
<path d="M84.4319 534.564L101.351 546.089C103.117 543.938 125.75 525.729 132.248 520.35" stroke="#0047FF" stroke-opacity="0.5" stroke-width="2"/>
<path d="M84.4319 585.22L101.351 596.745C103.117 594.594 125.75 576.385 132.248 571.006" stroke="#0047FF" stroke-opacity="0.5" stroke-width="2"/>
<path d="M84.4319 635.876L101.351 647.401C103.117 645.25 125.75 627.041 132.248 621.663" stroke="#0047FF" stroke-opacity="0.5" stroke-width="2"/>
<path d="M156.381 483.908L173.301 495.433C175.066 493.282 197.699 475.073 204.197 469.694" stroke="#0047FF" stroke-opacity="0.5" stroke-width="2"/>
<path d="M156.381 534.564L173.301 546.089C175.066 543.938 197.699 525.729 204.197 520.35" stroke="#0047FF" stroke-opacity="0.5" stroke-width="2"/>
<path d="M156.381 585.22L173.301 596.745C175.066 594.594 197.699 576.385 204.197 571.006" stroke="#0047FF" stroke-opacity="0.5" stroke-width="2"/>
<path d="M156.381 635.876L173.301 647.401C175.066 645.25 197.699 627.041 204.197 621.663" stroke="#0047FF" stroke-opacity="0.5" stroke-width="2"/>
<path d="M444.177 483.908L461.097 495.433C462.862 493.282 485.495 475.073 491.993 469.694" stroke="#0047FF" stroke-opacity="0.5" stroke-width="2"/>
<path d="M444.177 534.564L461.097 546.089C462.862 543.938 485.495 525.729 491.993 520.35" stroke="#0047FF" stroke-opacity="0.5" stroke-width="2"/>
<path d="M444.177 585.22L461.097 596.745C462.862 594.594 485.495 576.385 491.993 571.006" stroke="#0047FF" stroke-opacity="0.5" stroke-width="2"/>
<path d="M444.177 635.876L461.097 647.401C462.862 645.25 485.495 627.041 491.993 621.663" stroke="#0047FF" stroke-opacity="0.5" stroke-width="2"/>
<path d="M516.126 483.908L533.046 495.433C534.811 493.282 557.444 475.073 563.942 469.694" stroke="#0047FF" stroke-opacity="0.5" stroke-width="2"/>
<path d="M516.126 534.564L533.046 546.089C534.811 543.938 557.444 525.729 563.942 520.35" stroke="#0047FF" stroke-opacity="0.5" stroke-width="2"/>
<path d="M516.126 585.22L533.046 596.745C534.811 594.594 557.444 576.385 563.942 571.006" stroke="#0047FF" stroke-opacity="0.5" stroke-width="2"/>
<path d="M516.126 635.876L533.046 647.401C534.811 645.25 557.444 627.041 563.942 621.663" stroke="#0047FF" stroke-opacity="0.5" stroke-width="2"/>
<path d="M588.075 483.908L604.994 495.433C606.76 493.282 629.393 475.073 635.891 469.694" stroke="#0047FF" stroke-opacity="0.5" stroke-width="2"/>
<path d="M588.075 534.564L604.994 546.089C606.76 543.938 629.393 525.729 635.891 520.35" stroke="#0047FF" stroke-opacity="0.5" stroke-width="2"/>
<path d="M588.075 585.22L604.994 596.745C606.76 594.594 629.393 576.385 635.891 571.006" stroke="#0047FF" stroke-opacity="0.5" stroke-width="2"/>
<path d="M588.075 635.876L604.994 647.401C606.76 645.25 629.393 627.041 635.891 621.663" stroke="#0047FF" stroke-opacity="0.5" stroke-width="2"/>
<path d="M12.483 686.532L29.4026 698.057C31.1681 695.906 53.8011 677.697 60.2992 672.319" stroke="#0047FF" stroke-opacity="0.5" stroke-width="2"/>
<path d="M12.483 737.188L29.4026 748.713C31.1681 746.562 53.8011 728.353 60.2992 722.975" stroke="#0047FF" stroke-opacity="0.5" stroke-width="2"/>
<path d="M12.483 787.845L29.4026 799.369C31.1681 797.218 53.8011 779.009 60.2992 773.631" stroke="#0047FF" stroke-opacity="0.5" stroke-width="2"/>
<path d="M12.483 838.501L29.4026 850.025C31.1681 847.874 53.8011 829.665 60.2992 824.287" stroke="#0047FF" stroke-opacity="0.5" stroke-width="2"/>
<path d="M12 889.157L28.9196 900.681C30.6851 898.53 53.3181 880.321 59.8161 874.943" stroke="#0047FF" stroke-opacity="0.5" stroke-width="2"/>
<path d="M443.694 889.157L460.613 900.681C462.379 898.53 485.012 880.321 491.51 874.943" stroke="#0047FF" stroke-opacity="0.5" stroke-width="2"/>
<path d="M84.4319 686.532L101.351 698.057C103.117 695.906 125.75 677.697 132.248 672.319" stroke="#0047FF" stroke-opacity="0.5" stroke-width="2"/>
<path d="M84.4319 737.188L101.351 748.713C103.117 746.562 125.75 728.353 132.248 722.975" stroke="#0047FF" stroke-opacity="0.5" stroke-width="2"/>
<path d="M84.4319 787.845L101.351 799.369C103.117 797.218 125.75 779.009 132.248 773.631" stroke="#0047FF" stroke-opacity="0.5" stroke-width="2"/>
<path d="M84.4319 838.501L101.351 850.025C103.117 847.874 125.75 829.665 132.248 824.287" stroke="#0047FF" stroke-opacity="0.5" stroke-width="2"/>
<path d="M83.9491 889.157L100.869 900.681C102.634 898.53 125.267 880.321 131.765 874.943" stroke="#0047FF" stroke-opacity="0.5" stroke-width="2"/>
<path d="M515.643 889.157L532.562 900.681C534.328 898.53 556.961 880.321 563.459 874.943" stroke="#0047FF" stroke-opacity="0.5" stroke-width="2"/>
<path d="M156.381 686.532L173.301 698.057C175.066 695.906 197.699 677.697 204.197 672.319" stroke="#0047FF" stroke-opacity="0.5" stroke-width="2"/>
<path d="M156.381 737.188L173.301 748.713C175.066 746.562 197.699 728.353 204.197 722.975" stroke="#0047FF" stroke-opacity="0.5" stroke-width="2"/>
<path d="M156.381 787.845L173.301 799.369C175.066 797.218 197.699 779.009 204.197 773.631" stroke="#0047FF" stroke-opacity="0.5" stroke-width="2"/>
<path d="M156.381 838.501L173.301 850.025C175.066 847.874 197.699 829.665 204.197 824.287" stroke="#0047FF" stroke-opacity="0.5" stroke-width="2"/>
<path d="M155.898 889.157L172.818 900.681C174.583 898.53 197.216 880.321 203.714 874.943" stroke="#0047FF" stroke-opacity="0.5" stroke-width="2"/>
<path d="M587.592 889.157L604.511 900.681C606.277 898.53 628.91 880.321 635.408 874.943" stroke="#0047FF" stroke-opacity="0.5" stroke-width="2"/>
<path d="M444.177 686.532L461.097 698.057C462.862 695.906 485.495 677.697 491.993 672.319" stroke="#0047FF" stroke-opacity="0.5" stroke-width="2"/>
<path d="M444.177 737.188L461.097 748.713C462.862 746.562 485.495 728.353 491.993 722.975" stroke="#0047FF" stroke-opacity="0.5" stroke-width="2"/>
<path d="M444.177 787.845L461.097 799.369C462.862 797.218 485.495 779.009 491.993 773.631" stroke="#0047FF" stroke-opacity="0.5" stroke-width="2"/>
<path d="M444.177 838.501L461.097 850.025C462.862 847.874 485.495 829.665 491.993 824.287" stroke="#0047FF" stroke-opacity="0.5" stroke-width="2"/>
<path d="M516.126 686.532L533.046 698.057C534.811 695.906 557.444 677.697 563.942 672.319" stroke="#0047FF" stroke-opacity="0.5" stroke-width="2"/>
<path d="M516.126 737.188L533.046 748.713C534.811 746.562 557.444 728.353 563.942 722.975" stroke="#0047FF" stroke-opacity="0.5" stroke-width="2"/>
<path d="M516.126 787.845L533.046 799.369C534.811 797.218 557.444 779.009 563.942 773.631" stroke="#0047FF" stroke-opacity="0.5" stroke-width="2"/>
<path d="M516.126 838.501L533.046 850.025C534.811 847.874 557.444 829.665 563.942 824.287" stroke="#0047FF" stroke-opacity="0.5" stroke-width="2"/>
<path d="M588.075 686.532L604.994 698.057C606.76 695.906 629.393 677.697 635.891 672.319" stroke="#0047FF" stroke-opacity="0.5" stroke-width="2"/>
<path d="M588.075 737.188L604.994 748.713C606.76 746.562 629.393 728.353 635.891 722.975" stroke="#0047FF" stroke-opacity="0.5" stroke-width="2"/>
<path d="M588.075 787.845L604.994 799.369C606.76 797.218 629.393 779.009 635.891 773.631" stroke="#0047FF" stroke-opacity="0.5" stroke-width="2"/>
<path d="M588.075 838.501L604.994 850.025C606.76 847.874 629.393 829.665 635.891 824.287" stroke="#0047FF" stroke-opacity="0.5" stroke-width="2"/>
<path d="M228.33 483.908L245.25 495.433C247.015 493.282 269.648 475.073 276.146 469.694" stroke="#0047FF" stroke-opacity="0.5" stroke-width="2"/>
<path d="M228.33 534.564L245.25 546.089C247.015 543.938 269.648 525.729 276.146 520.35" stroke="#0047FF" stroke-opacity="0.5" stroke-width="2"/>
<path d="M228.33 585.22L245.25 596.745C247.015 594.594 269.648 576.385 276.146 571.006" stroke="#0047FF" stroke-opacity="0.5" stroke-width="2"/>
<path d="M228.33 635.876L245.25 647.401C247.015 645.25 269.648 627.041 276.146 621.663" stroke="#0047FF" stroke-opacity="0.5" stroke-width="2"/>
<path d="M300.279 483.908L317.199 495.433C318.964 493.282 341.597 475.073 348.095 469.694" stroke="#0047FF" stroke-opacity="0.5" stroke-width="2"/>
<path d="M300.279 534.564L317.198 546.089C318.964 543.938 341.597 525.729 348.095 520.35" stroke="#0047FF" stroke-opacity="0.5" stroke-width="2"/>
<path d="M300.279 585.22L317.198 596.745C318.964 594.594 341.597 576.385 348.095 571.006" stroke="#0047FF" stroke-opacity="0.5" stroke-width="2"/>
<path d="M300.279 635.876L317.198 647.401C318.964 645.25 341.597 627.041 348.095 621.663" stroke="#0047FF" stroke-opacity="0.5" stroke-width="2"/>
<path d="M372.228 483.908L389.147 495.433C390.913 493.282 413.546 475.073 420.044 469.694" stroke="#0047FF" stroke-opacity="0.5" stroke-width="2"/>
<path d="M372.228 534.564L389.147 546.089C390.913 543.938 413.546 525.729 420.044 520.35" stroke="#0047FF" stroke-opacity="0.5" stroke-width="2"/>
<path d="M372.228 585.22L389.147 596.745C390.913 594.594 413.546 576.385 420.044 571.006" stroke="#0047FF" stroke-opacity="0.5" stroke-width="2"/>
<path d="M372.228 635.876L389.147 647.401C390.913 645.25 413.546 627.041 420.044 621.663" stroke="#0047FF" stroke-opacity="0.5" stroke-width="2"/>
<path d="M660.024 483.908L676.943 495.433C678.709 493.282 701.342 475.073 707.84 469.694" stroke="#0047FF" stroke-opacity="0.5" stroke-width="2"/>
<path d="M660.024 534.564L676.943 546.089C678.709 543.938 701.342 525.729 707.84 520.35" stroke="#0047FF" stroke-opacity="0.5" stroke-width="2"/>
<path d="M660.024 585.22L676.943 596.745C678.709 594.594 701.342 576.385 707.84 571.006" stroke="#0047FF" stroke-opacity="0.5" stroke-width="2"/>
<path d="M660.024 635.876L676.943 647.401C678.709 645.25 701.342 627.041 707.84 621.663" stroke="#0047FF" stroke-opacity="0.5" stroke-width="2"/>
<path d="M228.33 686.532L245.25 698.057C247.015 695.906 269.648 677.697 276.146 672.319" stroke="#0047FF" stroke-opacity="0.5" stroke-width="2"/>
<path d="M228.33 737.188L245.25 748.713C247.015 746.562 269.648 728.353 276.146 722.975" stroke="#0047FF" stroke-opacity="0.5" stroke-width="2"/>
<path d="M228.33 787.845L245.25 799.369C247.015 797.218 269.648 779.009 276.146 773.631" stroke="#0047FF" stroke-opacity="0.5" stroke-width="2"/>
<path d="M228.33 838.501L245.25 850.025C247.015 847.874 269.648 829.665 276.146 824.287" stroke="#0047FF" stroke-opacity="0.5" stroke-width="2"/>
<path d="M227.847 889.157L244.766 900.681C246.532 898.53 269.165 880.321 275.663 874.943" stroke="#0047FF" stroke-opacity="0.5" stroke-width="2"/>
<path d="M659.541 889.157L676.46 900.681C678.226 898.53 700.859 880.321 707.357 874.943" stroke="#0047FF" stroke-opacity="0.5" stroke-width="2"/>
<path d="M300.279 686.532L317.198 698.057C318.964 695.906 341.597 677.697 348.095 672.319" stroke="#0047FF" stroke-opacity="0.5" stroke-width="2"/>
<path d="M300.279 737.188L317.198 748.713C318.964 746.562 341.597 728.353 348.095 722.975" stroke="#0047FF" stroke-opacity="0.5" stroke-width="2"/>
<path d="M300.279 787.845L317.198 799.369C318.964 797.218 341.597 779.009 348.095 773.631" stroke="#0047FF" stroke-opacity="0.5" stroke-width="2"/>
<path d="M300.279 838.501L317.198 850.025C318.964 847.874 341.597 829.665 348.095 824.287" stroke="#0047FF" stroke-opacity="0.5" stroke-width="2"/>
<path d="M299.796 889.157L316.715 900.681C318.481 898.53 341.114 880.321 347.612 874.943" stroke="#0047FF" stroke-opacity="0.5" stroke-width="2"/>
<path d="M372.228 686.532L389.147 698.057C390.913 695.906 413.546 677.697 420.044 672.319" stroke="#0047FF" stroke-opacity="0.5" stroke-width="2"/>
<path d="M372.228 737.188L389.147 748.713C390.913 746.562 413.546 728.353 420.044 722.975" stroke="#0047FF" stroke-opacity="0.5" stroke-width="2"/>
<path d="M372.228 787.845L389.147 799.369C390.913 797.218 413.546 779.009 420.044 773.631" stroke="#0047FF" stroke-opacity="0.5" stroke-width="2"/>
<path d="M372.228 838.501L389.147 850.025C390.913 847.874 413.546 829.665 420.044 824.287" stroke="#0047FF" stroke-opacity="0.5" stroke-width="2"/>
<path d="M371.745 889.157L388.665 900.681C390.43 898.53 413.063 880.321 419.561 874.943" stroke="#0047FF" stroke-opacity="0.5" stroke-width="2"/>
<path d="M660.024 686.532L676.943 698.057C678.709 695.906 701.342 677.697 707.84 672.319" stroke="#0047FF" stroke-opacity="0.5" stroke-width="2"/>
<path d="M660.024 737.188L676.943 748.713C678.709 746.562 701.342 728.353 707.84 722.975" stroke="#0047FF" stroke-opacity="0.5" stroke-width="2"/>
<path d="M660.024 787.845L676.943 799.369C678.709 797.218 701.342 779.009 707.84 773.631" stroke="#0047FF" stroke-opacity="0.5" stroke-width="2"/>
<path d="M660.024 838.501L676.943 850.025C678.709 847.874 701.342 829.665 707.84 824.287" stroke="#0047FF" stroke-opacity="0.5" stroke-width="2"/>
</mask>
<g mask="url(#mask0)">
<rect y="-1" width="1440" height="915" fill="#0085FF" fill-opacity="0.5"/>
</g>
<mask id="mask1" mask-type="alpha" maskUnits="userSpaceOnUse" x="820" y="158" width="507" height="598">
<path d="M834.47 340.436C795.789 476.294 873.388 519.3 917.023 523.82C1027.41 531.368 1092.35 427.509 1111.02 374.636C1146.87 239.25 1066.21 199.114 1021.39 195.969C984.98 193.818 944.61 210.563 918.202 227.811M834.47 340.436C846.846 307.518 869.344 259.722 918.202 227.811M834.47 340.436C816.856 397.092 818.133 439.545 829.024 470.751M918.202 227.811C929.012 210.907 957.709 176.275 986.013 172.973M918.202 227.811C931.694 216.085 946.496 206.348 962.518 199.507M986.013 172.973C992.303 170.024 1012.31 163.302 1042.03 160L1193.57 167.666M986.013 172.973L962.518 199.507M1193.57 167.666C1282.11 172.973 1335.18 283.423 1324.68 436.551C1324.68 436.551 1329.15 536.244 1251.95 666.518C1242.52 682.439 1194.75 756.736 1119.28 754.967M1193.57 167.666C1159.14 167.666 1141.88 179.066 1137.56 184.766M1119.28 754.967C1093.42 749.256 1022.93 720.767 1000.75 600.476M1119.28 754.967L967.144 721.357C938.551 707.795 876.468 658.381 856.877 569.224M1000.75 600.476L1027.88 609.321M1000.75 600.476V536.244M1027.88 609.321C1035.15 610.894 1050.88 611.326 1055.59 600.476L1083.31 523.82C1186.07 422.871 1181.95 308.791 1167.04 264.37L1174.41 239.604M1027.88 609.321L1055.59 503.058M1027.88 609.321C1027.88 629.37 1039.92 668.677 1055.59 691.339M1161.14 195.969L1193.57 190.662C1297.83 209.06 1313.69 350.88 1307.2 436.551C1309.55 520.99 1255.88 625.046 1230.72 666.518C1187.39 725.484 1138.37 737.081 1119.28 735.509C1094.81 736.497 1072.84 716.274 1055.59 691.339M1161.14 195.969L1137.56 184.766M1161.14 195.969L1136.17 264.37M1161.14 195.969L1181.78 214.838L1174.41 239.604M1137.56 184.766C1132.05 185.552 1118.1 193.257 1106.31 217.787M1136.17 264.37C1149.49 302.49 1145.51 345.882 1137.56 374.636C1116.46 435.602 1086.9 476.415 1055.59 503.058M1136.17 264.37C1130.15 247.156 1120.61 231.017 1106.31 217.787M1055.59 503.058C1037.47 518.481 1018.76 529.156 1000.75 536.244M829.024 470.751C829.024 475.272 829.024 493.394 829.024 529.717C829.024 566.04 847.593 571.19 856.877 569.224M829.024 470.751C835.362 488.912 844.956 503.263 855.978 514.386M856.877 569.224L855.978 514.386M855.978 514.386C875.218 533.802 898.807 543.384 917.023 546.228C937.231 550.175 967.8 549.22 1000.75 536.244M962.518 199.507C986.404 189.309 995.539 184.766 1021.39 184.766C1065.12 184.766 1087.33 200.232 1106.31 217.787M1055.59 691.339C1085.7 690.338 1157.7 637.979 1204.87 436.551C1210.77 381.712 1217.97 346.687 1174.41 239.604M1021.39 203.635C1063.46 207.762 1138.62 247.741 1102.77 374.636C1086.06 423.971 1025.52 520.99 917.023 514.386C873.584 506.72 798.029 461.199 843.315 340.436C857.664 294.836 913.367 203.635 1021.39 203.635Z" stroke="black" stroke-width="2"/>
</mask>
<g mask="url(#mask1)">
<rect x="810.007" y="151.006" width="523.672" height="609.618" fill="#00A3FF" fill-opacity="0.5"/>
</g>
<mask id="mask2" mask-type="alpha" maskUnits="userSpaceOnUse" x="815" y="158" width="507" height="598">
<path d="M829.47 340.436C790.789 476.294 868.388 519.3 912.023 523.82C1022.41 531.368 1087.35 427.509 1106.02 374.636C1141.87 239.25 1061.21 199.114 1016.39 195.969C979.98 193.818 939.61 210.563 913.202 227.811M829.47 340.436C841.846 307.518 864.344 259.722 913.202 227.811M829.47 340.436C811.856 397.092 813.133 439.545 824.024 470.751M913.202 227.811C924.012 210.907 952.709 176.275 981.013 172.973M913.202 227.811C926.694 216.085 941.496 206.348 957.518 199.507M981.013 172.973C987.303 170.024 1007.31 163.302 1037.03 160L1188.57 167.666M981.013 172.973L957.518 199.507M1188.57 167.666C1277.11 172.973 1330.18 283.423 1319.68 436.551C1319.68 436.551 1324.15 536.244 1246.95 666.518C1237.52 682.439 1189.75 756.736 1114.28 754.967M1188.57 167.666C1154.14 167.666 1136.88 179.066 1132.56 184.766M1114.28 754.967C1088.42 749.256 1017.93 720.767 995.754 600.476M1114.28 754.967L962.144 721.357C933.551 707.795 871.468 658.381 851.877 569.224M995.754 600.476L1022.88 609.321M995.754 600.476V536.244M1022.88 609.321C1030.15 610.894 1045.88 611.326 1050.59 600.476L1078.31 523.82C1181.07 422.871 1176.95 308.791 1162.04 264.37L1169.41 239.604M1022.88 609.321L1050.59 503.058M1022.88 609.321C1022.88 629.37 1034.92 668.677 1050.59 691.339M1156.14 195.969L1188.57 190.662C1292.83 209.06 1308.69 350.88 1302.2 436.551C1304.55 520.99 1250.88 625.046 1225.72 666.518C1182.39 725.484 1133.37 737.081 1114.28 735.509C1089.81 736.497 1067.84 716.274 1050.59 691.339M1156.14 195.969L1132.56 184.766M1156.14 195.969L1131.17 264.37M1156.14 195.969L1176.78 214.838L1169.41 239.604M1132.56 184.766C1127.05 185.552 1113.1 193.257 1101.31 217.787M1131.17 264.37C1144.49 302.49 1140.51 345.882 1132.56 374.636C1111.46 435.602 1081.9 476.415 1050.59 503.058M1131.17 264.37C1125.15 247.156 1115.61 231.017 1101.31 217.787M1050.59 503.058C1032.47 518.481 1013.76 529.156 995.754 536.244M824.024 470.751C824.024 475.272 824.024 493.394 824.024 529.717C824.024 566.04 842.593 571.19 851.877 569.224M824.024 470.751C830.362 488.912 839.956 503.263 850.978 514.386M851.877 569.224L850.978 514.386M850.978 514.386C870.218 533.802 893.807 543.384 912.023 546.228C932.231 550.175 962.8 549.22 995.754 536.244M957.518 199.507C981.404 189.309 990.539 184.766 1016.39 184.766C1060.12 184.766 1082.33 200.232 1101.31 217.787M1050.59 691.339C1080.7 690.338 1152.7 637.979 1199.87 436.551C1205.77 381.712 1212.97 346.687 1169.41 239.604M1016.39 203.635C1058.46 207.762 1133.62 247.741 1097.77 374.636C1081.06 423.971 1020.52 520.99 912.023 514.386C868.584 506.72 793.029 461.199 838.315 340.436C852.664 294.836 908.367 203.635 1016.39 203.635Z" stroke="black" stroke-width="2"/>
</mask>
<g mask="url(#mask2)">
<rect x="805.007" y="151.006" width="523.672" height="609.618" fill="#0047FF" fill-opacity="0.5"/>
</g>
<mask id="mask3" mask-type="alpha" maskUnits="userSpaceOnUse" x="810" y="158" width="507" height="598">
<path d="M824.47 340.436C785.789 476.294 863.388 519.3 907.023 523.82C1017.41 531.368 1082.35 427.509 1101.02 374.636C1136.87 239.25 1056.21 199.114 1011.39 195.969C974.98 193.818 934.61 210.563 908.202 227.811M824.47 340.436C836.846 307.518 859.344 259.722 908.202 227.811M824.47 340.436C806.856 397.092 808.133 439.545 819.024 470.751M908.202 227.811C919.012 210.907 947.709 176.275 976.013 172.973M908.202 227.811C921.694 216.085 936.496 206.348 952.518 199.507M976.013 172.973C982.303 170.024 1002.31 163.302 1032.03 160L1183.57 167.666M976.013 172.973L952.518 199.507M1183.57 167.666C1272.11 172.973 1325.18 283.423 1314.68 436.551C1314.68 436.551 1319.15 536.244 1241.95 666.518C1232.52 682.439 1184.75 756.736 1109.28 754.967M1183.57 167.666C1149.14 167.666 1131.88 179.066 1127.56 184.766M1109.28 754.967C1083.42 749.256 1012.93 720.767 990.754 600.476M1109.28 754.967L957.144 721.357C928.551 707.795 866.468 658.381 846.877 569.224M990.754 600.476L1017.88 609.321M990.754 600.476V536.244M1017.88 609.321C1025.15 610.894 1040.88 611.326 1045.59 600.476L1073.31 523.82C1176.07 422.871 1171.95 308.791 1157.04 264.37L1164.41 239.604M1017.88 609.321L1045.59 503.058M1017.88 609.321C1017.88 629.37 1029.92 668.677 1045.59 691.339M1151.14 195.969L1183.57 190.662C1287.83 209.06 1303 344.5 1299.5 436.551C1299.5 513.5 1245.88 625.046 1220.72 666.518C1177.39 725.484 1128.37 737.081 1109.28 735.509C1084.81 736.497 1062.84 716.274 1045.59 691.339M1151.14 195.969L1127.56 184.766M1151.14 195.969L1126.17 264.37M1151.14 195.969L1171.78 214.838L1164.41 239.604M1127.56 184.766C1122.05 185.552 1108.1 193.257 1096.31 217.787M1126.17 264.37C1139.49 302.49 1135.51 345.882 1127.56 374.636C1106.46 435.602 1076.9 476.415 1045.59 503.058M1126.17 264.37C1120.15 247.156 1110.61 231.017 1096.31 217.787M1045.59 503.058C1027.47 518.481 1008.76 529.156 990.754 536.244M819.024 470.751C819.024 475.272 819.024 493.394 819.024 529.717C819.024 566.04 837.593 571.19 846.877 569.224M819.024 470.751C825.362 488.912 834.956 503.263 845.978 514.386M846.877 569.224L845.978 514.386M845.978 514.386C865.218 533.802 888.807 543.384 907.023 546.228C927.231 550.175 957.8 549.22 990.754 536.244M952.518 199.507C976.404 189.309 985.539 184.766 1011.39 184.766C1055.12 184.766 1077.33 200.232 1096.31 217.787M1045.59 691.339C1075.7 690.338 1147.7 637.979 1194.87 436.551C1200.77 381.712 1207.97 346.687 1164.41 239.604M1011.39 203.635C1053.46 207.762 1128.62 247.741 1092.77 374.636C1076.06 423.971 1015.52 520.99 907.023 514.386C863.584 506.72 788.029 461.199 833.315 340.436C847.664 294.836 903.367 203.635 1011.39 203.635Z" stroke="black" stroke-width="2"/>
</mask>
<g mask="url(#mask3)">
<rect x="800.007" y="151.006" width="523.672" height="609.618" fill="black"/>
</g>
<path d="M117.104 439.432C113.36 439.432 109.76 438.832 106.304 437.632C102.896 436.432 100.256 434.848 98.384 432.88L100.472 428.776C102.296 430.6 104.72 432.088 107.744 433.24C110.768 434.344 113.888 434.896 117.104 434.896C121.616 434.896 125 434.08 127.256 432.448C129.512 430.768 130.64 428.608 130.64 425.968C130.64 423.952 130.016 422.344 128.768 421.144C127.568 419.944 126.08 419.032 124.304 418.408C122.528 417.736 120.056 417.016 116.888 416.248C113.096 415.288 110.072 414.376 107.816 413.512C105.56 412.6 103.616 411.232 101.984 409.408C100.4 407.584 99.608 405.112 99.608 401.992C99.608 399.448 100.28 397.144 101.624 395.08C102.968 392.968 105.032 391.288 107.816 390.04C110.6 388.792 114.056 388.168 118.184 388.168C121.064 388.168 123.872 388.576 126.608 389.392C129.392 390.16 131.792 391.24 133.808 392.632L132.008 396.88C129.896 395.488 127.64 394.456 125.24 393.784C122.84 393.064 120.488 392.704 118.184 392.704C113.768 392.704 110.432 393.568 108.176 395.296C105.968 396.976 104.864 399.16 104.864 401.848C104.864 403.864 105.464 405.496 106.664 406.744C107.912 407.944 109.448 408.88 111.272 409.552C113.144 410.176 115.64 410.872 118.76 411.64C122.456 412.552 125.432 413.464 127.688 414.376C129.992 415.24 131.936 416.584 133.52 418.408C135.104 420.184 135.896 422.608 135.896 425.68C135.896 428.224 135.2 430.552 133.808 432.664C132.464 434.728 130.376 436.384 127.544 437.632C124.712 438.832 121.232 439.432 117.104 439.432ZM146.425 401.128H151.537V439H146.425V401.128ZM149.017 392.848C147.961 392.848 147.073 392.488 146.353 391.768C145.633 391.048 145.273 390.184 145.273 389.176C145.273 388.216 145.633 387.376 146.353 386.656C147.073 385.936 147.961 385.576 149.017 385.576C150.073 385.576 150.961 385.936 151.681 386.656C152.401 387.328 152.761 388.144 152.761 389.104C152.761 390.16 152.401 391.048 151.681 391.768C150.961 392.488 150.073 392.848 149.017 392.848ZM200.825 401.128V434.392C200.825 440.824 199.241 445.576 196.073 448.648C192.953 451.768 188.225 453.328 181.889 453.328C178.385 453.328 175.049 452.8 171.881 451.744C168.761 450.736 166.217 449.32 164.249 447.496L166.841 443.608C168.665 445.24 170.873 446.512 173.465 447.424C176.105 448.336 178.865 448.792 181.745 448.792C186.545 448.792 190.073 447.664 192.329 445.408C194.585 443.2 195.713 439.744 195.713 435.04V430.216C194.129 432.616 192.041 434.44 189.449 435.688C186.905 436.936 184.073 437.56 180.953 437.56C177.401 437.56 174.161 436.792 171.233 435.256C168.353 433.672 166.073 431.488 164.393 428.704C162.761 425.872 161.945 422.68 161.945 419.128C161.945 415.576 162.761 412.408 164.393 409.624C166.073 406.84 168.353 404.68 171.233 403.144C174.113 401.608 177.353 400.84 180.953 400.84C184.169 400.84 187.073 401.488 189.665 402.784C192.257 404.08 194.345 405.952 195.929 408.4V401.128H200.825ZM181.457 433.024C184.193 433.024 186.665 432.448 188.873 431.296C191.081 430.096 192.785 428.44 193.985 426.328C195.233 424.216 195.857 421.816 195.857 419.128C195.857 416.44 195.233 414.064 193.985 412C192.785 409.888 191.081 408.256 188.873 407.104C186.713 405.904 184.241 405.304 181.457 405.304C178.721 405.304 176.249 405.88 174.041 407.032C171.881 408.184 170.177 409.816 168.929 411.928C167.729 414.04 167.129 416.44 167.129 419.128C167.129 421.816 167.729 424.216 168.929 426.328C170.177 428.44 171.881 430.096 174.041 431.296C176.249 432.448 178.721 433.024 181.457 433.024ZM234.416 400.84C239.168 400.84 242.936 402.232 245.72 405.016C248.552 407.752 249.968 411.76 249.968 417.04V439H244.856V417.544C244.856 413.608 243.872 410.608 241.904 408.544C239.936 406.48 237.128 405.448 233.48 405.448C229.4 405.448 226.16 406.672 223.76 409.12C221.408 411.52 220.232 414.856 220.232 419.128V439H215.12V401.128H220.016V408.112C221.408 405.808 223.328 404.032 225.776 402.784C228.272 401.488 231.152 400.84 234.416 400.84ZM316.819 401.128V439H311.922V432.088C310.579 434.392 308.731 436.192 306.379 437.488C304.027 438.736 301.339 439.36 298.315 439.36C293.371 439.36 289.459 437.992 286.579 435.256C283.747 432.472 282.331 428.416 282.331 423.088V401.128H287.443V422.584C287.443 426.568 288.427 429.592 290.395 431.656C292.363 433.72 295.171 434.752 298.819 434.752C302.803 434.752 305.947 433.552 308.251 431.152C310.555 428.704 311.707 425.32 311.707 421V401.128H316.819ZM350.648 400.84C354.2 400.84 357.416 401.656 360.296 403.288C363.176 404.872 365.432 407.128 367.064 410.056C368.696 412.984 369.512 416.32 369.512 420.064C369.512 423.856 368.696 427.216 367.064 430.144C365.432 433.072 363.176 435.352 360.296 436.984C357.464 438.568 354.248 439.36 350.648 439.36C347.576 439.36 344.792 438.736 342.296 437.488C339.848 436.192 337.832 434.32 336.248 431.872V452.968H331.136V401.128H336.032V408.616C337.568 406.12 339.584 404.2 342.08 402.856C344.624 401.512 347.48 400.84 350.648 400.84ZM350.288 434.824C352.928 434.824 355.328 434.224 357.488 433.024C359.648 431.776 361.328 430.024 362.528 427.768C363.776 425.512 364.4 422.944 364.4 420.064C364.4 417.184 363.776 414.64 362.528 412.432C361.328 410.176 359.648 408.424 357.488 407.176C355.328 405.928 352.928 405.304 350.288 405.304C347.6 405.304 345.176 405.928 343.016 407.176C340.904 408.424 339.224 410.176 337.976 412.432C336.776 414.64 336.176 417.184 336.176 420.064C336.176 422.944 336.776 425.512 337.976 427.768C339.224 430.024 340.904 431.776 343.016 433.024C345.176 434.224 347.6 434.824 350.288 434.824ZM112.28 527.36C109.208 527.36 106.256 526.928 103.424 526.064C100.64 525.152 98.456 524.024 96.872 522.68L99.176 518.648C100.76 519.896 102.752 520.928 105.152 521.744C107.552 522.512 110.048 522.896 112.64 522.896C116.096 522.896 118.64 522.368 120.272 521.312C121.952 520.208 122.792 518.672 122.792 516.704C122.792 515.312 122.336 514.232 121.424 513.464C120.512 512.648 119.36 512.048 117.968 511.664C116.576 511.232 114.728 510.824 112.424 510.44C109.352 509.864 106.88 509.288 105.008 508.712C103.136 508.088 101.528 507.056 100.184 505.616C98.888 504.176 98.24 502.184 98.24 499.64C98.24 496.472 99.56 493.88 102.2 491.864C104.84 489.848 108.512 488.84 113.216 488.84C115.664 488.84 118.112 489.176 120.56 489.848C123.008 490.472 125.024 491.312 126.608 492.368L124.376 496.472C121.256 494.312 117.536 493.232 113.216 493.232C109.952 493.232 107.48 493.808 105.8 494.96C104.168 496.112 103.352 497.624 103.352 499.496C103.352 500.936 103.808 502.088 104.72 502.952C105.68 503.816 106.856 504.464 108.248 504.896C109.64 505.28 111.56 505.688 114.008 506.12C117.032 506.696 119.456 507.272 121.28 507.848C123.104 508.424 124.664 509.408 125.96 510.8C127.256 512.192 127.904 514.112 127.904 516.56C127.904 519.872 126.512 522.512 123.728 524.48C120.992 526.4 117.176 527.36 112.28 527.36ZM171.483 489.128V527H166.587V520.088C165.243 522.392 163.395 524.192 161.043 525.488C158.691 526.736 156.003 527.36 152.979 527.36C148.035 527.36 144.123 525.992 141.243 523.256C138.411 520.472 136.995 516.416 136.995 511.088V489.128H142.107V510.584C142.107 514.568 143.091 517.592 145.059 519.656C147.027 521.72 149.835 522.752 153.483 522.752C157.467 522.752 160.611 521.552 162.915 519.152C165.219 516.704 166.371 513.32 166.371 509V489.128H171.483ZM201.496 527.36C197.752 527.36 194.392 526.544 191.416 524.912C188.488 523.28 186.184 521 184.504 518.072C182.824 515.096 181.984 511.76 181.984 508.064C181.984 504.368 182.824 501.056 184.504 498.128C186.184 495.2 188.488 492.92 191.416 491.288C194.392 489.656 197.752 488.84 201.496 488.84C204.76 488.84 207.664 489.488 210.208 490.784C212.8 492.032 214.84 493.88 216.328 496.328L212.512 498.92C211.264 497.048 209.68 495.656 207.76 494.744C205.84 493.784 203.752 493.304 201.496 493.304C198.76 493.304 196.288 493.928 194.08 495.176C191.92 496.376 190.216 498.104 188.968 500.36C187.768 502.616 187.168 505.184 187.168 508.064C187.168 510.992 187.768 513.584 188.968 515.84C190.216 518.048 191.92 519.776 194.08 521.024C196.288 522.224 198.76 522.824 201.496 522.824C203.752 522.824 205.84 522.368 207.76 521.456C209.68 520.544 211.264 519.152 212.512 517.28L216.328 519.872C214.84 522.32 212.8 524.192 210.208 525.488C207.616 526.736 204.712 527.36 201.496 527.36ZM241.433 527.36C237.689 527.36 234.329 526.544 231.353 524.912C228.425 523.28 226.121 521 224.441 518.072C222.761 515.096 221.921 511.76 221.921 508.064C221.921 504.368 222.761 501.056 224.441 498.128C226.121 495.2 228.425 492.92 231.353 491.288C234.329 489.656 237.689 488.84 241.433 488.84C244.697 488.84 247.601 489.488 250.145 490.784C252.737 492.032 254.777 493.88 256.265 496.328L252.449 498.92C251.201 497.048 249.617 495.656 247.697 494.744C245.777 493.784 243.689 493.304 241.433 493.304C238.697 493.304 236.225 493.928 234.017 495.176C231.857 496.376 230.153 498.104 228.905 500.36C227.705 502.616 227.105 505.184 227.105 508.064C227.105 510.992 227.705 513.584 228.905 515.84C230.153 518.048 231.857 519.776 234.017 521.024C236.225 522.224 238.697 522.824 241.433 522.824C243.689 522.824 245.777 522.368 247.697 521.456C249.617 520.544 251.201 519.152 252.449 517.28L256.265 519.872C254.777 522.32 252.737 524.192 250.145 525.488C247.553 526.736 244.649 527.36 241.433 527.36ZM298.651 509.648H266.971C267.259 513.584 268.771 516.776 271.507 519.224C274.243 521.624 277.699 522.824 281.875 522.824C284.227 522.824 286.387 522.416 288.355 521.6C290.323 520.736 292.027 519.488 293.467 517.856L296.347 521.168C294.667 523.184 292.555 524.72 290.011 525.776C287.515 526.832 284.755 527.36 281.731 527.36C277.843 527.36 274.387 526.544 271.363 524.912C268.387 523.232 266.059 520.928 264.379 518C262.699 515.072 261.859 511.76 261.859 508.064C261.859 504.368 262.651 501.056 264.235 498.128C265.867 495.2 268.075 492.92 270.859 491.288C273.691 489.656 276.859 488.84 280.363 488.84C283.867 488.84 287.011 489.656 289.795 491.288C292.579 492.92 294.763 495.2 296.347 498.128C297.931 501.008 298.723 504.32 298.723 508.064L298.651 509.648ZM280.363 493.232C276.715 493.232 273.643 494.408 271.147 496.76C268.699 499.064 267.307 502.088 266.971 505.832H293.827C293.491 502.088 292.075 499.064 289.579 496.76C287.131 494.408 284.059 493.232 280.363 493.232ZM319.28 527.36C316.208 527.36 313.256 526.928 310.424 526.064C307.64 525.152 305.456 524.024 303.872 522.68L306.176 518.648C307.76 519.896 309.752 520.928 312.152 521.744C314.552 522.512 317.048 522.896 319.64 522.896C323.096 522.896 325.64 522.368 327.272 521.312C328.952 520.208 329.792 518.672 329.792 516.704C329.792 515.312 329.336 514.232 328.424 513.464C327.512 512.648 326.36 512.048 324.968 511.664C323.576 511.232 321.728 510.824 319.424 510.44C316.352 509.864 313.88 509.288 312.008 508.712C310.136 508.088 308.528 507.056 307.184 505.616C305.888 504.176 305.24 502.184 305.24 499.64C305.24 496.472 306.56 493.88 309.2 491.864C311.84 489.848 315.512 488.84 320.216 488.84C322.664 488.84 325.112 489.176 327.56 489.848C330.008 490.472 332.024 491.312 333.608 492.368L331.376 496.472C328.256 494.312 324.536 493.232 320.216 493.232C316.952 493.232 314.48 493.808 312.8 494.96C311.168 496.112 310.352 497.624 310.352 499.496C310.352 500.936 310.808 502.088 311.72 502.952C312.68 503.816 313.856 504.464 315.248 504.896C316.64 505.28 318.56 505.688 321.008 506.12C324.032 506.696 326.456 507.272 328.28 507.848C330.104 508.424 331.664 509.408 332.96 510.8C334.256 512.192 334.904 514.112 334.904 516.56C334.904 519.872 333.512 522.512 330.728 524.48C327.992 526.4 324.176 527.36 319.28 527.36ZM354.507 527.36C351.435 527.36 348.483 526.928 345.651 526.064C342.867 525.152 340.683 524.024 339.099 522.68L341.403 518.648C342.987 519.896 344.979 520.928 347.379 521.744C349.779 522.512 352.275 522.896 354.867 522.896C358.323 522.896 360.867 522.368 362.499 521.312C364.179 520.208 365.019 518.672 365.019 516.704C365.019 515.312 364.563 514.232 363.651 513.464C362.739 512.648 361.587 512.048 360.195 511.664C358.803 511.232 356.955 510.824 354.651 510.44C351.579 509.864 349.107 509.288 347.235 508.712C345.363 508.088 343.755 507.056 342.411 505.616C341.115 504.176 340.467 502.184 340.467 499.64C340.467 496.472 341.787 493.88 344.427 491.864C347.067 489.848 350.739 488.84 355.443 488.84C357.891 488.84 360.339 489.176 362.787 489.848C365.235 490.472 367.251 491.312 368.835 492.368L366.603 496.472C363.483 494.312 359.763 493.232 355.443 493.232C352.179 493.232 349.707 493.808 348.027 494.96C346.395 496.112 345.579 497.624 345.579 499.496C345.579 500.936 346.035 502.088 346.947 502.952C347.907 503.816 349.083 504.464 350.475 504.896C351.867 505.28 353.787 505.688 356.235 506.12C359.259 506.696 361.683 507.272 363.507 507.848C365.331 508.424 366.891 509.408 368.187 510.8C369.483 512.192 370.131 514.112 370.131 516.56C370.131 519.872 368.739 522.512 365.955 524.48C363.219 526.4 359.403 527.36 354.507 527.36ZM392.109 477.536C389.901 477.536 388.221 478.136 387.069 479.336C385.965 480.536 385.413 482.312 385.413 484.664V489.128H397.077V493.448H385.557V527H380.445V493.448H373.677V489.128H380.445V484.448C380.445 480.992 381.429 478.256 383.397 476.24C385.413 474.224 388.245 473.216 391.893 473.216C393.333 473.216 394.725 473.432 396.069 473.864C397.413 474.248 398.541 474.824 399.453 475.592L397.725 479.408C396.237 478.16 394.365 477.536 392.109 477.536ZM438.108 489.128V527H433.212V520.088C431.868 522.392 430.02 524.192 427.668 525.488C425.316 526.736 422.628 527.36 419.604 527.36C414.66 527.36 410.748 525.992 407.868 523.256C405.036 520.472 403.62 516.416 403.62 511.088V489.128H408.732V510.584C408.732 514.568 409.716 517.592 411.684 519.656C413.652 521.72 416.46 522.752 420.108 522.752C424.092 522.752 427.236 521.552 429.54 519.152C431.844 516.704 432.996 513.32 432.996 509V489.128H438.108ZM452.425 473.576H457.537V527H452.425V473.576ZM470.969 476.6H477.017L475.937 511.88H471.977L470.969 476.6ZM473.993 527.36C472.937 527.36 472.025 527 471.257 526.28C470.537 525.512 470.177 524.624 470.177 523.616C470.177 522.56 470.537 521.696 471.257 521.024C471.977 520.304 472.889 519.944 473.993 519.944C475.049 519.944 475.937 520.304 476.657 521.024C477.377 521.696 477.737 522.56 477.737 523.616C477.737 524.624 477.377 525.512 476.657 526.28C475.937 527 475.049 527.36 473.993 527.36Z" fill="black"/>
</svg>
