<svg width="1440" height="914" viewBox="0 0 1440 914" fill="none" xmlns="http://www.w3.org/2000/svg">
<rect width="1440" height="914" fill="white"/>
<mask id="mask0" mask-type="alpha" maskUnits="userSpaceOnUse" x="11" y="11" width="1418" height="892">
<path d="M12.483 26.9082L29.4026 38.4329C31.1681 36.2816 53.8011 18.0726 60.2992 12.6945" stroke="#0047FF" stroke-opacity="0.5" stroke-width="2"/>
<path d="M12.483 77.5642L29.4026 89.0889C31.1681 86.9376 53.8011 68.7286 60.2992 63.3505" stroke="#0047FF" stroke-opacity="0.5" stroke-width="2"/>
<path d="M12.483 128.22L29.4026 139.745C31.1681 137.594 53.8011 119.385 60.2992 114.007" stroke="#0047FF" stroke-opacity="0.5" stroke-width="2"/>
<path d="M12.483 178.876L29.4026 190.401C31.1681 188.25 53.8011 170.041 60.2992 164.663" stroke="#0047FF" stroke-opacity="0.5" stroke-width="2"/>
<path d="M84.4319 26.9082L101.352 38.4329C103.117 36.2816 125.75 18.0726 132.248 12.6945" stroke="#0047FF" stroke-opacity="0.5" stroke-width="2"/>
<path d="M84.4319 77.5642L101.351 89.0889C103.117 86.9376 125.75 68.7286 132.248 63.3505" stroke="#0047FF" stroke-opacity="0.5" stroke-width="2"/>
<path d="M84.4319 128.22L101.351 139.745C103.117 137.594 125.75 119.385 132.248 114.007" stroke="#0047FF" stroke-opacity="0.5" stroke-width="2"/>
<path d="M84.4319 178.876L101.351 190.401C103.117 188.25 125.75 170.041 132.248 164.663" stroke="#0047FF" stroke-opacity="0.5" stroke-width="2"/>
<path d="M156.381 26.9082L173.301 38.4329C175.066 36.2816 197.699 18.0726 204.197 12.6945" stroke="#0047FF" stroke-opacity="0.5" stroke-width="2"/>
<path d="M156.381 77.5642L173.301 89.0889C175.066 86.9376 197.699 68.7286 204.197 63.3505" stroke="#0047FF" stroke-opacity="0.5" stroke-width="2"/>
<path d="M156.381 128.22L173.301 139.745C175.066 137.594 197.699 119.385 204.197 114.007" stroke="#0047FF" stroke-opacity="0.5" stroke-width="2"/>
<path d="M156.381 178.876L173.301 190.401C175.066 188.25 197.699 170.041 204.197 164.663" stroke="#0047FF" stroke-opacity="0.5" stroke-width="2"/>
<path d="M444.177 26.9082L461.097 38.4329C462.862 36.2816 485.495 18.0726 491.993 12.6945" stroke="#0047FF" stroke-opacity="0.5" stroke-width="2"/>
<path d="M444.177 77.5642L461.097 89.0889C462.862 86.9376 485.495 68.7286 491.993 63.3505" stroke="#0047FF" stroke-opacity="0.5" stroke-width="2"/>
<path d="M444.177 128.22L461.097 139.745C462.862 137.594 485.495 119.385 491.993 114.007" stroke="#0047FF" stroke-opacity="0.5" stroke-width="2"/>
<path d="M444.177 178.876L461.097 190.401C462.862 188.25 485.495 170.041 491.993 164.663" stroke="#0047FF" stroke-opacity="0.5" stroke-width="2"/>
<path d="M516.126 26.9082L533.046 38.4329C534.811 36.2816 557.444 18.0726 563.942 12.6945" stroke="#0047FF" stroke-opacity="0.5" stroke-width="2"/>
<path d="M516.126 77.5642L533.046 89.0889C534.811 86.9376 557.444 68.7286 563.942 63.3505" stroke="#0047FF" stroke-opacity="0.5" stroke-width="2"/>
<path d="M516.126 128.22L533.046 139.745C534.811 137.594 557.444 119.385 563.942 114.007" stroke="#0047FF" stroke-opacity="0.5" stroke-width="2"/>
<path d="M516.126 178.876L533.046 190.401C534.811 188.25 557.444 170.041 563.942 164.663" stroke="#0047FF" stroke-opacity="0.5" stroke-width="2"/>
<path d="M588.075 26.9082L604.994 38.4329C606.76 36.2816 629.393 18.0726 635.891 12.6945" stroke="#0047FF" stroke-opacity="0.5" stroke-width="2"/>
<path d="M588.075 77.5642L604.994 89.0889C606.76 86.9376 629.393 68.7286 635.891 63.3505" stroke="#0047FF" stroke-opacity="0.5" stroke-width="2"/>
<path d="M588.075 128.22L604.994 139.745C606.76 137.594 629.393 119.385 635.891 114.007" stroke="#0047FF" stroke-opacity="0.5" stroke-width="2"/>
<path d="M588.075 178.876L604.994 190.401C606.76 188.25 629.393 170.041 635.891 164.663" stroke="#0047FF" stroke-opacity="0.5" stroke-width="2"/>
<path d="M12.483 229.532L29.4026 241.057C31.1681 238.906 53.8011 220.697 60.2992 215.319" stroke="#0047FF" stroke-opacity="0.5" stroke-width="2"/>
<path d="M12.483 280.188L29.4026 291.713C31.1681 289.562 53.8011 271.353 60.2992 265.975" stroke="#0047FF" stroke-opacity="0.5" stroke-width="2"/>
<path d="M12.483 330.845L29.4026 342.369C31.1681 340.218 53.8011 322.009 60.2992 316.631" stroke="#0047FF" stroke-opacity="0.5" stroke-width="2"/>
<path d="M12.483 381.501L29.4026 393.025C31.1681 390.874 53.8011 372.665 60.2992 367.287" stroke="#0047FF" stroke-opacity="0.5" stroke-width="2"/>
<path d="M12 432.157L28.9196 443.681C30.6851 441.53 53.3181 423.321 59.8161 417.943" stroke="#0047FF" stroke-opacity="0.5" stroke-width="2"/>
<path d="M443.694 432.157L460.613 443.681C462.379 441.53 485.012 423.321 491.51 417.943" stroke="#0047FF" stroke-opacity="0.5" stroke-width="2"/>
<path d="M84.4319 229.532L101.351 241.057C103.117 238.906 125.75 220.697 132.248 215.319" stroke="#0047FF" stroke-opacity="0.5" stroke-width="2"/>
<path d="M84.4319 280.188L101.351 291.713C103.117 289.562 125.75 271.353 132.248 265.975" stroke="#0047FF" stroke-opacity="0.5" stroke-width="2"/>
<path d="M84.4319 330.845L101.351 342.369C103.117 340.218 125.75 322.009 132.248 316.631" stroke="#0047FF" stroke-opacity="0.5" stroke-width="2"/>
<path d="M84.4319 381.501L101.351 393.025C103.117 390.874 125.75 372.665 132.248 367.287" stroke="#0047FF" stroke-opacity="0.5" stroke-width="2"/>
<path d="M83.9491 432.157L100.869 443.681C102.634 441.53 125.267 423.321 131.765 417.943" stroke="#0047FF" stroke-opacity="0.5" stroke-width="2"/>
<path d="M515.643 432.157L532.562 443.681C534.328 441.53 556.961 423.321 563.459 417.943" stroke="#0047FF" stroke-opacity="0.5" stroke-width="2"/>
<path d="M156.381 229.532L173.301 241.057C175.066 238.906 197.699 220.697 204.197 215.319" stroke="#0047FF" stroke-opacity="0.5" stroke-width="2"/>
<path d="M156.381 280.188L173.301 291.713C175.066 289.562 197.699 271.353 204.197 265.975" stroke="#0047FF" stroke-opacity="0.5" stroke-width="2"/>
<path d="M156.381 330.845L173.301 342.369C175.066 340.218 197.699 322.009 204.197 316.631" stroke="#0047FF" stroke-opacity="0.5" stroke-width="2"/>
<path d="M156.381 381.501L173.301 393.025C175.066 390.874 197.699 372.665 204.197 367.287" stroke="#0047FF" stroke-opacity="0.5" stroke-width="2"/>
<path d="M155.898 432.157L172.818 443.681C174.583 441.53 197.216 423.321 203.714 417.943" stroke="#0047FF" stroke-opacity="0.5" stroke-width="2"/>
<path d="M587.592 432.157L604.511 443.681C606.277 441.53 628.91 423.321 635.408 417.943" stroke="#0047FF" stroke-opacity="0.5" stroke-width="2"/>
<path d="M444.177 229.532L461.097 241.057C462.862 238.906 485.495 220.697 491.993 215.319" stroke="#0047FF" stroke-opacity="0.5" stroke-width="2"/>
<path d="M444.177 280.188L461.097 291.713C462.862 289.562 485.495 271.353 491.993 265.975" stroke="#0047FF" stroke-opacity="0.5" stroke-width="2"/>
<path d="M444.177 330.845L461.097 342.369C462.862 340.218 485.495 322.009 491.993 316.631" stroke="#0047FF" stroke-opacity="0.5" stroke-width="2"/>
<path d="M444.177 381.501L461.097 393.025C462.862 390.874 485.495 372.665 491.993 367.287" stroke="#0047FF" stroke-opacity="0.5" stroke-width="2"/>
<path d="M516.126 229.532L533.046 241.057C534.811 238.906 557.444 220.697 563.942 215.319" stroke="#0047FF" stroke-opacity="0.5" stroke-width="2"/>
<path d="M516.126 280.188L533.046 291.713C534.811 289.562 557.444 271.353 563.942 265.975" stroke="#0047FF" stroke-opacity="0.5" stroke-width="2"/>
<path d="M516.126 330.845L533.046 342.369C534.811 340.218 557.444 322.009 563.942 316.631" stroke="#0047FF" stroke-opacity="0.5" stroke-width="2"/>
<path d="M516.126 381.501L533.046 393.025C534.811 390.874 557.444 372.665 563.942 367.287" stroke="#0047FF" stroke-opacity="0.5" stroke-width="2"/>
<path d="M588.075 229.532L604.994 241.057C606.76 238.906 629.393 220.697 635.891 215.319" stroke="#0047FF" stroke-opacity="0.5" stroke-width="2"/>
<path d="M588.075 280.188L604.994 291.713C606.76 289.562 629.393 271.353 635.891 265.975" stroke="#0047FF" stroke-opacity="0.5" stroke-width="2"/>
<path d="M588.075 330.845L604.994 342.369C606.76 340.218 629.393 322.009 635.891 316.631" stroke="#0047FF" stroke-opacity="0.5" stroke-width="2"/>
<path d="M588.075 381.501L604.994 393.025C606.76 390.874 629.393 372.665 635.891 367.287" stroke="#0047FF" stroke-opacity="0.5" stroke-width="2"/>
<path d="M228.33 26.9082L245.25 38.4329C247.015 36.2816 269.648 18.0726 276.146 12.6945" stroke="#0047FF" stroke-opacity="0.5" stroke-width="2"/>
<path d="M228.33 77.5642L245.25 89.0889C247.015 86.9376 269.648 68.7286 276.146 63.3505" stroke="#0047FF" stroke-opacity="0.5" stroke-width="2"/>
<path d="M228.33 128.22L245.25 139.745C247.015 137.594 269.648 119.385 276.146 114.007" stroke="#0047FF" stroke-opacity="0.5" stroke-width="2"/>
<path d="M228.33 178.876L245.25 190.401C247.015 188.25 269.648 170.041 276.146 164.663" stroke="#0047FF" stroke-opacity="0.5" stroke-width="2"/>
<path d="M300.279 26.9082L317.199 38.4329C318.964 36.2816 341.597 18.0726 348.095 12.6945" stroke="#0047FF" stroke-opacity="0.5" stroke-width="2"/>
<path d="M300.279 77.5642L317.198 89.0889C318.964 86.9376 341.597 68.7286 348.095 63.3505" stroke="#0047FF" stroke-opacity="0.5" stroke-width="2"/>
<path d="M300.279 128.22L317.198 139.745C318.964 137.594 341.597 119.385 348.095 114.007" stroke="#0047FF" stroke-opacity="0.5" stroke-width="2"/>
<path d="M300.279 178.876L317.198 190.401C318.964 188.25 341.597 170.041 348.095 164.663" stroke="#0047FF" stroke-opacity="0.5" stroke-width="2"/>
<path d="M372.228 26.9082L389.147 38.4329C390.913 36.2816 413.546 18.0726 420.044 12.6945" stroke="#0047FF" stroke-opacity="0.5" stroke-width="2"/>
<path d="M372.228 77.5642L389.147 89.0889C390.913 86.9376 413.546 68.7286 420.044 63.3505" stroke="#0047FF" stroke-opacity="0.5" stroke-width="2"/>
<path d="M372.228 128.22L389.147 139.745C390.913 137.594 413.546 119.385 420.044 114.007" stroke="#0047FF" stroke-opacity="0.5" stroke-width="2"/>
<path d="M372.228 178.876L389.147 190.401C390.913 188.25 413.546 170.041 420.044 164.663" stroke="#0047FF" stroke-opacity="0.5" stroke-width="2"/>
<path d="M660.024 26.9082L676.943 38.4329C678.709 36.2816 701.342 18.0726 707.84 12.6945" stroke="#0047FF" stroke-opacity="0.5" stroke-width="2"/>
<path d="M660.024 77.5642L676.943 89.0889C678.709 86.9376 701.342 68.7286 707.84 63.3505" stroke="#0047FF" stroke-opacity="0.5" stroke-width="2"/>
<path d="M660.024 128.22L676.943 139.745C678.709 137.594 701.342 119.385 707.84 114.007" stroke="#0047FF" stroke-opacity="0.5" stroke-width="2"/>
<path d="M660.024 178.876L676.943 190.401C678.709 188.25 701.342 170.041 707.84 164.663" stroke="#0047FF" stroke-opacity="0.5" stroke-width="2"/>
<path d="M228.33 229.532L245.25 241.057C247.015 238.906 269.648 220.697 276.146 215.319" stroke="#0047FF" stroke-opacity="0.5" stroke-width="2"/>
<path d="M228.33 280.188L245.25 291.713C247.015 289.562 269.648 271.353 276.146 265.975" stroke="#0047FF" stroke-opacity="0.5" stroke-width="2"/>
<path d="M228.33 330.845L245.25 342.369C247.015 340.218 269.648 322.009 276.146 316.631" stroke="#0047FF" stroke-opacity="0.5" stroke-width="2"/>
<path d="M228.33 381.501L245.25 393.025C247.015 390.874 269.648 372.665 276.146 367.287" stroke="#0047FF" stroke-opacity="0.5" stroke-width="2"/>
<path d="M227.847 432.157L244.766 443.681C246.532 441.53 269.165 423.321 275.663 417.943" stroke="#0047FF" stroke-opacity="0.5" stroke-width="2"/>
<path d="M659.541 432.157L676.46 443.681C678.226 441.53 700.859 423.321 707.357 417.943" stroke="#0047FF" stroke-opacity="0.5" stroke-width="2"/>
<path d="M300.279 229.532L317.198 241.057C318.964 238.906 341.597 220.697 348.095 215.319" stroke="#0047FF" stroke-opacity="0.5" stroke-width="2"/>
<path d="M300.279 280.188L317.198 291.713C318.964 289.562 341.597 271.353 348.095 265.975" stroke="#0047FF" stroke-opacity="0.5" stroke-width="2"/>
<path d="M300.279 330.845L317.198 342.369C318.964 340.218 341.597 322.009 348.095 316.631" stroke="#0047FF" stroke-opacity="0.5" stroke-width="2"/>
<path d="M300.279 381.501L317.198 393.025C318.964 390.874 341.597 372.665 348.095 367.287" stroke="#0047FF" stroke-opacity="0.5" stroke-width="2"/>
<path d="M299.796 432.157L316.715 443.681C318.481 441.53 341.114 423.321 347.612 417.943" stroke="#0047FF" stroke-opacity="0.5" stroke-width="2"/>
<path d="M372.228 229.532L389.147 241.057C390.913 238.906 413.546 220.697 420.044 215.319" stroke="#0047FF" stroke-opacity="0.5" stroke-width="2"/>
<path d="M372.228 280.188L389.147 291.713C390.913 289.562 413.546 271.353 420.044 265.975" stroke="#0047FF" stroke-opacity="0.5" stroke-width="2"/>
<path d="M372.228 330.845L389.147 342.369C390.913 340.218 413.546 322.009 420.044 316.631" stroke="#0047FF" stroke-opacity="0.5" stroke-width="2"/>
<path d="M372.228 381.501L389.147 393.025C390.913 390.874 413.546 372.665 420.044 367.287" stroke="#0047FF" stroke-opacity="0.5" stroke-width="2"/>
<path d="M371.745 432.157L388.665 443.681C390.43 441.53 413.063 423.321 419.561 417.943" stroke="#0047FF" stroke-opacity="0.5" stroke-width="2"/>
<path d="M660.024 229.532L676.943 241.057C678.709 238.906 701.342 220.697 707.84 215.319" stroke="#0047FF" stroke-opacity="0.5" stroke-width="2"/>
<path d="M660.024 280.188L676.943 291.713C678.709 289.562 701.342 271.353 707.84 265.975" stroke="#0047FF" stroke-opacity="0.5" stroke-width="2"/>
<path d="M660.024 330.845L676.943 342.369C678.709 340.218 701.342 322.009 707.84 316.631" stroke="#0047FF" stroke-opacity="0.5" stroke-width="2"/>
<path d="M660.024 381.501L676.943 393.025C678.709 390.874 701.342 372.665 707.84 367.287" stroke="#0047FF" stroke-opacity="0.5" stroke-width="2"/>
<path d="M732.483 26.9082L749.403 38.4329C751.168 36.2816 773.801 18.0726 780.299 12.6945" stroke="#0047FF" stroke-opacity="0.5" stroke-width="2"/>
<path d="M732.483 77.5642L749.403 89.0889C751.168 86.9376 773.801 68.7286 780.299 63.3505" stroke="#0047FF" stroke-opacity="0.5" stroke-width="2"/>
<path d="M732.483 128.22L749.403 139.745C751.168 137.594 773.801 119.385 780.299 114.007" stroke="#0047FF" stroke-opacity="0.5" stroke-width="2"/>
<path d="M732.483 178.876L749.403 190.401C751.168 188.25 773.801 170.041 780.299 164.663" stroke="#0047FF" stroke-opacity="0.5" stroke-width="2"/>
<path d="M804.432 26.9082L821.352 38.4329C823.117 36.2816 845.75 18.0726 852.248 12.6945" stroke="#0047FF" stroke-opacity="0.5" stroke-width="2"/>
<path d="M804.432 77.5642L821.351 89.0889C823.117 86.9376 845.75 68.7286 852.248 63.3505" stroke="#0047FF" stroke-opacity="0.5" stroke-width="2"/>
<path d="M804.432 128.22L821.351 139.745C823.117 137.594 845.75 119.385 852.248 114.007" stroke="#0047FF" stroke-opacity="0.5" stroke-width="2"/>
<path d="M804.432 178.876L821.351 190.401C823.117 188.25 845.75 170.041 852.248 164.663" stroke="#0047FF" stroke-opacity="0.5" stroke-width="2"/>
<path d="M876.381 26.9082L893.301 38.4329C895.066 36.2816 917.699 18.0726 924.197 12.6945" stroke="#0047FF" stroke-opacity="0.5" stroke-width="2"/>
<path d="M876.381 77.5642L893.301 89.0889C895.066 86.9376 917.699 68.7286 924.197 63.3505" stroke="#0047FF" stroke-opacity="0.5" stroke-width="2"/>
<path d="M876.381 128.22L893.301 139.745C895.066 137.594 917.699 119.385 924.197 114.007" stroke="#0047FF" stroke-opacity="0.5" stroke-width="2"/>
<path d="M876.381 178.876L893.301 190.401C895.066 188.25 917.699 170.041 924.197 164.663" stroke="#0047FF" stroke-opacity="0.5" stroke-width="2"/>
<path d="M1164.18 26.9082L1181.1 38.4329C1182.86 36.2816 1205.49 18.0726 1211.99 12.6945" stroke="#0047FF" stroke-opacity="0.5" stroke-width="2"/>
<path d="M1164.18 77.5642L1181.1 89.0889C1182.86 86.9376 1205.5 68.7286 1211.99 63.3505" stroke="#0047FF" stroke-opacity="0.5" stroke-width="2"/>
<path d="M1164.18 128.22L1181.1 139.745C1182.86 137.594 1205.5 119.385 1211.99 114.007" stroke="#0047FF" stroke-opacity="0.5" stroke-width="2"/>
<path d="M1164.18 178.876L1181.1 190.401C1182.86 188.25 1205.5 170.041 1211.99 164.663" stroke="#0047FF" stroke-opacity="0.5" stroke-width="2"/>
<path d="M1236.13 26.9082L1253.05 38.4329C1254.81 36.2816 1277.44 18.0726 1283.94 12.6945" stroke="#0047FF" stroke-opacity="0.5" stroke-width="2"/>
<path d="M1236.13 77.5642L1253.05 89.0889C1254.81 86.9376 1277.44 68.7286 1283.94 63.3505" stroke="#0047FF" stroke-opacity="0.5" stroke-width="2"/>
<path d="M1236.13 128.22L1253.05 139.745C1254.81 137.594 1277.44 119.385 1283.94 114.007" stroke="#0047FF" stroke-opacity="0.5" stroke-width="2"/>
<path d="M1236.13 178.876L1253.05 190.401C1254.81 188.25 1277.44 170.041 1283.94 164.663" stroke="#0047FF" stroke-opacity="0.5" stroke-width="2"/>
<path d="M1308.07 26.9082L1324.99 38.4329C1326.76 36.2816 1349.39 18.0726 1355.89 12.6945" stroke="#0047FF" stroke-opacity="0.5" stroke-width="2"/>
<path d="M1308.07 77.5642L1324.99 89.0889C1326.76 86.9376 1349.39 68.7286 1355.89 63.3505" stroke="#0047FF" stroke-opacity="0.5" stroke-width="2"/>
<path d="M1308.07 128.22L1324.99 139.745C1326.76 137.594 1349.39 119.385 1355.89 114.007" stroke="#0047FF" stroke-opacity="0.5" stroke-width="2"/>
<path d="M1308.07 178.876L1324.99 190.401C1326.76 188.25 1349.39 170.041 1355.89 164.663" stroke="#0047FF" stroke-opacity="0.5" stroke-width="2"/>
<path d="M732.483 229.532L749.403 241.057C751.168 238.906 773.801 220.697 780.299 215.319" stroke="#0047FF" stroke-opacity="0.5" stroke-width="2"/>
<path d="M732.483 280.188L749.403 291.713C751.168 289.562 773.801 271.353 780.299 265.975" stroke="#0047FF" stroke-opacity="0.5" stroke-width="2"/>
<path d="M732.483 330.845L749.403 342.369C751.168 340.218 773.801 322.009 780.299 316.631" stroke="#0047FF" stroke-opacity="0.5" stroke-width="2"/>
<path d="M732.483 381.501L749.403 393.025C751.168 390.874 773.801 372.665 780.299 367.287" stroke="#0047FF" stroke-opacity="0.5" stroke-width="2"/>
<path d="M732 432.157L748.92 443.681C750.685 441.53 773.318 423.321 779.816 417.943" stroke="#0047FF" stroke-opacity="0.5" stroke-width="2"/>
<path d="M1163.69 432.157L1180.61 443.681C1182.38 441.53 1205.01 423.321 1211.51 417.943" stroke="#0047FF" stroke-opacity="0.5" stroke-width="2"/>
<path d="M804.432 229.532L821.351 241.057C823.117 238.906 845.75 220.697 852.248 215.319" stroke="#0047FF" stroke-opacity="0.5" stroke-width="2"/>
<path d="M804.432 280.188L821.351 291.713C823.117 289.562 845.75 271.353 852.248 265.975" stroke="#0047FF" stroke-opacity="0.5" stroke-width="2"/>
<path d="M804.432 330.845L821.351 342.369C823.117 340.218 845.75 322.009 852.248 316.631" stroke="#0047FF" stroke-opacity="0.5" stroke-width="2"/>
<path d="M804.432 381.501L821.351 393.025C823.117 390.874 845.75 372.665 852.248 367.287" stroke="#0047FF" stroke-opacity="0.5" stroke-width="2"/>
<path d="M803.949 432.157L820.869 443.681C822.634 441.53 845.267 423.321 851.765 417.943" stroke="#0047FF" stroke-opacity="0.5" stroke-width="2"/>
<path d="M1235.64 432.157L1252.56 443.681C1254.33 441.53 1276.96 423.321 1283.46 417.943" stroke="#0047FF" stroke-opacity="0.5" stroke-width="2"/>
<path d="M876.381 229.532L893.301 241.057C895.066 238.906 917.699 220.697 924.197 215.319" stroke="#0047FF" stroke-opacity="0.5" stroke-width="2"/>
<path d="M876.381 280.188L893.301 291.713C895.066 289.562 917.699 271.353 924.197 265.975" stroke="#0047FF" stroke-opacity="0.5" stroke-width="2"/>
<path d="M876.381 330.845L893.301 342.369C895.066 340.218 917.699 322.009 924.197 316.631" stroke="#0047FF" stroke-opacity="0.5" stroke-width="2"/>
<path d="M876.381 381.501L893.301 393.025C895.066 390.874 917.699 372.665 924.197 367.287" stroke="#0047FF" stroke-opacity="0.5" stroke-width="2"/>
<path d="M875.898 432.157L892.818 443.681C894.583 441.53 917.216 423.321 923.714 417.943" stroke="#0047FF" stroke-opacity="0.5" stroke-width="2"/>
<path d="M1307.59 432.157L1324.51 443.681C1326.28 441.53 1348.91 423.321 1355.41 417.943" stroke="#0047FF" stroke-opacity="0.5" stroke-width="2"/>
<path d="M1164.18 229.532L1181.1 241.057C1182.86 238.906 1205.5 220.697 1211.99 215.319" stroke="#0047FF" stroke-opacity="0.5" stroke-width="2"/>
<path d="M1164.18 280.188L1181.1 291.713C1182.86 289.562 1205.5 271.353 1211.99 265.975" stroke="#0047FF" stroke-opacity="0.5" stroke-width="2"/>
<path d="M1164.18 330.845L1181.1 342.369C1182.86 340.218 1205.5 322.009 1211.99 316.631" stroke="#0047FF" stroke-opacity="0.5" stroke-width="2"/>
<path d="M1164.18 381.501L1181.1 393.025C1182.86 390.874 1205.5 372.665 1211.99 367.287" stroke="#0047FF" stroke-opacity="0.5" stroke-width="2"/>
<path d="M1236.13 229.532L1253.05 241.057C1254.81 238.906 1277.44 220.697 1283.94 215.319" stroke="#0047FF" stroke-opacity="0.5" stroke-width="2"/>
<path d="M1236.13 280.188L1253.05 291.713C1254.81 289.562 1277.44 271.353 1283.94 265.975" stroke="#0047FF" stroke-opacity="0.5" stroke-width="2"/>
<path d="M1236.13 330.845L1253.05 342.369C1254.81 340.218 1277.44 322.009 1283.94 316.631" stroke="#0047FF" stroke-opacity="0.5" stroke-width="2"/>
<path d="M1236.13 381.501L1253.05 393.025C1254.81 390.874 1277.44 372.665 1283.94 367.287" stroke="#0047FF" stroke-opacity="0.5" stroke-width="2"/>
<path d="M1308.07 229.532L1324.99 241.057C1326.76 238.906 1349.39 220.697 1355.89 215.319" stroke="#0047FF" stroke-opacity="0.5" stroke-width="2"/>
<path d="M1308.07 280.188L1324.99 291.713C1326.76 289.562 1349.39 271.353 1355.89 265.975" stroke="#0047FF" stroke-opacity="0.5" stroke-width="2"/>
<path d="M1308.07 330.845L1324.99 342.369C1326.76 340.218 1349.39 322.009 1355.89 316.631" stroke="#0047FF" stroke-opacity="0.5" stroke-width="2"/>
<path d="M1308.07 381.501L1324.99 393.025C1326.76 390.874 1349.39 372.665 1355.89 367.287" stroke="#0047FF" stroke-opacity="0.5" stroke-width="2"/>
<path d="M948.33 26.9082L965.25 38.4329C967.015 36.2816 989.648 18.0726 996.146 12.6945" stroke="#0047FF" stroke-opacity="0.5" stroke-width="2"/>
<path d="M948.33 77.5642L965.25 89.0889C967.015 86.9376 989.648 68.7286 996.146 63.3505" stroke="#0047FF" stroke-opacity="0.5" stroke-width="2"/>
<path d="M948.33 128.22L965.25 139.745C967.015 137.594 989.648 119.385 996.146 114.007" stroke="#0047FF" stroke-opacity="0.5" stroke-width="2"/>
<path d="M948.33 178.876L965.25 190.401C967.015 188.25 989.648 170.041 996.146 164.663" stroke="#0047FF" stroke-opacity="0.5" stroke-width="2"/>
<path d="M1020.28 26.9082L1037.2 38.4329C1038.96 36.2816 1061.6 18.0726 1068.1 12.6945" stroke="#0047FF" stroke-opacity="0.5" stroke-width="2"/>
<path d="M1020.28 77.5642L1037.2 89.0889C1038.96 86.9376 1061.6 68.7286 1068.1 63.3505" stroke="#0047FF" stroke-opacity="0.5" stroke-width="2"/>
<path d="M1020.28 128.22L1037.2 139.745C1038.96 137.594 1061.6 119.385 1068.1 114.007" stroke="#0047FF" stroke-opacity="0.5" stroke-width="2"/>
<path d="M1020.28 178.876L1037.2 190.401C1038.96 188.25 1061.6 170.041 1068.1 164.663" stroke="#0047FF" stroke-opacity="0.5" stroke-width="2"/>
<path d="M1092.23 26.9082L1109.15 38.4329C1110.91 36.2816 1133.55 18.0726 1140.04 12.6945" stroke="#0047FF" stroke-opacity="0.5" stroke-width="2"/>
<path d="M1092.23 77.5642L1109.15 89.0889C1110.91 86.9376 1133.55 68.7286 1140.04 63.3505" stroke="#0047FF" stroke-opacity="0.5" stroke-width="2"/>
<path d="M1092.23 128.22L1109.15 139.745C1110.91 137.594 1133.55 119.385 1140.04 114.007" stroke="#0047FF" stroke-opacity="0.5" stroke-width="2"/>
<path d="M1092.23 178.876L1109.15 190.401C1110.91 188.25 1133.55 170.041 1140.04 164.663" stroke="#0047FF" stroke-opacity="0.5" stroke-width="2"/>
<path d="M1380.02 26.9082L1396.94 38.4329C1398.71 36.2816 1421.34 18.0726 1427.84 12.6945" stroke="#0047FF" stroke-opacity="0.5" stroke-width="2"/>
<path d="M1380.02 77.5642L1396.94 89.0889C1398.71 86.9376 1421.34 68.7286 1427.84 63.3505" stroke="#0047FF" stroke-opacity="0.5" stroke-width="2"/>
<path d="M1380.02 128.22L1396.94 139.745C1398.71 137.594 1421.34 119.385 1427.84 114.007" stroke="#0047FF" stroke-opacity="0.5" stroke-width="2"/>
<path d="M1380.02 178.876L1396.94 190.401C1398.71 188.25 1421.34 170.041 1427.84 164.663" stroke="#0047FF" stroke-opacity="0.5" stroke-width="2"/>
<path d="M948.33 229.532L965.25 241.057C967.015 238.906 989.648 220.697 996.146 215.319" stroke="#0047FF" stroke-opacity="0.5" stroke-width="2"/>
<path d="M948.33 280.188L965.25 291.713C967.015 289.562 989.648 271.353 996.146 265.975" stroke="#0047FF" stroke-opacity="0.5" stroke-width="2"/>
<path d="M948.33 330.845L965.25 342.369C967.015 340.218 989.648 322.009 996.146 316.631" stroke="#0047FF" stroke-opacity="0.5" stroke-width="2"/>
<path d="M948.33 381.501L965.25 393.025C967.015 390.874 989.648 372.665 996.146 367.287" stroke="#0047FF" stroke-opacity="0.5" stroke-width="2"/>
<path d="M947.847 432.157L964.766 443.681C966.532 441.53 989.165 423.321 995.663 417.943" stroke="#0047FF" stroke-opacity="0.5" stroke-width="2"/>
<path d="M1379.54 432.157L1396.46 443.681C1398.23 441.53 1420.86 423.321 1427.36 417.943" stroke="#0047FF" stroke-opacity="0.5" stroke-width="2"/>
<path d="M1020.28 229.532L1037.2 241.057C1038.96 238.906 1061.6 220.697 1068.1 215.319" stroke="#0047FF" stroke-opacity="0.5" stroke-width="2"/>
<path d="M1020.28 280.188L1037.2 291.713C1038.96 289.562 1061.6 271.353 1068.1 265.975" stroke="#0047FF" stroke-opacity="0.5" stroke-width="2"/>
<path d="M1020.28 330.845L1037.2 342.369C1038.96 340.218 1061.6 322.009 1068.1 316.631" stroke="#0047FF" stroke-opacity="0.5" stroke-width="2"/>
<path d="M1020.28 381.501L1037.2 393.025C1038.96 390.874 1061.6 372.665 1068.1 367.287" stroke="#0047FF" stroke-opacity="0.5" stroke-width="2"/>
<path d="M1019.8 432.157L1036.72 443.681C1038.48 441.53 1061.11 423.321 1067.61 417.943" stroke="#0047FF" stroke-opacity="0.5" stroke-width="2"/>
<path d="M1092.23 229.532L1109.15 241.057C1110.91 238.906 1133.55 220.697 1140.04 215.319" stroke="#0047FF" stroke-opacity="0.5" stroke-width="2"/>
<path d="M1092.23 280.188L1109.15 291.713C1110.91 289.562 1133.55 271.353 1140.04 265.975" stroke="#0047FF" stroke-opacity="0.5" stroke-width="2"/>
<path d="M1092.23 330.845L1109.15 342.369C1110.91 340.218 1133.55 322.009 1140.04 316.631" stroke="#0047FF" stroke-opacity="0.5" stroke-width="2"/>
<path d="M1092.23 381.501L1109.15 393.025C1110.91 390.874 1133.55 372.665 1140.04 367.287" stroke="#0047FF" stroke-opacity="0.5" stroke-width="2"/>
<path d="M1091.74 432.157L1108.66 443.681C1110.43 441.53 1133.06 423.321 1139.56 417.943" stroke="#0047FF" stroke-opacity="0.5" stroke-width="2"/>
<path d="M1380.02 229.532L1396.94 241.057C1398.71 238.906 1421.34 220.697 1427.84 215.319" stroke="#0047FF" stroke-opacity="0.5" stroke-width="2"/>
<path d="M1380.02 280.188L1396.94 291.713C1398.71 289.562 1421.34 271.353 1427.84 265.975" stroke="#0047FF" stroke-opacity="0.5" stroke-width="2"/>
<path d="M1380.02 330.845L1396.94 342.369C1398.71 340.218 1421.34 322.009 1427.84 316.631" stroke="#0047FF" stroke-opacity="0.5" stroke-width="2"/>
<path d="M1380.02 381.501L1396.94 393.025C1398.71 390.874 1421.34 372.665 1427.84 367.287" stroke="#0047FF" stroke-opacity="0.5" stroke-width="2"/>
<path d="M732.483 483.908L749.403 495.433C751.168 493.282 773.801 475.073 780.299 469.694" stroke="#0047FF" stroke-opacity="0.5" stroke-width="2"/>
<path d="M732.483 534.564L749.403 546.089C751.168 543.938 773.801 525.729 780.299 520.35" stroke="#0047FF" stroke-opacity="0.5" stroke-width="2"/>
<path d="M732.483 585.22L749.403 596.745C751.168 594.594 773.801 576.385 780.299 571.007" stroke="#0047FF" stroke-opacity="0.5" stroke-width="2"/>
<path d="M732.483 635.876L749.403 647.401C751.168 645.25 773.801 627.041 780.299 621.663" stroke="#0047FF" stroke-opacity="0.5" stroke-width="2"/>
<path d="M804.432 483.908L821.352 495.433C823.117 493.282 845.75 475.073 852.248 469.694" stroke="#0047FF" stroke-opacity="0.5" stroke-width="2"/>
<path d="M804.432 534.564L821.351 546.089C823.117 543.938 845.75 525.729 852.248 520.35" stroke="#0047FF" stroke-opacity="0.5" stroke-width="2"/>
<path d="M804.432 585.22L821.351 596.745C823.117 594.594 845.75 576.385 852.248 571.007" stroke="#0047FF" stroke-opacity="0.5" stroke-width="2"/>
<path d="M804.432 635.876L821.351 647.401C823.117 645.25 845.75 627.041 852.248 621.663" stroke="#0047FF" stroke-opacity="0.5" stroke-width="2"/>
<path d="M876.381 483.908L893.301 495.433C895.066 493.282 917.699 475.073 924.197 469.694" stroke="#0047FF" stroke-opacity="0.5" stroke-width="2"/>
<path d="M876.381 534.564L893.301 546.089C895.066 543.938 917.699 525.729 924.197 520.35" stroke="#0047FF" stroke-opacity="0.5" stroke-width="2"/>
<path d="M876.381 585.22L893.301 596.745C895.066 594.594 917.699 576.385 924.197 571.007" stroke="#0047FF" stroke-opacity="0.5" stroke-width="2"/>
<path d="M876.381 635.876L893.301 647.401C895.066 645.25 917.699 627.041 924.197 621.663" stroke="#0047FF" stroke-opacity="0.5" stroke-width="2"/>
<path d="M1164.18 483.908L1181.1 495.433C1182.86 493.282 1205.49 475.073 1211.99 469.694" stroke="#0047FF" stroke-opacity="0.5" stroke-width="2"/>
<path d="M1164.18 534.564L1181.1 546.089C1182.86 543.938 1205.5 525.729 1211.99 520.35" stroke="#0047FF" stroke-opacity="0.5" stroke-width="2"/>
<path d="M1164.18 585.22L1181.1 596.745C1182.86 594.594 1205.5 576.385 1211.99 571.007" stroke="#0047FF" stroke-opacity="0.5" stroke-width="2"/>
<path d="M1164.18 635.876L1181.1 647.401C1182.86 645.25 1205.5 627.041 1211.99 621.663" stroke="#0047FF" stroke-opacity="0.5" stroke-width="2"/>
<path d="M1236.13 483.908L1253.05 495.433C1254.81 493.282 1277.44 475.073 1283.94 469.694" stroke="#0047FF" stroke-opacity="0.5" stroke-width="2"/>
<path d="M1236.13 534.564L1253.05 546.089C1254.81 543.938 1277.44 525.729 1283.94 520.35" stroke="#0047FF" stroke-opacity="0.5" stroke-width="2"/>
<path d="M1236.13 585.22L1253.05 596.745C1254.81 594.594 1277.44 576.385 1283.94 571.007" stroke="#0047FF" stroke-opacity="0.5" stroke-width="2"/>
<path d="M1236.13 635.876L1253.05 647.401C1254.81 645.25 1277.44 627.041 1283.94 621.663" stroke="#0047FF" stroke-opacity="0.5" stroke-width="2"/>
<path d="M1308.07 483.908L1324.99 495.433C1326.76 493.282 1349.39 475.073 1355.89 469.694" stroke="#0047FF" stroke-opacity="0.5" stroke-width="2"/>
<path d="M1308.07 534.564L1324.99 546.089C1326.76 543.938 1349.39 525.729 1355.89 520.35" stroke="#0047FF" stroke-opacity="0.5" stroke-width="2"/>
<path d="M1308.07 585.22L1324.99 596.745C1326.76 594.594 1349.39 576.385 1355.89 571.007" stroke="#0047FF" stroke-opacity="0.5" stroke-width="2"/>
<path d="M1308.07 635.876L1324.99 647.401C1326.76 645.25 1349.39 627.041 1355.89 621.663" stroke="#0047FF" stroke-opacity="0.5" stroke-width="2"/>
<path d="M732.483 686.532L749.403 698.057C751.168 695.906 773.801 677.697 780.299 672.319" stroke="#0047FF" stroke-opacity="0.5" stroke-width="2"/>
<path d="M732.483 737.188L749.403 748.713C751.168 746.562 773.801 728.353 780.299 722.975" stroke="#0047FF" stroke-opacity="0.5" stroke-width="2"/>
<path d="M732.483 787.845L749.403 799.369C751.168 797.218 773.801 779.009 780.299 773.631" stroke="#0047FF" stroke-opacity="0.5" stroke-width="2"/>
<path d="M732.483 838.501L749.403 850.025C751.168 847.874 773.801 829.665 780.299 824.287" stroke="#0047FF" stroke-opacity="0.5" stroke-width="2"/>
<path d="M732 889.157L748.92 900.681C750.685 898.53 773.318 880.321 779.816 874.943" stroke="#0047FF" stroke-opacity="0.5" stroke-width="2"/>
<path d="M1163.69 889.157L1180.61 900.681C1182.38 898.53 1205.01 880.321 1211.51 874.943" stroke="#0047FF" stroke-opacity="0.5" stroke-width="2"/>
<path d="M804.432 686.532L821.351 698.057C823.117 695.906 845.75 677.697 852.248 672.319" stroke="#0047FF" stroke-opacity="0.5" stroke-width="2"/>
<path d="M804.432 737.188L821.351 748.713C823.117 746.562 845.75 728.353 852.248 722.975" stroke="#0047FF" stroke-opacity="0.5" stroke-width="2"/>
<path d="M804.432 787.845L821.351 799.369C823.117 797.218 845.75 779.009 852.248 773.631" stroke="#0047FF" stroke-opacity="0.5" stroke-width="2"/>
<path d="M804.432 838.501L821.351 850.025C823.117 847.874 845.75 829.665 852.248 824.287" stroke="#0047FF" stroke-opacity="0.5" stroke-width="2"/>
<path d="M803.949 889.157L820.869 900.681C822.634 898.53 845.267 880.321 851.765 874.943" stroke="#0047FF" stroke-opacity="0.5" stroke-width="2"/>
<path d="M1235.64 889.157L1252.56 900.681C1254.33 898.53 1276.96 880.321 1283.46 874.943" stroke="#0047FF" stroke-opacity="0.5" stroke-width="2"/>
<path d="M876.381 686.532L893.301 698.057C895.066 695.906 917.699 677.697 924.197 672.319" stroke="#0047FF" stroke-opacity="0.5" stroke-width="2"/>
<path d="M876.381 737.188L893.301 748.713C895.066 746.562 917.699 728.353 924.197 722.975" stroke="#0047FF" stroke-opacity="0.5" stroke-width="2"/>
<path d="M876.381 787.845L893.301 799.369C895.066 797.218 917.699 779.009 924.197 773.631" stroke="#0047FF" stroke-opacity="0.5" stroke-width="2"/>
<path d="M876.381 838.501L893.301 850.025C895.066 847.874 917.699 829.665 924.197 824.287" stroke="#0047FF" stroke-opacity="0.5" stroke-width="2"/>
<path d="M875.898 889.157L892.818 900.681C894.583 898.53 917.216 880.321 923.714 874.943" stroke="#0047FF" stroke-opacity="0.5" stroke-width="2"/>
<path d="M1307.59 889.157L1324.51 900.681C1326.28 898.53 1348.91 880.321 1355.41 874.943" stroke="#0047FF" stroke-opacity="0.5" stroke-width="2"/>
<path d="M1164.18 686.532L1181.1 698.057C1182.86 695.906 1205.5 677.697 1211.99 672.319" stroke="#0047FF" stroke-opacity="0.5" stroke-width="2"/>
<path d="M1164.18 737.188L1181.1 748.713C1182.86 746.562 1205.5 728.353 1211.99 722.975" stroke="#0047FF" stroke-opacity="0.5" stroke-width="2"/>
<path d="M1164.18 787.845L1181.1 799.369C1182.86 797.218 1205.5 779.009 1211.99 773.631" stroke="#0047FF" stroke-opacity="0.5" stroke-width="2"/>
<path d="M1164.18 838.501L1181.1 850.025C1182.86 847.874 1205.5 829.665 1211.99 824.287" stroke="#0047FF" stroke-opacity="0.5" stroke-width="2"/>
<path d="M1236.13 686.532L1253.05 698.057C1254.81 695.906 1277.44 677.697 1283.94 672.319" stroke="#0047FF" stroke-opacity="0.5" stroke-width="2"/>
<path d="M1236.13 737.188L1253.05 748.713C1254.81 746.562 1277.44 728.353 1283.94 722.975" stroke="#0047FF" stroke-opacity="0.5" stroke-width="2"/>
<path d="M1236.13 787.845L1253.05 799.369C1254.81 797.218 1277.44 779.009 1283.94 773.631" stroke="#0047FF" stroke-opacity="0.5" stroke-width="2"/>
<path d="M1236.13 838.501L1253.05 850.025C1254.81 847.874 1277.44 829.665 1283.94 824.287" stroke="#0047FF" stroke-opacity="0.5" stroke-width="2"/>
<path d="M1308.07 686.532L1324.99 698.057C1326.76 695.906 1349.39 677.697 1355.89 672.319" stroke="#0047FF" stroke-opacity="0.5" stroke-width="2"/>
<path d="M1308.07 737.188L1324.99 748.713C1326.76 746.562 1349.39 728.353 1355.89 722.975" stroke="#0047FF" stroke-opacity="0.5" stroke-width="2"/>
<path d="M1308.07 787.845L1324.99 799.369C1326.76 797.218 1349.39 779.009 1355.89 773.631" stroke="#0047FF" stroke-opacity="0.5" stroke-width="2"/>
<path d="M1308.07 838.501L1324.99 850.025C1326.76 847.874 1349.39 829.665 1355.89 824.287" stroke="#0047FF" stroke-opacity="0.5" stroke-width="2"/>
<path d="M948.33 483.908L965.25 495.433C967.015 493.282 989.648 475.073 996.146 469.694" stroke="#0047FF" stroke-opacity="0.5" stroke-width="2"/>
<path d="M948.33 534.564L965.25 546.089C967.015 543.938 989.648 525.729 996.146 520.35" stroke="#0047FF" stroke-opacity="0.5" stroke-width="2"/>
<path d="M948.33 585.22L965.25 596.745C967.015 594.594 989.648 576.385 996.146 571.007" stroke="#0047FF" stroke-opacity="0.5" stroke-width="2"/>
<path d="M948.33 635.876L965.25 647.401C967.015 645.25 989.648 627.041 996.146 621.663" stroke="#0047FF" stroke-opacity="0.5" stroke-width="2"/>
<path d="M1020.28 483.908L1037.2 495.433C1038.96 493.282 1061.6 475.073 1068.1 469.694" stroke="#0047FF" stroke-opacity="0.5" stroke-width="2"/>
<path d="M1020.28 534.564L1037.2 546.089C1038.96 543.938 1061.6 525.729 1068.1 520.35" stroke="#0047FF" stroke-opacity="0.5" stroke-width="2"/>
<path d="M1020.28 585.22L1037.2 596.745C1038.96 594.594 1061.6 576.385 1068.1 571.007" stroke="#0047FF" stroke-opacity="0.5" stroke-width="2"/>
<path d="M1020.28 635.876L1037.2 647.401C1038.96 645.25 1061.6 627.041 1068.1 621.663" stroke="#0047FF" stroke-opacity="0.5" stroke-width="2"/>
<path d="M1092.23 483.908L1109.15 495.433C1110.91 493.282 1133.55 475.073 1140.04 469.694" stroke="#0047FF" stroke-opacity="0.5" stroke-width="2"/>
<path d="M1092.23 534.564L1109.15 546.089C1110.91 543.938 1133.55 525.729 1140.04 520.35" stroke="#0047FF" stroke-opacity="0.5" stroke-width="2"/>
<path d="M1092.23 585.22L1109.15 596.745C1110.91 594.594 1133.55 576.385 1140.04 571.007" stroke="#0047FF" stroke-opacity="0.5" stroke-width="2"/>
<path d="M1092.23 635.876L1109.15 647.401C1110.91 645.25 1133.55 627.041 1140.04 621.663" stroke="#0047FF" stroke-opacity="0.5" stroke-width="2"/>
<path d="M1380.02 483.908L1396.94 495.433C1398.71 493.282 1421.34 475.073 1427.84 469.694" stroke="#0047FF" stroke-opacity="0.5" stroke-width="2"/>
<path d="M1380.02 534.564L1396.94 546.089C1398.71 543.938 1421.34 525.729 1427.84 520.35" stroke="#0047FF" stroke-opacity="0.5" stroke-width="2"/>
<path d="M1380.02 585.22L1396.94 596.745C1398.71 594.594 1421.34 576.385 1427.84 571.007" stroke="#0047FF" stroke-opacity="0.5" stroke-width="2"/>
<path d="M1380.02 635.876L1396.94 647.401C1398.71 645.25 1421.34 627.041 1427.84 621.663" stroke="#0047FF" stroke-opacity="0.5" stroke-width="2"/>
<path d="M948.33 686.532L965.25 698.057C967.015 695.906 989.648 677.697 996.146 672.319" stroke="#0047FF" stroke-opacity="0.5" stroke-width="2"/>
<path d="M948.33 737.188L965.25 748.713C967.015 746.562 989.648 728.353 996.146 722.975" stroke="#0047FF" stroke-opacity="0.5" stroke-width="2"/>
<path d="M948.33 787.845L965.25 799.369C967.015 797.218 989.648 779.009 996.146 773.631" stroke="#0047FF" stroke-opacity="0.5" stroke-width="2"/>
<path d="M948.33 838.501L965.25 850.025C967.015 847.874 989.648 829.665 996.146 824.287" stroke="#0047FF" stroke-opacity="0.5" stroke-width="2"/>
<path d="M947.847 889.157L964.766 900.681C966.532 898.53 989.165 880.321 995.663 874.943" stroke="#0047FF" stroke-opacity="0.5" stroke-width="2"/>
<path d="M1379.54 889.157L1396.46 900.681C1398.23 898.53 1420.86 880.321 1427.36 874.943" stroke="#0047FF" stroke-opacity="0.5" stroke-width="2"/>
<path d="M1020.28 686.532L1037.2 698.057C1038.96 695.906 1061.6 677.697 1068.1 672.319" stroke="#0047FF" stroke-opacity="0.5" stroke-width="2"/>
<path d="M1020.28 737.188L1037.2 748.713C1038.96 746.562 1061.6 728.353 1068.1 722.975" stroke="#0047FF" stroke-opacity="0.5" stroke-width="2"/>
<path d="M1020.28 787.845L1037.2 799.369C1038.96 797.218 1061.6 779.009 1068.1 773.631" stroke="#0047FF" stroke-opacity="0.5" stroke-width="2"/>
<path d="M1020.28 838.501L1037.2 850.025C1038.96 847.874 1061.6 829.665 1068.1 824.287" stroke="#0047FF" stroke-opacity="0.5" stroke-width="2"/>
<path d="M1019.8 889.157L1036.72 900.681C1038.48 898.53 1061.11 880.321 1067.61 874.943" stroke="#0047FF" stroke-opacity="0.5" stroke-width="2"/>
<path d="M1092.23 686.532L1109.15 698.057C1110.91 695.906 1133.55 677.697 1140.04 672.319" stroke="#0047FF" stroke-opacity="0.5" stroke-width="2"/>
<path d="M1092.23 737.188L1109.15 748.713C1110.91 746.562 1133.55 728.353 1140.04 722.975" stroke="#0047FF" stroke-opacity="0.5" stroke-width="2"/>
<path d="M1092.23 787.845L1109.15 799.369C1110.91 797.218 1133.55 779.009 1140.04 773.631" stroke="#0047FF" stroke-opacity="0.5" stroke-width="2"/>
<path d="M1092.23 838.501L1109.15 850.025C1110.91 847.874 1133.55 829.665 1140.04 824.287" stroke="#0047FF" stroke-opacity="0.5" stroke-width="2"/>
<path d="M1091.74 889.157L1108.66 900.681C1110.43 898.53 1133.06 880.321 1139.56 874.943" stroke="#0047FF" stroke-opacity="0.5" stroke-width="2"/>
<path d="M1380.02 686.532L1396.94 698.057C1398.71 695.906 1421.34 677.697 1427.84 672.319" stroke="#0047FF" stroke-opacity="0.5" stroke-width="2"/>
<path d="M1380.02 737.188L1396.94 748.713C1398.71 746.562 1421.34 728.353 1427.84 722.975" stroke="#0047FF" stroke-opacity="0.5" stroke-width="2"/>
<path d="M1380.02 787.845L1396.94 799.369C1398.71 797.218 1421.34 779.009 1427.84 773.631" stroke="#0047FF" stroke-opacity="0.5" stroke-width="2"/>
<path d="M1380.02 838.501L1396.94 850.025C1398.71 847.874 1421.34 829.665 1427.84 824.287" stroke="#0047FF" stroke-opacity="0.5" stroke-width="2"/>
<path d="M12.483 483.908L29.4026 495.433C31.1681 493.282 53.8011 475.073 60.2992 469.694" stroke="#0047FF" stroke-opacity="0.5" stroke-width="2"/>
<path d="M12.483 534.564L29.4026 546.089C31.1681 543.938 53.8011 525.729 60.2992 520.35" stroke="#0047FF" stroke-opacity="0.5" stroke-width="2"/>
<path d="M12.483 585.22L29.4026 596.745C31.1681 594.594 53.8011 576.385 60.2992 571.007" stroke="#0047FF" stroke-opacity="0.5" stroke-width="2"/>
<path d="M12.483 635.876L29.4026 647.401C31.1681 645.25 53.8011 627.041 60.2992 621.663" stroke="#0047FF" stroke-opacity="0.5" stroke-width="2"/>
<path d="M84.4319 483.908L101.352 495.433C103.117 493.282 125.75 475.073 132.248 469.694" stroke="#0047FF" stroke-opacity="0.5" stroke-width="2"/>
<path d="M84.4319 534.564L101.351 546.089C103.117 543.938 125.75 525.729 132.248 520.35" stroke="#0047FF" stroke-opacity="0.5" stroke-width="2"/>
<path d="M84.4319 585.22L101.351 596.745C103.117 594.594 125.75 576.385 132.248 571.007" stroke="#0047FF" stroke-opacity="0.5" stroke-width="2"/>
<path d="M84.4319 635.876L101.351 647.401C103.117 645.25 125.75 627.041 132.248 621.663" stroke="#0047FF" stroke-opacity="0.5" stroke-width="2"/>
<path d="M156.381 483.908L173.301 495.433C175.066 493.282 197.699 475.073 204.197 469.694" stroke="#0047FF" stroke-opacity="0.5" stroke-width="2"/>
<path d="M156.381 534.564L173.301 546.089C175.066 543.938 197.699 525.729 204.197 520.35" stroke="#0047FF" stroke-opacity="0.5" stroke-width="2"/>
<path d="M156.381 585.22L173.301 596.745C175.066 594.594 197.699 576.385 204.197 571.007" stroke="#0047FF" stroke-opacity="0.5" stroke-width="2"/>
<path d="M156.381 635.876L173.301 647.401C175.066 645.25 197.699 627.041 204.197 621.663" stroke="#0047FF" stroke-opacity="0.5" stroke-width="2"/>
<path d="M444.177 483.908L461.097 495.433C462.862 493.282 485.495 475.073 491.993 469.694" stroke="#0047FF" stroke-opacity="0.5" stroke-width="2"/>
<path d="M444.177 534.564L461.097 546.089C462.862 543.938 485.495 525.729 491.993 520.35" stroke="#0047FF" stroke-opacity="0.5" stroke-width="2"/>
<path d="M444.177 585.22L461.097 596.745C462.862 594.594 485.495 576.385 491.993 571.007" stroke="#0047FF" stroke-opacity="0.5" stroke-width="2"/>
<path d="M444.177 635.876L461.097 647.401C462.862 645.25 485.495 627.041 491.993 621.663" stroke="#0047FF" stroke-opacity="0.5" stroke-width="2"/>
<path d="M516.126 483.908L533.046 495.433C534.811 493.282 557.444 475.073 563.942 469.694" stroke="#0047FF" stroke-opacity="0.5" stroke-width="2"/>
<path d="M516.126 534.564L533.046 546.089C534.811 543.938 557.444 525.729 563.942 520.35" stroke="#0047FF" stroke-opacity="0.5" stroke-width="2"/>
<path d="M516.126 585.22L533.046 596.745C534.811 594.594 557.444 576.385 563.942 571.007" stroke="#0047FF" stroke-opacity="0.5" stroke-width="2"/>
<path d="M516.126 635.876L533.046 647.401C534.811 645.25 557.444 627.041 563.942 621.663" stroke="#0047FF" stroke-opacity="0.5" stroke-width="2"/>
<path d="M588.075 483.908L604.994 495.433C606.76 493.282 629.393 475.073 635.891 469.694" stroke="#0047FF" stroke-opacity="0.5" stroke-width="2"/>
<path d="M588.075 534.564L604.994 546.089C606.76 543.938 629.393 525.729 635.891 520.35" stroke="#0047FF" stroke-opacity="0.5" stroke-width="2"/>
<path d="M588.075 585.22L604.994 596.745C606.76 594.594 629.393 576.385 635.891 571.007" stroke="#0047FF" stroke-opacity="0.5" stroke-width="2"/>
<path d="M588.075 635.876L604.994 647.401C606.76 645.25 629.393 627.041 635.891 621.663" stroke="#0047FF" stroke-opacity="0.5" stroke-width="2"/>
<path d="M12.483 686.532L29.4026 698.057C31.1681 695.906 53.8011 677.697 60.2992 672.319" stroke="#0047FF" stroke-opacity="0.5" stroke-width="2"/>
<path d="M12.483 737.188L29.4026 748.713C31.1681 746.562 53.8011 728.353 60.2992 722.975" stroke="#0047FF" stroke-opacity="0.5" stroke-width="2"/>
<path d="M12.483 787.845L29.4026 799.369C31.1681 797.218 53.8011 779.009 60.2992 773.631" stroke="#0047FF" stroke-opacity="0.5" stroke-width="2"/>
<path d="M12.483 838.501L29.4026 850.025C31.1681 847.874 53.8011 829.665 60.2992 824.287" stroke="#0047FF" stroke-opacity="0.5" stroke-width="2"/>
<path d="M12 889.157L28.9196 900.681C30.6851 898.53 53.3181 880.321 59.8161 874.943" stroke="#0047FF" stroke-opacity="0.5" stroke-width="2"/>
<path d="M443.694 889.157L460.613 900.681C462.379 898.53 485.012 880.321 491.51 874.943" stroke="#0047FF" stroke-opacity="0.5" stroke-width="2"/>
<path d="M84.4319 686.532L101.351 698.057C103.117 695.906 125.75 677.697 132.248 672.319" stroke="#0047FF" stroke-opacity="0.5" stroke-width="2"/>
<path d="M84.4319 737.188L101.351 748.713C103.117 746.562 125.75 728.353 132.248 722.975" stroke="#0047FF" stroke-opacity="0.5" stroke-width="2"/>
<path d="M84.4319 787.845L101.351 799.369C103.117 797.218 125.75 779.009 132.248 773.631" stroke="#0047FF" stroke-opacity="0.5" stroke-width="2"/>
<path d="M84.4319 838.501L101.351 850.025C103.117 847.874 125.75 829.665 132.248 824.287" stroke="#0047FF" stroke-opacity="0.5" stroke-width="2"/>
<path d="M83.9491 889.157L100.869 900.681C102.634 898.53 125.267 880.321 131.765 874.943" stroke="#0047FF" stroke-opacity="0.5" stroke-width="2"/>
<path d="M515.643 889.157L532.562 900.681C534.328 898.53 556.961 880.321 563.459 874.943" stroke="#0047FF" stroke-opacity="0.5" stroke-width="2"/>
<path d="M156.381 686.532L173.301 698.057C175.066 695.906 197.699 677.697 204.197 672.319" stroke="#0047FF" stroke-opacity="0.5" stroke-width="2"/>
<path d="M156.381 737.188L173.301 748.713C175.066 746.562 197.699 728.353 204.197 722.975" stroke="#0047FF" stroke-opacity="0.5" stroke-width="2"/>
<path d="M156.381 787.845L173.301 799.369C175.066 797.218 197.699 779.009 204.197 773.631" stroke="#0047FF" stroke-opacity="0.5" stroke-width="2"/>
<path d="M156.381 838.501L173.301 850.025C175.066 847.874 197.699 829.665 204.197 824.287" stroke="#0047FF" stroke-opacity="0.5" stroke-width="2"/>
<path d="M155.898 889.157L172.818 900.681C174.583 898.53 197.216 880.321 203.714 874.943" stroke="#0047FF" stroke-opacity="0.5" stroke-width="2"/>
<path d="M587.592 889.157L604.511 900.681C606.277 898.53 628.91 880.321 635.408 874.943" stroke="#0047FF" stroke-opacity="0.5" stroke-width="2"/>
<path d="M444.177 686.532L461.097 698.057C462.862 695.906 485.495 677.697 491.993 672.319" stroke="#0047FF" stroke-opacity="0.5" stroke-width="2"/>
<path d="M444.177 737.188L461.097 748.713C462.862 746.562 485.495 728.353 491.993 722.975" stroke="#0047FF" stroke-opacity="0.5" stroke-width="2"/>
<path d="M444.177 787.845L461.097 799.369C462.862 797.218 485.495 779.009 491.993 773.631" stroke="#0047FF" stroke-opacity="0.5" stroke-width="2"/>
<path d="M444.177 838.501L461.097 850.025C462.862 847.874 485.495 829.665 491.993 824.287" stroke="#0047FF" stroke-opacity="0.5" stroke-width="2"/>
<path d="M516.126 686.532L533.046 698.057C534.811 695.906 557.444 677.697 563.942 672.319" stroke="#0047FF" stroke-opacity="0.5" stroke-width="2"/>
<path d="M516.126 737.188L533.046 748.713C534.811 746.562 557.444 728.353 563.942 722.975" stroke="#0047FF" stroke-opacity="0.5" stroke-width="2"/>
<path d="M516.126 787.845L533.046 799.369C534.811 797.218 557.444 779.009 563.942 773.631" stroke="#0047FF" stroke-opacity="0.5" stroke-width="2"/>
<path d="M516.126 838.501L533.046 850.025C534.811 847.874 557.444 829.665 563.942 824.287" stroke="#0047FF" stroke-opacity="0.5" stroke-width="2"/>
<path d="M588.075 686.532L604.994 698.057C606.76 695.906 629.393 677.697 635.891 672.319" stroke="#0047FF" stroke-opacity="0.5" stroke-width="2"/>
<path d="M588.075 737.188L604.994 748.713C606.76 746.562 629.393 728.353 635.891 722.975" stroke="#0047FF" stroke-opacity="0.5" stroke-width="2"/>
<path d="M588.075 787.845L604.994 799.369C606.76 797.218 629.393 779.009 635.891 773.631" stroke="#0047FF" stroke-opacity="0.5" stroke-width="2"/>
<path d="M588.075 838.501L604.994 850.025C606.76 847.874 629.393 829.665 635.891 824.287" stroke="#0047FF" stroke-opacity="0.5" stroke-width="2"/>
<path d="M228.33 483.908L245.25 495.433C247.015 493.282 269.648 475.073 276.146 469.694" stroke="#0047FF" stroke-opacity="0.5" stroke-width="2"/>
<path d="M228.33 534.564L245.25 546.089C247.015 543.938 269.648 525.729 276.146 520.35" stroke="#0047FF" stroke-opacity="0.5" stroke-width="2"/>
<path d="M228.33 585.22L245.25 596.745C247.015 594.594 269.648 576.385 276.146 571.007" stroke="#0047FF" stroke-opacity="0.5" stroke-width="2"/>
<path d="M228.33 635.876L245.25 647.401C247.015 645.25 269.648 627.041 276.146 621.663" stroke="#0047FF" stroke-opacity="0.5" stroke-width="2"/>
<path d="M300.279 483.908L317.199 495.433C318.964 493.282 341.597 475.073 348.095 469.694" stroke="#0047FF" stroke-opacity="0.5" stroke-width="2"/>
<path d="M300.279 534.564L317.198 546.089C318.964 543.938 341.597 525.729 348.095 520.35" stroke="#0047FF" stroke-opacity="0.5" stroke-width="2"/>
<path d="M300.279 585.22L317.198 596.745C318.964 594.594 341.597 576.385 348.095 571.007" stroke="#0047FF" stroke-opacity="0.5" stroke-width="2"/>
<path d="M300.279 635.876L317.198 647.401C318.964 645.25 341.597 627.041 348.095 621.663" stroke="#0047FF" stroke-opacity="0.5" stroke-width="2"/>
<path d="M372.228 483.908L389.147 495.433C390.913 493.282 413.546 475.073 420.044 469.694" stroke="#0047FF" stroke-opacity="0.5" stroke-width="2"/>
<path d="M372.228 534.564L389.147 546.089C390.913 543.938 413.546 525.729 420.044 520.35" stroke="#0047FF" stroke-opacity="0.5" stroke-width="2"/>
<path d="M372.228 585.22L389.147 596.745C390.913 594.594 413.546 576.385 420.044 571.007" stroke="#0047FF" stroke-opacity="0.5" stroke-width="2"/>
<path d="M372.228 635.876L389.147 647.401C390.913 645.25 413.546 627.041 420.044 621.663" stroke="#0047FF" stroke-opacity="0.5" stroke-width="2"/>
<path d="M660.024 483.908L676.943 495.433C678.709 493.282 701.342 475.073 707.84 469.694" stroke="#0047FF" stroke-opacity="0.5" stroke-width="2"/>
<path d="M660.024 534.564L676.943 546.089C678.709 543.938 701.342 525.729 707.84 520.35" stroke="#0047FF" stroke-opacity="0.5" stroke-width="2"/>
<path d="M660.024 585.22L676.943 596.745C678.709 594.594 701.342 576.385 707.84 571.007" stroke="#0047FF" stroke-opacity="0.5" stroke-width="2"/>
<path d="M660.024 635.876L676.943 647.401C678.709 645.25 701.342 627.041 707.84 621.663" stroke="#0047FF" stroke-opacity="0.5" stroke-width="2"/>
<path d="M228.33 686.532L245.25 698.057C247.015 695.906 269.648 677.697 276.146 672.319" stroke="#0047FF" stroke-opacity="0.5" stroke-width="2"/>
<path d="M228.33 737.188L245.25 748.713C247.015 746.562 269.648 728.353 276.146 722.975" stroke="#0047FF" stroke-opacity="0.5" stroke-width="2"/>
<path d="M228.33 787.845L245.25 799.369C247.015 797.218 269.648 779.009 276.146 773.631" stroke="#0047FF" stroke-opacity="0.5" stroke-width="2"/>
<path d="M228.33 838.501L245.25 850.025C247.015 847.874 269.648 829.665 276.146 824.287" stroke="#0047FF" stroke-opacity="0.5" stroke-width="2"/>
<path d="M227.847 889.157L244.766 900.681C246.532 898.53 269.165 880.321 275.663 874.943" stroke="#0047FF" stroke-opacity="0.5" stroke-width="2"/>
<path d="M659.541 889.157L676.46 900.681C678.226 898.53 700.859 880.321 707.357 874.943" stroke="#0047FF" stroke-opacity="0.5" stroke-width="2"/>
<path d="M300.279 686.532L317.198 698.057C318.964 695.906 341.597 677.697 348.095 672.319" stroke="#0047FF" stroke-opacity="0.5" stroke-width="2"/>
<path d="M300.279 737.188L317.198 748.713C318.964 746.562 341.597 728.353 348.095 722.975" stroke="#0047FF" stroke-opacity="0.5" stroke-width="2"/>
<path d="M300.279 787.845L317.198 799.369C318.964 797.218 341.597 779.009 348.095 773.631" stroke="#0047FF" stroke-opacity="0.5" stroke-width="2"/>
<path d="M300.279 838.501L317.198 850.025C318.964 847.874 341.597 829.665 348.095 824.287" stroke="#0047FF" stroke-opacity="0.5" stroke-width="2"/>
<path d="M299.796 889.157L316.715 900.681C318.481 898.53 341.114 880.321 347.612 874.943" stroke="#0047FF" stroke-opacity="0.5" stroke-width="2"/>
<path d="M372.228 686.532L389.147 698.057C390.913 695.906 413.546 677.697 420.044 672.319" stroke="#0047FF" stroke-opacity="0.5" stroke-width="2"/>
<path d="M372.228 737.188L389.147 748.713C390.913 746.562 413.546 728.353 420.044 722.975" stroke="#0047FF" stroke-opacity="0.5" stroke-width="2"/>
<path d="M372.228 787.845L389.147 799.369C390.913 797.218 413.546 779.009 420.044 773.631" stroke="#0047FF" stroke-opacity="0.5" stroke-width="2"/>
<path d="M372.228 838.501L389.147 850.025C390.913 847.874 413.546 829.665 420.044 824.287" stroke="#0047FF" stroke-opacity="0.5" stroke-width="2"/>
<path d="M371.745 889.157L388.665 900.681C390.43 898.53 413.063 880.321 419.561 874.943" stroke="#0047FF" stroke-opacity="0.5" stroke-width="2"/>
<path d="M660.024 686.532L676.943 698.057C678.709 695.906 701.342 677.697 707.84 672.319" stroke="#0047FF" stroke-opacity="0.5" stroke-width="2"/>
<path d="M660.024 737.188L676.943 748.713C678.709 746.562 701.342 728.353 707.84 722.975" stroke="#0047FF" stroke-opacity="0.5" stroke-width="2"/>
<path d="M660.024 787.845L676.943 799.369C678.709 797.218 701.342 779.009 707.84 773.631" stroke="#0047FF" stroke-opacity="0.5" stroke-width="2"/>
<path d="M660.024 838.501L676.943 850.025C678.709 847.874 701.342 829.665 707.84 824.287" stroke="#0047FF" stroke-opacity="0.5" stroke-width="2"/>
</mask>
<g mask="url(#mask0)">
<rect y="-1" width="1440" height="915" fill="#0085FF" fill-opacity="0.5"/>
</g>
<mask id="mask1" mask-type="alpha" maskUnits="userSpaceOnUse" x="820" y="158" width="507" height="598">
<path d="M834.47 340.436C795.789 476.294 873.388 519.3 917.023 523.82C1027.41 531.368 1092.35 427.509 1111.02 374.636C1146.87 239.25 1066.21 199.114 1021.39 195.969C984.98 193.818 944.61 210.563 918.202 227.811M834.47 340.436C846.846 307.518 869.344 259.722 918.202 227.811M834.47 340.436C816.856 397.092 818.133 439.545 829.024 470.751M918.202 227.811C929.012 210.907 957.709 176.275 986.013 172.973M918.202 227.811C931.694 216.085 946.496 206.348 962.518 199.507M986.013 172.973C992.303 170.024 1012.31 163.302 1042.03 160L1193.57 167.666M986.013 172.973L962.518 199.507M1193.57 167.666C1282.11 172.973 1335.18 283.423 1324.68 436.551C1324.68 436.551 1329.15 536.244 1251.95 666.518C1242.52 682.439 1194.75 756.736 1119.28 754.967M1193.57 167.666C1159.14 167.666 1141.88 179.066 1137.56 184.766M1119.28 754.967C1093.42 749.256 1022.93 720.767 1000.75 600.476M1119.28 754.967L967.144 721.357C938.551 707.795 876.468 658.381 856.877 569.224M1000.75 600.476L1027.88 609.321M1000.75 600.476V536.244M1027.88 609.321C1035.15 610.894 1050.88 611.326 1055.59 600.476L1083.31 523.82C1186.07 422.871 1181.95 308.791 1167.04 264.37L1174.41 239.604M1027.88 609.321L1055.59 503.058M1027.88 609.321C1027.88 629.37 1039.92 668.677 1055.59 691.339M1161.14 195.969L1193.57 190.662C1297.83 209.06 1313.69 350.88 1307.2 436.551C1309.55 520.99 1255.88 625.046 1230.72 666.518C1187.39 725.484 1138.37 737.081 1119.28 735.509C1094.81 736.497 1072.84 716.274 1055.59 691.339M1161.14 195.969L1137.56 184.766M1161.14 195.969L1136.17 264.37M1161.14 195.969L1181.78 214.838L1174.41 239.604M1137.56 184.766C1132.05 185.552 1118.1 193.257 1106.31 217.787M1136.17 264.37C1149.49 302.49 1145.51 345.882 1137.56 374.636C1116.46 435.602 1086.9 476.415 1055.59 503.058M1136.17 264.37C1130.15 247.156 1120.61 231.017 1106.31 217.787M1055.59 503.058C1037.47 518.481 1018.76 529.156 1000.75 536.244M829.024 470.751C829.024 475.272 829.024 493.394 829.024 529.717C829.024 566.04 847.593 571.19 856.877 569.224M829.024 470.751C835.362 488.912 844.956 503.263 855.978 514.386M856.877 569.224L855.978 514.386M855.978 514.386C875.218 533.802 898.807 543.384 917.023 546.228C937.231 550.175 967.8 549.22 1000.75 536.244M962.518 199.507C986.404 189.309 995.539 184.766 1021.39 184.766C1065.12 184.766 1087.33 200.232 1106.31 217.787M1055.59 691.339C1085.7 690.338 1157.7 637.979 1204.87 436.551C1210.77 381.712 1217.97 346.687 1174.41 239.604M1021.39 203.635C1063.46 207.762 1138.62 247.741 1102.77 374.636C1086.06 423.971 1025.52 520.99 917.023 514.386C873.584 506.72 798.029 461.199 843.315 340.436C857.664 294.836 913.367 203.635 1021.39 203.635Z" stroke="black" stroke-width="2"/>
</mask>
<g mask="url(#mask1)">
<rect x="810.007" y="151.006" width="523.672" height="609.618" fill="#00A3FF" fill-opacity="0.5"/>
</g>
<mask id="mask2" mask-type="alpha" maskUnits="userSpaceOnUse" x="815" y="158" width="507" height="598">
<path d="M829.47 340.436C790.789 476.294 868.388 519.3 912.023 523.82C1022.41 531.368 1087.35 427.509 1106.02 374.636C1141.87 239.25 1061.21 199.114 1016.39 195.969C979.98 193.818 939.61 210.563 913.202 227.811M829.47 340.436C841.846 307.518 864.344 259.722 913.202 227.811M829.47 340.436C811.856 397.092 813.133 439.545 824.024 470.751M913.202 227.811C924.012 210.907 952.709 176.275 981.013 172.973M913.202 227.811C926.694 216.085 941.496 206.348 957.518 199.507M981.013 172.973C987.303 170.024 1007.31 163.302 1037.03 160L1188.57 167.666M981.013 172.973L957.518 199.507M1188.57 167.666C1277.11 172.973 1330.18 283.423 1319.68 436.551C1319.68 436.551 1324.15 536.244 1246.95 666.518C1237.52 682.439 1189.75 756.736 1114.28 754.967M1188.57 167.666C1154.14 167.666 1136.88 179.066 1132.56 184.766M1114.28 754.967C1088.42 749.256 1017.93 720.767 995.754 600.476M1114.28 754.967L962.144 721.357C933.551 707.795 871.468 658.381 851.877 569.224M995.754 600.476L1022.88 609.321M995.754 600.476V536.244M1022.88 609.321C1030.15 610.894 1045.88 611.326 1050.59 600.476L1078.31 523.82C1181.07 422.871 1176.95 308.791 1162.04 264.37L1169.41 239.604M1022.88 609.321L1050.59 503.058M1022.88 609.321C1022.88 629.37 1034.92 668.677 1050.59 691.339M1156.14 195.969L1188.57 190.662C1292.83 209.06 1308.69 350.88 1302.2 436.551C1304.55 520.99 1250.88 625.046 1225.72 666.518C1182.39 725.484 1133.37 737.081 1114.28 735.509C1089.81 736.497 1067.84 716.274 1050.59 691.339M1156.14 195.969L1132.56 184.766M1156.14 195.969L1131.17 264.37M1156.14 195.969L1176.78 214.838L1169.41 239.604M1132.56 184.766C1127.05 185.552 1113.1 193.257 1101.31 217.787M1131.17 264.37C1144.49 302.49 1140.51 345.882 1132.56 374.636C1111.46 435.602 1081.9 476.415 1050.59 503.058M1131.17 264.37C1125.15 247.156 1115.61 231.017 1101.31 217.787M1050.59 503.058C1032.47 518.481 1013.76 529.156 995.754 536.244M824.024 470.751C824.024 475.272 824.024 493.394 824.024 529.717C824.024 566.04 842.593 571.19 851.877 569.224M824.024 470.751C830.362 488.912 839.956 503.263 850.978 514.386M851.877 569.224L850.978 514.386M850.978 514.386C870.218 533.802 893.807 543.384 912.023 546.228C932.231 550.175 962.8 549.22 995.754 536.244M957.518 199.507C981.404 189.309 990.539 184.766 1016.39 184.766C1060.12 184.766 1082.33 200.232 1101.31 217.787M1050.59 691.339C1080.7 690.338 1152.7 637.979 1199.87 436.551C1205.77 381.712 1212.97 346.687 1169.41 239.604M1016.39 203.635C1058.46 207.762 1133.62 247.741 1097.77 374.636C1081.06 423.971 1020.52 520.99 912.023 514.386C868.584 506.72 793.029 461.199 838.315 340.436C852.664 294.836 908.367 203.635 1016.39 203.635Z" stroke="black" stroke-width="2"/>
</mask>
<g mask="url(#mask2)">
<rect x="805.007" y="151.006" width="523.672" height="609.618" fill="#0047FF" fill-opacity="0.5"/>
</g>
<mask id="mask3" mask-type="alpha" maskUnits="userSpaceOnUse" x="810" y="158" width="507" height="598">
<path d="M824.47 340.436C785.789 476.294 863.388 519.3 907.023 523.82C1017.41 531.368 1082.35 427.509 1101.02 374.636C1136.87 239.25 1056.21 199.114 1011.39 195.969C974.98 193.818 934.61 210.563 908.202 227.811M824.47 340.436C836.846 307.518 859.344 259.722 908.202 227.811M824.47 340.436C806.856 397.092 808.133 439.545 819.024 470.751M908.202 227.811C919.012 210.907 947.709 176.275 976.013 172.973M908.202 227.811C921.694 216.085 936.496 206.348 952.518 199.507M976.013 172.973C982.303 170.024 1002.31 163.302 1032.03 160L1183.57 167.666M976.013 172.973L952.518 199.507M1183.57 167.666C1272.11 172.973 1325.18 283.423 1314.68 436.551C1314.68 436.551 1319.15 536.244 1241.95 666.518C1232.52 682.439 1184.75 756.736 1109.28 754.967M1183.57 167.666C1149.14 167.666 1131.88 179.066 1127.56 184.766M1109.28 754.967C1083.42 749.256 1012.93 720.767 990.754 600.476M1109.28 754.967L957.144 721.357C928.551 707.795 866.468 658.381 846.877 569.224M990.754 600.476L1017.88 609.321M990.754 600.476V536.244M1017.88 609.321C1025.15 610.894 1040.88 611.326 1045.59 600.476L1073.31 523.82C1176.07 422.871 1171.95 308.791 1157.04 264.37L1164.41 239.604M1017.88 609.321L1045.59 503.058M1017.88 609.321C1017.88 629.37 1029.92 668.677 1045.59 691.339M1151.14 195.969L1183.57 190.662C1287.83 209.06 1303 344.5 1299.5 436.551C1299.5 513.5 1245.88 625.046 1220.72 666.518C1177.39 725.484 1128.37 737.081 1109.28 735.509C1084.81 736.497 1062.84 716.274 1045.59 691.339M1151.14 195.969L1127.56 184.766M1151.14 195.969L1126.17 264.37M1151.14 195.969L1171.78 214.838L1164.41 239.604M1127.56 184.766C1122.05 185.552 1108.1 193.257 1096.31 217.787M1126.17 264.37C1139.49 302.49 1135.51 345.882 1127.56 374.636C1106.46 435.602 1076.9 476.415 1045.59 503.058M1126.17 264.37C1120.15 247.156 1110.61 231.017 1096.31 217.787M1045.59 503.058C1027.47 518.481 1008.76 529.156 990.754 536.244M819.024 470.751C819.024 475.272 819.024 493.394 819.024 529.717C819.024 566.04 837.593 571.19 846.877 569.224M819.024 470.751C825.362 488.912 834.956 503.263 845.978 514.386M846.877 569.224L845.978 514.386M845.978 514.386C865.218 533.802 888.807 543.384 907.023 546.228C927.231 550.175 957.8 549.22 990.754 536.244M952.518 199.507C976.404 189.309 985.539 184.766 1011.39 184.766C1055.12 184.766 1077.33 200.232 1096.31 217.787M1045.59 691.339C1075.7 690.338 1147.7 637.979 1194.87 436.551C1200.77 381.712 1207.97 346.687 1164.41 239.604M1011.39 203.635C1053.46 207.762 1128.62 247.741 1092.77 374.636C1076.06 423.971 1015.52 520.99 907.023 514.386C863.584 506.72 788.029 461.199 833.315 340.436C847.664 294.836 903.367 203.635 1011.39 203.635Z" stroke="black" stroke-width="2"/>
</mask>
<g mask="url(#mask3)">
<rect x="800.007" y="151.006" width="523.672" height="609.618" fill="black"/>
</g>
<path d="M113 393.208H95.288V388.6H136.04V393.208H118.328V439H113V393.208ZM162.768 400.84C167.52 400.84 171.288 402.232 174.072 405.016C176.904 407.752 178.32 411.76 178.32 417.04V439H173.208V417.544C173.208 413.608 172.224 410.608 170.256 408.544C168.288 406.48 165.48 405.448 161.832 405.448C157.752 405.448 154.512 406.672 152.112 409.12C149.76 411.52 148.584 414.856 148.584 419.128V439H143.472V385.576H148.584V407.752C149.976 405.544 151.896 403.84 154.344 402.64C156.792 401.44 159.6 400.84 162.768 400.84ZM205.446 400.84C210.39 400.84 214.182 402.088 216.822 404.584C219.462 407.032 220.782 410.68 220.782 415.528V439H215.886V433.096C214.734 435.064 213.03 436.6 210.774 437.704C208.566 438.808 205.926 439.36 202.854 439.36C198.63 439.36 195.27 438.352 192.774 436.336C190.278 434.32 189.03 431.656 189.03 428.344C189.03 425.128 190.182 422.536 192.486 420.568C194.838 418.6 198.558 417.616 203.646 417.616H215.67V415.312C215.67 412.048 214.758 409.576 212.934 407.896C211.11 406.168 208.446 405.304 204.942 405.304C202.542 405.304 200.238 405.712 198.03 406.528C195.822 407.296 193.926 408.376 192.342 409.768L190.038 405.952C191.958 404.32 194.262 403.072 196.95 402.208C199.638 401.296 202.47 400.84 205.446 400.84ZM203.646 435.328C206.526 435.328 208.998 434.68 211.062 433.384C213.126 432.04 214.662 430.12 215.67 427.624V421.432H203.79C197.31 421.432 194.07 423.688 194.07 428.2C194.07 430.408 194.91 432.16 196.59 433.456C198.27 434.704 200.622 435.328 203.646 435.328ZM253.963 400.84C258.715 400.84 262.483 402.232 265.267 405.016C268.099 407.752 269.515 411.76 269.515 417.04V439H264.403V417.544C264.403 413.608 263.419 410.608 261.451 408.544C259.483 406.48 256.675 405.448 253.027 405.448C248.947 405.448 245.707 406.672 243.307 409.12C240.955 411.52 239.779 414.856 239.779 419.128V439H234.667V401.128H239.563V408.112C240.955 405.808 242.875 404.032 245.323 402.784C247.819 401.488 250.699 400.84 253.963 400.84ZM297.434 419.992L288.506 428.2V439H283.394V385.576H288.506V421.792L311.114 401.128H317.45L301.25 416.608L318.962 439H312.698L297.434 419.992ZM377.304 401.128L358.368 443.536C356.832 447.088 355.056 449.608 353.04 451.096C351.024 452.584 348.6 453.328 345.768 453.328C343.944 453.328 342.24 453.04 340.656 452.464C339.072 451.888 337.704 451.024 336.552 449.872L338.928 446.056C340.848 447.976 343.152 448.936 345.84 448.936C347.568 448.936 349.032 448.456 350.232 447.496C351.48 446.536 352.632 444.904 353.688 442.6L355.344 438.928L338.424 401.128H343.752L358.008 433.312L372.264 401.128H377.304ZM398.928 439.36C395.28 439.36 391.992 438.544 389.064 436.912C386.136 435.232 383.832 432.928 382.152 430C380.472 427.072 379.632 423.76 379.632 420.064C379.632 416.368 380.472 413.056 382.152 410.128C383.832 407.2 386.136 404.92 389.064 403.288C391.992 401.656 395.28 400.84 398.928 400.84C402.576 400.84 405.864 401.656 408.792 403.288C411.72 404.92 414 407.2 415.632 410.128C417.312 413.056 418.152 416.368 418.152 420.064C418.152 423.76 417.312 427.072 415.632 430C414 432.928 411.72 435.232 408.792 436.912C405.864 438.544 402.576 439.36 398.928 439.36ZM398.928 434.824C401.616 434.824 404.016 434.224 406.128 433.024C408.288 431.776 409.968 430.024 411.168 427.768C412.368 425.512 412.968 422.944 412.968 420.064C412.968 417.184 412.368 414.616 411.168 412.36C409.968 410.104 408.288 408.376 406.128 407.176C404.016 405.928 401.616 405.304 398.928 405.304C396.24 405.304 393.816 405.928 391.656 407.176C389.544 408.376 387.864 410.104 386.616 412.36C385.416 414.616 384.816 417.184 384.816 420.064C384.816 422.944 385.416 425.512 386.616 427.768C387.864 430.024 389.544 431.776 391.656 433.024C393.816 434.224 396.24 434.824 398.928 434.824ZM462.717 401.128V439H457.821V432.088C456.477 434.392 454.629 436.192 452.277 437.488C449.925 438.736 447.237 439.36 444.213 439.36C439.269 439.36 435.357 437.992 432.477 435.256C429.645 432.472 428.229 428.416 428.229 423.088V401.128H433.341V422.584C433.341 426.568 434.325 429.592 436.293 431.656C438.261 433.72 441.069 434.752 444.717 434.752C448.701 434.752 451.845 433.552 454.149 431.152C456.453 428.704 457.605 425.32 457.605 421V401.128H462.717ZM508.406 389.536C506.198 389.536 504.518 390.136 503.366 391.336C502.262 392.536 501.71 394.312 501.71 396.664V401.128H513.374V405.448H501.854V439H496.742V405.448H489.974V401.128H496.742V396.448C496.742 392.992 497.726 390.256 499.694 388.24C501.71 386.224 504.542 385.216 508.19 385.216C509.63 385.216 511.022 385.432 512.366 385.864C513.71 386.248 514.838 386.824 515.75 387.592L514.022 391.408C512.534 390.16 510.662 389.536 508.406 389.536ZM535.124 439.36C531.476 439.36 528.188 438.544 525.26 436.912C522.332 435.232 520.028 432.928 518.348 430C516.668 427.072 515.828 423.76 515.828 420.064C515.828 416.368 516.668 413.056 518.348 410.128C520.028 407.2 522.332 404.92 525.26 403.288C528.188 401.656 531.476 400.84 535.124 400.84C538.772 400.84 542.06 401.656 544.988 403.288C547.916 404.92 550.196 407.2 551.828 410.128C553.508 413.056 554.348 416.368 554.348 420.064C554.348 423.76 553.508 427.072 551.828 430C550.196 432.928 547.916 435.232 544.988 436.912C542.06 438.544 538.772 439.36 535.124 439.36ZM535.124 434.824C537.812 434.824 540.212 434.224 542.324 433.024C544.484 431.776 546.164 430.024 547.364 427.768C548.564 425.512 549.164 422.944 549.164 420.064C549.164 417.184 548.564 414.616 547.364 412.36C546.164 410.104 544.484 408.376 542.324 407.176C540.212 405.928 537.812 405.304 535.124 405.304C532.436 405.304 530.012 405.928 527.852 407.176C525.74 408.376 524.06 410.104 522.812 412.36C521.612 414.616 521.012 417.184 521.012 420.064C521.012 422.944 521.612 425.512 522.812 427.768C524.06 430.024 525.74 431.776 527.852 433.024C530.012 434.224 532.436 434.824 535.124 434.824ZM569.68 408.544C570.88 406 572.656 404.08 575.008 402.784C577.408 401.488 580.36 400.84 583.864 400.84V405.808L582.64 405.736C578.656 405.736 575.536 406.96 573.28 409.408C571.024 411.856 569.896 415.288 569.896 419.704V439H564.784V401.128H569.68V408.544ZM133.952 489.128L115.016 531.536C113.48 535.088 111.704 537.608 109.688 539.096C107.672 540.584 105.248 541.328 102.416 541.328C100.592 541.328 98.888 541.04 97.304 540.464C95.72 539.888 94.352 539.024 93.2 537.872L95.576 534.056C97.496 535.976 99.8 536.936 102.488 536.936C104.216 536.936 105.68 536.456 106.88 535.496C108.128 534.536 109.28 532.904 110.336 530.6L111.992 526.928L95.072 489.128H100.4L114.656 521.312L128.912 489.128H133.952ZM155.577 527.36C151.929 527.36 148.641 526.544 145.713 524.912C142.785 523.232 140.481 520.928 138.801 518C137.121 515.072 136.281 511.76 136.281 508.064C136.281 504.368 137.121 501.056 138.801 498.128C140.481 495.2 142.785 492.92 145.713 491.288C148.641 489.656 151.929 488.84 155.577 488.84C159.225 488.84 162.513 489.656 165.441 491.288C168.369 492.92 170.649 495.2 172.281 498.128C173.961 501.056 174.801 504.368 174.801 508.064C174.801 511.76 173.961 515.072 172.281 518C170.649 520.928 168.369 523.232 165.441 524.912C162.513 526.544 159.225 527.36 155.577 527.36ZM155.577 522.824C158.265 522.824 160.665 522.224 162.777 521.024C164.937 519.776 166.617 518.024 167.817 515.768C169.017 513.512 169.617 510.944 169.617 508.064C169.617 505.184 169.017 502.616 167.817 500.36C166.617 498.104 164.937 496.376 162.777 495.176C160.665 493.928 158.265 493.304 155.577 493.304C152.889 493.304 150.465 493.928 148.305 495.176C146.193 496.376 144.513 498.104 143.265 500.36C142.065 502.616 141.465 505.184 141.465 508.064C141.465 510.944 142.065 513.512 143.265 515.768C144.513 518.024 146.193 519.776 148.305 521.024C150.465 522.224 152.889 522.824 155.577 522.824ZM219.365 489.128V527H214.469V520.088C213.125 522.392 211.277 524.192 208.925 525.488C206.573 526.736 203.885 527.36 200.861 527.36C195.917 527.36 192.005 525.992 189.125 523.256C186.293 520.472 184.877 516.416 184.877 511.088V489.128H189.989V510.584C189.989 514.568 190.973 517.592 192.941 519.656C194.909 521.72 197.717 522.752 201.365 522.752C205.349 522.752 208.493 521.552 210.797 519.152C213.101 516.704 214.253 513.32 214.253 509V489.128H219.365ZM238.579 496.544C239.779 494 241.555 492.08 243.907 490.784C246.307 489.488 249.259 488.84 252.763 488.84V493.808L251.539 493.736C247.555 493.736 244.435 494.96 242.179 497.408C239.923 499.856 238.795 503.288 238.795 507.704V527H233.683V489.128H238.579V496.544ZM296.905 527.36C293.257 527.36 289.969 526.544 287.041 524.912C284.113 523.232 281.809 520.928 280.129 518C278.449 515.072 277.609 511.76 277.609 508.064C277.609 504.368 278.449 501.056 280.129 498.128C281.809 495.2 284.113 492.92 287.041 491.288C289.969 489.656 293.257 488.84 296.905 488.84C300.553 488.84 303.841 489.656 306.769 491.288C309.697 492.92 311.977 495.2 313.609 498.128C315.289 501.056 316.129 504.368 316.129 508.064C316.129 511.76 315.289 515.072 313.609 518C311.977 520.928 309.697 523.232 306.769 524.912C303.841 526.544 300.553 527.36 296.905 527.36ZM296.905 522.824C299.593 522.824 301.993 522.224 304.105 521.024C306.265 519.776 307.945 518.024 309.145 515.768C310.345 513.512 310.945 510.944 310.945 508.064C310.945 505.184 310.345 502.616 309.145 500.36C307.945 498.104 306.265 496.376 304.105 495.176C301.993 493.928 299.593 493.304 296.905 493.304C294.217 493.304 291.793 493.928 289.633 495.176C287.521 496.376 285.841 498.104 284.593 500.36C283.393 502.616 282.793 505.184 282.793 508.064C282.793 510.944 283.393 513.512 284.593 515.768C285.841 518.024 287.521 519.776 289.633 521.024C291.793 522.224 294.217 522.824 296.905 522.824ZM331.462 496.544C332.662 494 334.438 492.08 336.79 490.784C339.19 489.488 342.142 488.84 345.646 488.84V493.808L344.422 493.736C340.438 493.736 337.318 494.96 335.062 497.408C332.806 499.856 331.678 503.288 331.678 507.704V527H326.566V489.128H331.462V496.544ZM389.11 473.576V527H384.214V519.512C382.678 522.056 380.638 524 378.094 525.344C375.598 526.688 372.766 527.36 369.598 527.36C366.046 527.36 362.83 526.544 359.95 524.912C357.07 523.28 354.814 521 353.182 518.072C351.55 515.144 350.734 511.808 350.734 508.064C350.734 504.32 351.55 500.984 353.182 498.056C354.814 495.128 357.07 492.872 359.95 491.288C362.83 489.656 366.046 488.84 369.598 488.84C372.67 488.84 375.43 489.488 377.878 490.784C380.374 492.032 382.414 493.88 383.998 496.328V473.576H389.11ZM370.03 522.824C372.67 522.824 375.046 522.224 377.158 521.024C379.318 519.776 380.998 518.024 382.198 515.768C383.446 513.512 384.07 510.944 384.07 508.064C384.07 505.184 383.446 502.616 382.198 500.36C380.998 498.104 379.318 496.376 377.158 495.176C375.046 493.928 372.67 493.304 370.03 493.304C367.342 493.304 364.918 493.928 362.758 495.176C360.646 496.376 358.966 498.104 357.718 500.36C356.518 502.616 355.918 505.184 355.918 508.064C355.918 510.944 356.518 513.512 357.718 515.768C358.966 518.024 360.646 519.776 362.758 521.024C364.918 522.224 367.342 522.824 370.03 522.824ZM436.323 509.648H404.643C404.931 513.584 406.443 516.776 409.179 519.224C411.915 521.624 415.371 522.824 419.547 522.824C421.899 522.824 424.059 522.416 426.027 521.6C427.995 520.736 429.699 519.488 431.139 517.856L434.019 521.168C432.339 523.184 430.227 524.72 427.683 525.776C425.187 526.832 422.427 527.36 419.403 527.36C415.515 527.36 412.059 526.544 409.035 524.912C406.059 523.232 403.731 520.928 402.051 518C400.371 515.072 399.531 511.76 399.531 508.064C399.531 504.368 400.323 501.056 401.907 498.128C403.539 495.2 405.747 492.92 408.531 491.288C411.363 489.656 414.531 488.84 418.035 488.84C421.539 488.84 424.683 489.656 427.467 491.288C430.251 492.92 432.435 495.2 434.019 498.128C435.603 501.008 436.395 504.32 436.395 508.064L436.323 509.648ZM418.035 493.232C414.387 493.232 411.315 494.408 408.819 496.76C406.371 499.064 404.979 502.088 404.643 505.832H431.499C431.163 502.088 429.747 499.064 427.251 496.76C424.803 494.408 421.731 493.232 418.035 493.232ZM451.696 496.544C452.896 494 454.672 492.08 457.024 490.784C459.424 489.488 462.376 488.84 465.88 488.84V493.808L464.656 493.736C460.672 493.736 457.552 494.96 455.296 497.408C453.04 499.856 451.912 503.288 451.912 507.704V527H446.8V489.128H451.696V496.544ZM474.906 476.6H480.954L479.874 511.88H475.914L474.906 476.6ZM477.93 527.36C476.874 527.36 475.962 527 475.194 526.28C474.474 525.512 474.114 524.624 474.114 523.616C474.114 522.56 474.474 521.696 475.194 521.024C475.914 520.304 476.826 519.944 477.93 519.944C478.986 519.944 479.874 520.304 480.594 521.024C481.314 521.696 481.674 522.56 481.674 523.616C481.674 524.624 481.314 525.512 480.594 526.28C479.874 527 478.986 527.36 477.93 527.36Z" fill="black"/>
</svg>
